<svg width="23" height="32" viewBox="0 0 23 32" fill="none" xmlns="http://www.w3.org/2000/svg">
<path d="M3.15 32H19.9C21.6 32 23 30.6521 23 28.9548V3.09516C23 1.39782 21.6 0.049922 19.9 0.049922L3.1 0C1.4 0 0 1.39782 0 3.09516V28.9548C0 30.6521 1.4 32 3.15 32Z" fill="#40009B"/>
<path d="M11.5492 15.0762L8.69922 22.2649H14.3992L11.5492 15.0762Z" fill="#FFD740"/>
<path d="M8.19961 19.2706C9.77362 19.2706 11.0496 17.8625 11.0496 16.1256C11.0496 14.3886 9.77362 12.9805 8.19961 12.9805C6.6256 12.9805 5.34961 14.3886 5.34961 16.1256C5.34961 17.8625 6.6256 19.2706 8.19961 19.2706Z" fill="#FFD740"/>
<path d="M11.5492 16.4249C13.1232 16.4249 14.3992 14.8379 14.3992 12.8804C14.3992 10.9228 13.1232 9.33594 11.5492 9.33594C9.97521 9.33594 8.69922 10.9228 8.69922 12.8804C8.69922 14.8379 9.97521 16.4249 11.5492 16.4249Z" fill="#FFD740"/>
<path d="M14.7992 19.2706C16.3732 19.2706 17.6492 17.8625 17.6492 16.1256C17.6492 14.3886 16.3732 12.9805 14.7992 12.9805C13.2252 12.9805 11.9492 14.3886 11.9492 16.1256C11.9492 17.8625 13.2252 19.2706 14.7992 19.2706Z" fill="#FFD740"/>
<path d="M3.60195 29.2539L2.75195 31.3007H4.40195L3.60195 29.2539Z" fill="#FFD740"/>
<path d="M2.60078 30.4515C3.04261 30.4515 3.40078 30.0492 3.40078 29.5529C3.40078 29.0566 3.04261 28.6543 2.60078 28.6543C2.15895 28.6543 1.80078 29.0566 1.80078 29.5529C1.80078 30.0492 2.15895 30.4515 2.60078 30.4515Z" fill="#FFD740"/>
<path d="M3.60078 29.6033C4.04261 29.6033 4.40078 29.1563 4.40078 28.6049C4.40078 28.0535 4.04261 27.6064 3.60078 27.6064C3.15895 27.6064 2.80078 28.0535 2.80078 28.6049C2.80078 29.1563 3.15895 29.6033 3.60078 29.6033Z" fill="#FFD740"/>
<path d="M4.50117 30.4515C4.943 30.4515 5.30117 30.0492 5.30117 29.5529C5.30117 29.0566 4.943 28.6543 4.50117 28.6543C4.05934 28.6543 3.70117 29.0566 3.70117 29.5529C3.70117 30.0492 4.05934 30.4515 4.50117 30.4515Z" fill="#FFD740"/>
<path d="M20.05 3.04497L20.9 0.948242H19.25L20.05 3.04497Z" fill="#FFD740"/>
<path d="M21.05 3.64387C21.4918 3.64387 21.85 3.24156 21.85 2.74528C21.85 2.24899 21.4918 1.84668 21.05 1.84668C20.6082 1.84668 20.25 2.24899 20.25 2.74528C20.25 3.24156 20.6082 3.64387 21.05 3.64387Z" fill="#FFD740"/>
<path d="M20.05 4.64239C20.4918 4.64239 20.85 4.19537 20.85 3.64395C20.85 3.09252 20.4918 2.64551 20.05 2.64551C19.6082 2.64551 19.25 3.09252 19.25 3.64395C19.25 4.19537 19.6082 4.64239 20.05 4.64239Z" fill="#FFD740"/>
<path d="M19.1496 3.64387C19.5914 3.64387 19.9496 3.24156 19.9496 2.74528C19.9496 2.24899 19.5914 1.84668 19.1496 1.84668C18.7078 1.84668 18.3496 2.24899 18.3496 2.74528C18.3496 3.24156 18.7078 3.64387 19.1496 3.64387Z" fill="#FFD740"/>
</svg>
