<svg width="23" height="33" viewBox="0 0 23 33" fill="none" xmlns="http://www.w3.org/2000/svg">
<path d="M3.15 33H19.9C21.6 33 23 31.61 23 29.8596V3.19189C23 1.4415 21.6 0.0514821 19.9 0.0514821L3.1 0C1.4 0 0 1.4415 0 3.19189V29.8596C0 31.61 1.4 33 3.15 33Z" fill="#40009B"/>
<path d="M14.1994 20.9528C13.3994 21.6735 12.4994 22.3428 11.3994 22.8576C5.19945 19.8717 3.49945 11.2227 6.84945 10.296C7.29945 10.193 7.69945 10.1416 8.04945 10.193C10.5494 10.5534 11.4995 14.3116 11.4995 14.3116C11.4995 14.3116 12.8495 9.36934 16.1994 10.3475C18.9994 11.1197 18.1994 17.2461 14.1994 20.9528Z" fill="#FFD740"/>
<path d="M18.4003 0.874896C18.6503 0.668968 18.9003 0.46304 19.2503 0.308594C21.1003 1.18379 21.6503 3.80937 20.6503 4.06678C20.5003 4.11827 20.3503 4.11827 20.2503 4.06678C19.5003 3.96382 19.2003 2.83121 19.2003 2.83121C19.2003 2.83121 18.8003 4.32419 17.8003 4.0153C17.0003 3.80937 17.2003 1.95602 18.4003 0.874896Z" fill="#FFD740"/>
<path d="M4.19984 31.0949C3.94984 31.3009 3.69984 31.5068 3.34984 31.6612C1.49984 30.7346 0.99984 28.1605 1.99984 27.903C2.14984 27.8516 2.24984 27.8516 2.34984 27.8516C3.09984 27.9545 3.39984 29.0871 3.39984 29.0871C3.39984 29.0871 3.79984 27.5942 4.79984 27.903C5.64984 28.1605 5.39984 29.9623 4.19984 31.0949Z" fill="#FFD740"/>
</svg>
