<svg width="23" height="32" viewBox="0 0 23 32" fill="none" xmlns="http://www.w3.org/2000/svg">
<path d="M3.15 32H19.9C21.6 32 23 30.6521 23 28.9548V3.09516C23 1.39782 21.6 0.049922 19.9 0.049922L3.1 0C1.4 0 0 1.39782 0 3.09516V28.9548C0 30.6521 1.4 32 3.15 32Z" fill="#202060"/>
<path d="M11.9508 23.5628C13.6008 20.1182 16.1508 17.6221 19.6008 16.0246C16.1508 14.427 13.5508 11.881 11.9508 8.48633C10.3008 11.9309 7.75078 14.427 4.30078 16.0246C7.75078 17.6221 10.3008 20.1182 11.9508 23.5628Z" fill="#FFD740"/>
<path d="M3.25039 31.3006C3.70039 30.3521 4.40039 29.7031 5.35039 29.2538C4.40039 28.8045 3.70039 28.1555 3.25039 27.207C2.80039 28.1555 2.10039 28.8045 1.15039 29.2538C2.15039 29.7031 2.85039 30.3521 3.25039 31.3006Z" fill="#FFD740"/>
<path d="M20.1 5.04185C20.5 4.14325 21.2 3.44434 22.15 2.99505C21.2 2.54575 20.5 1.89676 20.05 0.948242C19.65 1.89676 18.95 2.54575 18 2.99505C18.95 3.44434 19.65 4.14325 20.1 5.04185Z" fill="#FFD740"/>
</svg>
