<svg width="66" height="91" viewBox="0 0 66 91" fill="none" xmlns="http://www.w3.org/2000/svg">
<path d="M9.08796 90.95L56.6678 90.9053C61.5242 90.9053 65.4631 87.0112 65.4631 82.1996L65.396 8.68323C65.396 3.87165 61.4571 0 56.5783 0L8.99844 0.0447752C4.14198 0.0447752 0.203125 3.93877 0.203125 8.75035L0.270249 82.2668C0.292629 87.056 4.23151 90.95 9.08796 90.95Z" fill="#202060"/>
<path d="M35.1172 48.4738V57.2018H40.6003C41.8536 57.2018 42.8607 58.0299 42.8607 59.0593C42.8607 60.0888 41.8536 60.9168 40.6003 60.9168H25.1358C23.8825 60.9168 22.8754 60.0888 22.8754 59.0593C22.8754 58.0299 23.8825 57.2018 25.1358 57.2018H30.5964V48.4738C29.0299 50.3537 26.5681 52.0322 23.032 51.2265C15.96 49.6152 19.6974 35.0014 32.8568 30.0332C35.4753 31.0179 37.7133 32.383 39.5708 33.9496C47.0905 40.283 48.3661 49.9285 42.6816 51.2265C39.1232 52.0545 36.6838 50.3537 35.1172 48.4738Z" fill="#F777CE"/>
<path d="M56.3988 6.40035V3.40153H54.5188C54.0936 3.40153 53.7355 3.1106 53.7355 2.75252C53.7355 2.39445 54.0936 2.10352 54.5188 2.10352H59.8453C60.2705 2.10352 60.6286 2.39445 60.6286 2.75252C60.6286 3.1106 60.2705 3.40153 59.8453 3.40153H57.9654V6.40035C58.5025 5.75135 59.3529 5.1695 60.5614 5.43806C63.0008 5.99754 61.7028 11.0329 57.1821 12.7337C56.2869 12.3981 55.5036 11.9281 54.8769 11.391C52.2808 9.19779 51.8556 5.88564 53.8027 5.43806C55.0112 5.1695 55.8616 5.75135 56.3988 6.40035Z" fill="#F777CE"/>
<path d="M10.6976 85.0423V88.0412H12.5775C13.0027 88.0412 13.3608 88.3321 13.3608 88.6902C13.3608 89.0483 13.0027 89.3392 12.5775 89.3392H7.2511C6.82588 89.3392 6.4678 89.0483 6.4678 88.6902C6.4678 88.3321 6.82588 88.0412 7.2511 88.0412H9.13103V85.0423C8.59391 85.6913 7.74345 86.2732 6.53493 86.0047C4.09551 85.4452 5.39357 80.4098 9.91433 78.709C10.8095 79.0447 11.5928 79.5146 12.2194 80.0518C14.8155 82.2449 15.2408 85.5571 13.2937 86.0047C12.0852 86.2732 11.2347 85.6913 10.6976 85.0423Z" fill="#F777CE"/>
</svg>
