<svg width="66" height="91" viewBox="0 0 66 91" fill="none" xmlns="http://www.w3.org/2000/svg">
<path d="M9.54304 90.95L57.1229 90.9053C61.9793 90.9053 65.9182 87.0112 65.9182 82.1996L65.8511 8.68323C65.8511 3.87165 61.9122 0 57.0334 0L9.45352 0.0447752C4.59706 0.0447752 0.658203 3.93877 0.658203 8.75035L0.725327 82.2668C0.747707 87.056 4.68659 90.95 9.54304 90.95Z" fill="#F777CE"/>
<path d="M33.421 42.9014L25.3418 63.2666H41.4778L33.421 42.9014Z" fill="#FFD740"/>
<path d="M23.9315 54.8514C28.4306 54.8514 32.0778 50.8236 32.0778 45.8549C32.0778 40.8863 28.4306 36.8584 23.9315 36.8584C19.4324 36.8584 15.7852 40.8863 15.7852 45.8549C15.7852 50.8236 19.4324 54.8514 23.9315 54.8514Z" fill="#FFD740"/>
<path d="M33.4217 46.6608C37.9208 46.6608 41.568 42.142 41.568 36.5677C41.568 30.9934 37.9208 26.4746 33.4217 26.4746C28.9226 26.4746 25.2754 30.9934 25.2754 36.5677C25.2754 42.142 28.9226 46.6608 33.4217 46.6608Z" fill="#FFD740"/>
<path d="M42.6658 54.8514C47.1649 54.8514 50.8122 50.8236 50.8122 45.8549C50.8122 40.8863 47.1649 36.8584 42.6658 36.8584C38.1668 36.8584 34.5195 40.8863 34.5195 45.8549C34.5195 50.8236 38.1668 54.8514 42.6658 54.8514Z" fill="#FFD740"/>
<path d="M10.8188 83.0947L8.51367 88.9358H13.1463L10.8188 83.0947Z" fill="#FFD740"/>
<path d="M8.1107 86.5193C9.39615 86.5193 10.4382 85.3671 10.4382 83.9457C10.4382 82.5243 9.39615 81.3721 8.1107 81.3721C6.82525 81.3721 5.7832 82.5243 5.7832 83.9457C5.7832 85.3671 6.82525 86.5193 8.1107 86.5193Z" fill="#FFD740"/>
<path d="M10.8178 84.1692C12.1032 84.1692 13.1453 82.8667 13.1453 81.2599C13.1453 79.6531 12.1032 78.3506 10.8178 78.3506C9.53231 78.3506 8.49023 79.6531 8.49023 81.2599C8.49023 82.8667 9.53231 84.1692 10.8178 84.1692Z" fill="#FFD740"/>
<path d="M13.4818 86.5193C14.7672 86.5193 15.8093 85.3671 15.8093 83.9457C15.8093 82.5243 14.7672 81.3721 13.4818 81.3721C12.1963 81.3721 11.1543 82.5243 11.1543 83.9457C11.1543 85.3671 12.1963 86.5193 13.4818 86.5193Z" fill="#FFD740"/>
<path d="M57.6137 8.59298L59.9189 2.75195H55.3086L57.6137 8.59298Z" fill="#FFD740"/>
<path d="M60.3197 10.3162C61.6052 10.3162 62.6472 9.16396 62.6472 7.74258C62.6472 6.3212 61.6052 5.16895 60.3197 5.16895C59.0343 5.16895 57.9922 6.3212 57.9922 7.74258C57.9922 9.16396 59.0343 10.3162 60.3197 10.3162Z" fill="#FFD740"/>
<path d="M57.6127 13.3157C58.8981 13.3157 59.9402 12.0132 59.9402 10.4064C59.9402 8.79962 58.8981 7.49707 57.6127 7.49707C56.3272 7.49707 55.2852 8.79962 55.2852 10.4064C55.2852 12.0132 56.3272 13.3157 57.6127 13.3157Z" fill="#FFD740"/>
<path d="M54.9506 10.3162C56.236 10.3162 57.2781 9.16396 57.2781 7.74258C57.2781 6.3212 56.236 5.16895 54.9506 5.16895C53.6651 5.16895 52.623 6.3212 52.623 7.74258C52.623 9.16396 53.6651 10.3162 54.9506 10.3162Z" fill="#FFD740"/>
</svg>
