<svg width="23" height="33" viewBox="0 0 23 33" fill="none" xmlns="http://www.w3.org/2000/svg">
<path d="M3.15 33H19.9C21.6 33 23 31.61 23 29.8596V3.19189C23 1.4415 21.6 0.0514821 19.9 0.0514821L3.1 0C1.4 0 0 1.4415 0 3.19189V29.8596C0 31.61 1.4 33 3.15 33Z" fill="#202060"/>
<path d="M12.3008 17.6067V20.7986H14.2508C14.7008 20.7986 15.0508 21.1075 15.0508 21.4679C15.0508 21.8283 14.7008 22.1372 14.2508 22.1372H8.75084C8.30084 22.1372 7.95084 21.8283 7.95084 21.4679C7.95084 21.1075 8.30084 20.7986 8.75084 20.7986H10.7008V17.6067C10.1508 18.276 9.30084 18.8938 8.05084 18.5849C5.55084 18.0186 6.85084 12.7159 11.5008 10.9141C12.4008 11.2744 13.2008 11.7893 13.8508 12.3556C16.5008 14.6723 16.9508 18.173 14.9508 18.6364C13.7008 18.8938 12.8508 18.276 12.3008 17.6067Z" fill="#FFD740"/>
<path d="M19.8007 2.3172V1.23608H19.1507C19.0007 1.23608 18.8507 1.13311 18.8507 1.03015C18.8507 0.927183 18.9507 0.824219 19.1507 0.824219H21.0007C21.1507 0.824219 21.3007 0.927183 21.3007 1.03015C21.3007 1.13311 21.1507 1.23608 21.0007 1.23608H20.3507V2.3172C20.5507 2.05979 20.8507 1.85386 21.2507 1.95682C22.1007 2.16275 21.6507 3.96462 20.0507 4.58241C19.7507 4.47945 19.4507 4.27352 19.2507 4.06759C18.3507 3.29536 18.2007 2.05979 18.8507 1.90534C19.3007 1.85386 19.6007 2.05979 19.8007 2.3172Z" fill="#FFD740"/>
<path d="M3.70035 30.838V31.9191H4.35035C4.50035 31.9191 4.65035 32.0221 4.65035 32.1251C4.65035 32.228 4.50035 32.434 4.35035 32.434H2.50035C2.35035 32.434 2.20035 32.331 2.20035 32.228C2.20035 32.1251 2.30035 32.0221 2.50035 32.0221H3.15035V30.941C2.95035 31.1984 2.65035 31.4043 2.25035 31.3014C1.40035 31.0954 1.85035 29.2936 3.45035 28.6758C3.75035 28.7787 4.05035 28.9847 4.25035 29.1906C5.15035 29.9628 5.30035 31.1984 4.65035 31.3528C4.20035 31.3014 3.90035 31.0954 3.70035 30.838Z" fill="#FFD740"/>
</svg>
