<svg width="66" height="91" viewBox="0 0 66 91" fill="none" xmlns="http://www.w3.org/2000/svg">
<path d="M8.97464 90.9518L56.5542 90.9071C61.4107 90.9071 65.3495 87.013 65.3495 82.2013L65.2824 8.6834C65.2824 3.87173 61.3436 0 56.4647 0L8.88512 0.0447625C4.02868 0.0447625 0.0898438 3.93887 0.0898438 8.75054L0.156967 82.2684C0.179347 87.0577 4.11821 90.9518 8.97464 90.9518Z" fill="#202060"/>
<path d="M32.7426 66.915C37.3752 57.1797 44.6039 50.0406 54.4511 45.4527C44.6039 40.8872 37.3528 33.748 32.7202 24.0352C28.0876 33.7704 20.8589 40.9096 11.0117 45.4975C20.8589 50.063 28.11 57.2021 32.7426 66.915Z" fill="#FFD740"/>
<path d="M9.37704 88.9597C10.6303 86.3189 12.5997 84.3718 15.2853 83.1186C12.5997 81.8877 10.6303 79.9406 9.37704 77.2998C8.12377 79.9406 6.15433 81.8877 3.46875 83.1409C6.15433 84.3718 8.12377 86.3189 9.37704 88.9597Z" fill="#FFD740"/>
<path d="M57.0684 14.3904C58.3217 11.7496 60.2912 9.80251 62.9767 8.54924C60.2912 7.31834 58.3217 5.37129 57.0684 2.73047C55.8152 5.37129 53.8457 7.31835 51.1602 8.57162C53.8457 9.80252 55.8152 11.7496 57.0684 14.3904Z" fill="#FFD740"/>
</svg>
