<svg width="66" height="92" viewBox="0 0 66 92" fill="none" xmlns="http://www.w3.org/2000/svg">
<path d="M8.8848 91.6178L56.4644 91.5731C61.3208 91.5731 65.2597 87.679 65.2597 82.8673L65.1926 9.34941C65.1926 4.53773 61.2537 0.666016 56.3749 0.666016L8.79527 0.710775C3.93884 0.710775 0 4.60487 0 9.41654L0.0671232 82.9344C0.0895031 87.7237 4.02837 91.6178 8.8848 91.6178Z" fill="#FFD740"/>
<path d="M40.2788 58.3705C38.0185 60.4294 35.3777 62.2198 32.4011 63.5626C14.6987 55.3492 9.79745 31.5146 19.3537 28.9633C20.5845 28.6276 21.7036 28.5605 22.733 28.7171C29.7603 29.6795 32.513 40.0414 32.513 40.0414C32.513 40.0414 36.2952 26.4568 45.8291 29.1424C53.7963 31.3356 51.5359 48.1653 40.2788 58.3705Z" fill="#40009B"/>
<path d="M54.0467 3.05984C54.7181 2.45558 55.5014 1.91846 56.3966 1.51562C61.7006 3.97741 63.1553 11.1166 60.2907 11.8775C59.9326 11.967 59.5969 11.9894 59.2836 11.9446C57.1799 11.6537 56.3518 8.56529 56.3518 8.56529C56.3518 8.56529 55.2104 12.6384 52.3682 11.8327C49.9959 11.1614 50.6673 6.1035 54.0467 3.05984Z" fill="#40009B"/>
<path d="M10.6084 87.6572C9.93698 88.2614 9.15368 88.7986 8.25849 89.2014C2.95446 86.7396 1.49976 79.6004 4.36438 78.8395C4.72246 78.75 5.05816 78.7276 5.37148 78.7724C7.47519 79.0633 8.30324 82.1517 8.30324 82.1517C8.30324 82.1517 9.44462 78.0786 12.2869 78.8843C14.6591 79.5557 13.9654 84.6135 10.6084 87.6572Z" fill="#40009B"/>
</svg>
