<svg width="51" height="54" viewBox="0 0 51 54" fill="none" xmlns="http://www.w3.org/2000/svg">
<path d="M50.8782 28.4197L49.8797 28.0212L49.0272 27.4732L48.6132 26.5766L47.8095 25.3312L46.9814 24.4594L46.0072 23.9862L45.3739 23.7869L44.2536 23.8616L42.914 24.1854L41.7937 24.7832L41.0387 25.6052L40.0401 26.8256L39.3338 27.6725L38.7249 28.1707L38.3352 28.3699L37.7751 28.1707L37.5559 27.3736L37.5072 25.3561L37.5559 22.9649L37.5315 20.6485L37.3123 18.083L36.6791 16.4391L35.6562 14.4216L33.9513 12.1799L31.4183 9.51476L28.9097 6.92435L27.9112 5.70387L26.7421 3.18819L25.914 0.946494L25.5 0.22417L25.159 0H24.745L24.3309 0.423432L24.0143 1.51937L23.6977 3.56181L23.4785 4.85701L23.2593 5.38007L22.7235 6.00277L22.1877 6.65037L21.8954 7.12362L21.7006 7.62177L21.7493 8.14483L21.9441 8.71771L22.1877 9.26568L22.139 9.88838L21.9441 10.3616L21.457 10.9843L21.1404 11.4077L20.9943 12.0803L21.116 12.6033L21.4814 13.2509L21.9928 13.8487L22.0659 14.3469L22.0172 14.6458L21.7006 15.0692L21.2622 15.4677L20.9943 15.8911L20.8725 16.2648L20.9456 16.7878L21.0673 17.2611L21.4327 17.6347L21.8954 18.083L22.1877 18.4068L22.2607 18.7306L22.1633 19.2039L22.0172 19.702L21.8954 20.3994L22.0172 21.047L22.3338 21.6697L22.8696 22.143L23.3324 22.6162L23.649 22.8653L23.7464 22.94L23.6734 22.9151L23.4298 22.7906L23.0401 22.6411L22.553 22.417L21.6032 22.0434L20.7751 21.7196L19.947 21.4207L18.8754 21.0969L18.0473 20.8727L17.5115 20.7482L16.7808 20.5987L15.9527 20.4493L15.2951 20.3247L14.1748 20.1006L13.2736 19.9013L12.2751 19.6273L11.0817 19.2786L9.6447 18.8303L7.74499 18.1827L6.04011 17.5351L5.35817 17.2611L4.09169 16.7629L3.33668 16.4391L2.67908 16.19L2.38682 16.1153L2.26504 16.0904L2.16762 16.1153L2.11891 16.1651L2.0702 16.2149V16.2897L2.09456 16.3644L2.16762 16.464L2.26504 16.5886L2.48424 16.7878L2.7765 17.0369L3.33668 17.5101L3.87249 17.9336L4.3596 18.3819L4.87106 18.8053L5.38252 19.3035L5.35817 19.2786L5.21203 19.2288L4.89542 19.1042L4.67622 19.0046L4.5788 18.9548H4.50573L4.40831 18.9797L4.3596 19.0046L4.31089 19.0544L4.26218 19.1292V19.2288V19.3533L4.31089 19.5775L4.45702 20.0009L4.55444 20.2002L4.74928 20.6734L5.0659 21.2961L5.18768 21.4954L5.60172 22.1928L5.69914 22.3921L5.74785 22.4668L5.82092 22.5913L6.01576 22.8902L6.18625 23.214L6.45415 23.6375L6.72206 24.036L6.91691 24.3598L7.25788 24.8579L7.64756 25.4059L8.08596 26.0286L8.30516 26.3524L9.15759 27.4732L9.47421 27.8967L10.1805 28.7934L10.9842 29.7648L12.0072 30.9354L12.884 31.9068L13.9312 32.953L14.7837 33.75L15.3682 34.298L16.4885 35.1946L17.1948 35.6928L17.9255 36.191L19.1189 36.8635L20.0931 37.2869L21.1891 37.6107L22.1146 37.7601L22.7966 37.7352L23.1619 37.6854V37.7103L22.9183 37.9594L22.3582 38.4576L21.8223 38.9557L20.7264 39.8275L20.1418 40.3007L18.8754 41.2472L16.586 42.8413L15.8309 43.3146L14.3453 44.2362L12.0072 45.5314L10.9599 46.0295L9.88825 46.5277L8.30516 47.2002L7.28224 47.6485L6.06447 48.1965L5.13897 48.6199L3.55587 49.3423L2.70344 49.7906L1.94842 50.1891L1.38825 50.5378L0.925501 50.8367L0.730659 50.9862L0.535817 51.1605L0.292264 51.4096L0.146132 51.6089L0.0243553 51.833L0 52.0821L0.0243553 52.1817L0.0487106 52.3312L0.121777 52.4806L0.267908 52.655L0.462751 52.8044L0.681948 52.9539L0.974212 53.0535L1.19341 53.0784L1.41261 53.0286L1.65616 52.9539L1.80229 52.9041L2.0702 52.8293L2.33811 52.8044L2.60602 52.8293L2.82522 52.929L2.97135 53.0037L3.14183 53.1033L3.4341 53.3026L3.84814 53.5267L4.3596 53.7509L4.60315 53.8256L4.8467 53.9004L5.26075 53.9751L5.74785 54L6.16189 53.9751L6.62464 53.9004L6.91691 53.8256L7.28224 53.7011L8.03725 53.3773L8.81662 52.9539L9.03582 52.8044L9.37679 52.6052L9.71777 52.3312L9.96132 52.2315L10.2049 52.1319H10.4484L10.7894 52.1568L11.1547 52.2066L11.447 52.2315H11.7636L12.0802 52.1319L12.4212 52.0074L12.7135 51.833L12.9814 51.6338L13.3711 51.3349L14.0043 50.8865L14.6619 50.488L15.2951 50.1393L15.8066 49.8653L16.3911 49.6162L17.3897 49.2426L18.0473 49.0184L18.8754 48.7694L19.4599 48.6199L20.3367 48.3958L21.3352 48.2214L22.0172 48.0969L23.0401 47.9474L24.0874 47.798L25.159 47.6734L26.1332 47.524L27.3266 47.3496L28.3252 47.1753L29.543 46.9511L30.3954 46.7768L31.3209 46.5277L32.5874 46.1541L33.3911 45.905L34 45.6559L34.6819 45.3819L35.2665 45.1328L35.7536 44.9087L36.2163 44.6845L36.7521 44.3856L37.4828 43.9871L38.3352 43.464L38.9685 43.0157L39.8696 42.393L40.8438 41.6208L41.7693 40.7989L42.3295 40.2758L42.9871 39.6033L43.3524 39.1799L43.8883 38.5323L44.7407 37.3616L45.2522 36.4649L45.8367 35.2694L45.9828 34.8459L46.3725 33.7251L46.8109 32.3053L47.2006 31.2094L47.4198 30.6614L47.712 30.2131L47.9556 29.9889L48.0774 29.9142L48.3696 29.8146L49.6605 29.2915L50.2937 29.0424L50.5616 28.9179L50.8539 28.7934L50.9513 28.7186L51 28.6439V28.5443L50.9513 28.4696L50.8782 28.4197Z" fill="#40009B"/>
<path d="M45.1066 27.224C45.5236 27.224 45.8616 26.8783 45.8616 26.4518C45.8616 26.0254 45.5236 25.6797 45.1066 25.6797C44.6896 25.6797 44.3516 26.0254 44.3516 26.4518C44.3516 26.8783 44.6896 27.224 45.1066 27.224Z" fill="white"/>
<path d="M9.32812 22.5918C11.9829 27.3492 14.2723 28.9682 15.9041 28.4949C18.6319 27.7228 21.9198 31.0355 22.5287 31.4091" stroke="#F777CE" stroke-width="2" stroke-miterlimit="10"/>
<path d="M11.5684 20.7227C13.9552 25.0566 16.0254 26.5013 17.5354 26.0778C19.9953 25.3804 22.991 28.3693 23.5512 28.718" stroke="#F777CE" stroke-miterlimit="10"/>
<path d="M25.5248 8.54395C24.721 13.9489 25.5248 16.6639 27.1079 17.3364C29.7139 18.4572 30.2984 23.1399 30.542 23.8373" stroke="#F777CE" stroke-width="2" stroke-miterlimit="10"/>
<path d="M28.2871 8C27.5565 12.9068 28.2871 15.3727 29.7241 15.9705C32.0865 16.9917 32.598 21.226 32.8416 21.8736" stroke="#F777CE" stroke-miterlimit="10"/>
<path d="M26.1562 41.9946C31.5144 42.2935 34.0717 41.1726 34.5588 39.5038C35.3869 36.7391 39.8926 35.6929 40.5502 35.3691" stroke="#F777CE" stroke-width="2" stroke-miterlimit="10"/>
<path d="M26 37.9779C30.8467 38.2518 33.1605 37.2555 33.6232 35.7362C34.3782 33.2205 38.4456 32.274 39.0544 32" stroke="#F777CE" stroke-miterlimit="10"/>
</svg>
