<svg width="95" height="73" viewBox="0 0 95 73" fill="none" xmlns="http://www.w3.org/2000/svg">
<path d="M3.88892 32.0074C2.67237 31.4007 2.05087 31.1106 1.90541 30.9655C1.49549 30.5698 1.01945 29.9367 0.622746 29.5015C0.596299 29.4751 0.516959 29.3828 0.437618 29.2509C0.345054 29.119 0.305384 29.0003 0.252491 28.8684C0.0805866 28.4332 -0.0119772 28.2221 0.00124623 28.1166C0.0144696 28.0111 0.0409164 27.8265 0.252491 27.6154L0.503735 27.3648H1.00622H1.25747C1.50871 27.5363 1.75996 27.6946 2.0112 27.866C2.14344 27.9584 2.76494 28.3672 2.76494 28.3672C4.19306 29.3168 4.12694 29.2905 4.2724 29.3696C4.61621 29.5806 5.1187 29.8576 5.77987 30.1214C6.18979 30.2137 6.71873 30.3588 7.28733 30.6226C7.80305 30.86 8.2262 31.1369 8.54356 31.3743C9.50886 31.7172 10.2758 31.9678 10.8048 32.1261C10.9634 32.1789 11.0692 32.2052 12.5767 32.6537C13.066 32.7988 13.304 32.8647 13.3172 32.8779C15.8429 33.6429 15.79 33.7747 16.5834 33.8803C17.0065 33.933 17.4297 33.9462 18.0908 34.1309C18.4479 34.2232 18.6198 34.3023 18.8446 34.3815C19.4661 34.5925 19.9686 34.6189 21.357 34.632C22.481 34.6452 23.367 34.632 23.6182 34.632C25.324 34.6189 25.5356 34.5925 26.1307 34.632C26.4613 34.6584 26.977 34.698 28.1406 34.8826C30.1241 35.1992 31.6448 35.5685 31.9093 35.6344C34.554 36.2807 34.4746 36.4785 36.4317 36.8874C37.4763 37.1116 38.521 37.3226 39.9491 37.3886C42.2103 37.4941 42.3029 37.072 43.7178 37.3886C44.207 37.4941 44.7624 37.6787 45.2252 37.3886C45.5955 37.1512 45.7674 36.6895 45.979 36.1356C46.2038 35.5421 46.1641 35.2915 46.4815 34.8826C46.6534 34.6584 46.8649 34.487 46.984 34.3815C47.2484 34.1572 47.46 33.9858 47.7377 33.8803C48.2799 33.6824 48.465 33.9594 49.4964 33.8803C49.6286 33.8671 49.7741 33.8539 49.9989 33.8803C50.3559 33.9198 50.6072 34.0517 50.7526 34.1309C51.3212 34.4342 51.784 34.7376 52.0088 34.8826C52.6832 35.3179 53.0138 35.5421 53.2651 35.6344C53.7147 35.8059 54.0717 35.8323 54.7725 35.885C55.275 35.9246 55.7114 35.951 56.28 35.885C57.0734 35.7927 57.642 35.5553 58.0387 35.3838C58.6602 35.12 59.0569 34.8694 59.7974 34.3815C60.3793 33.999 60.604 33.8143 61.5561 33.1285C62.8256 32.2052 62.8388 32.2448 63.3148 31.8755C63.4206 31.7964 64.7298 30.794 65.8273 29.6202C67.1496 28.1958 67.8372 26.8373 68.0885 26.3625C70.5745 21.7331 75.639 20.0976 79.8838 13.0942C82.6342 8.57036 83.9962 6.30184 84.1549 5.82703C84.1549 5.82703 84.5516 4.60044 85.9136 3.07051C86.0062 2.96499 86.2574 2.68802 86.6674 2.56932C86.8525 2.51656 87.1831 2.41105 87.4211 2.56932C87.6459 2.7144 87.6062 2.93862 87.9236 3.3211C88.0161 3.4398 88.1087 3.51894 88.1748 3.57169C88.6641 3.2024 88.9815 2.8331 89.1798 2.56932C89.3914 2.27916 89.4575 2.13408 90.1187 1.01301C90.4492 0.445874 90.6079 0.195281 90.9385 0.0765791C91.0046 0.0502008 91.3617 -0.0816902 91.6922 0.0765791C92.0361 0.248037 92.1418 0.643711 92.1947 0.828358C92.3666 1.46144 92.0228 1.6197 92.1947 2.08132C92.2873 2.31873 92.5914 2.56932 93.1997 3.0837C93.5171 3.34748 93.6096 3.40023 93.7022 3.58488C93.7551 3.70358 93.7948 3.83548 93.7022 4.58725C93.6229 5.28628 93.57 5.64238 93.451 5.84022C93.3319 6.03806 93.1997 6.13038 93.1997 6.34141C93.1997 6.46011 93.2394 6.60519 93.451 6.84259C93.8741 7.3174 94.1915 7.27783 94.4559 7.59437C94.7072 7.88453 94.7072 8.25383 94.7072 8.59674C94.7072 9.51998 94.1782 9.73101 94.2047 10.6015C94.2179 10.8916 94.2708 10.7861 94.4559 11.6039C94.6278 12.3425 94.7204 12.8041 94.7072 13.358C94.6807 14.123 94.4692 14.123 94.4559 14.8616C94.4559 15.0726 94.4692 15.1913 94.7072 16.3651C94.9981 17.7896 95.051 18.0006 94.9584 18.3699C94.813 18.8974 94.6014 18.8051 94.4559 19.3722C94.2972 20.0317 94.5749 20.2427 94.4559 21.1264C94.403 21.4957 94.3237 21.7727 94.2047 22.1288C93.9667 22.8674 93.8212 22.9333 93.7022 23.3817C93.4774 24.1995 93.8476 24.3709 93.7022 25.1359C93.5303 26.0327 92.9881 25.98 92.6972 26.89C92.3931 27.866 92.922 28.1826 92.6972 29.1454C92.4724 30.0818 91.9435 29.8708 91.1898 31.1501C90.7005 31.9942 90.079 33.511 89.9335 34.6584C89.9203 34.7903 89.8806 35.0937 89.6823 35.4102C89.4178 35.8323 89.0476 35.9378 88.6773 36.162C87.9368 36.5972 87.4079 37.3358 87.1698 37.9161C86.8922 38.5888 87.0773 38.8789 86.6674 39.6703C86.5219 39.9473 86.4029 40.1055 86.1649 40.4221C85.4905 41.3189 84.8293 41.8465 84.4062 42.1762C83.9433 42.5455 83.7318 42.6378 83.6524 42.6774C83.1235 42.9148 82.8061 42.8489 82.3962 42.928C81.5102 43.0863 81.5631 43.6138 80.135 44.4315C79.4738 44.814 79.4474 44.7349 78.6275 45.1833C78.0854 45.4867 77.6622 45.7505 77.3713 45.9351C77.1333 46.0934 76.8027 46.278 76.3663 46.4363C76.168 46.5022 75.7316 46.6473 75.1101 46.6869C74.3167 46.7396 73.6555 46.6209 72.5977 46.4363C72.5977 46.4363 71.9365 46.3176 71.0902 46.4363C70.9183 46.4627 70.667 46.5022 70.5877 46.6869C70.548 46.7792 70.5613 46.8715 70.5877 46.9375C70.667 47.0166 70.7596 47.1089 70.839 47.1881C71.077 47.2672 71.4208 47.3727 71.8439 47.4387C72.6506 47.5574 73.2721 47.4782 73.6026 47.4387C75.2952 47.2276 74.0258 47.531 76.6176 47.1881C82.0259 46.4627 84.7367 46.1066 85.4111 45.9351C85.4111 45.9351 86.5219 45.6449 88.1748 45.9351C88.4657 45.9879 88.9021 46.0802 89.1798 46.4363C89.3385 46.6473 89.3914 46.8847 89.431 47.4387C89.5104 48.7576 89.2856 48.8367 89.431 49.4434C89.4972 49.7072 89.722 50.1161 90.1848 50.947C90.5418 51.5932 90.6344 51.6724 90.6873 51.9493C90.7798 52.4373 90.6211 52.7275 90.436 53.4529C90.436 53.4529 90.2377 54.2838 90.1848 55.2071C90.1187 56.5655 90.4625 56.7502 90.1848 57.4624C90.0525 57.7789 89.8542 58.0955 89.431 58.7154C89.0343 59.2957 89.0079 59.2561 88.9286 59.4671C88.7038 60.0606 89.0079 60.364 88.9286 61.2213C88.9153 61.4191 88.8757 61.8148 88.6773 62.2237C88.5847 62.4215 88.3864 62.7776 87.1698 63.7272C86.2971 64.4131 86.2045 64.3735 85.9136 64.7296C85.5169 65.2176 85.6095 65.389 85.1599 65.9826C84.8822 66.3518 84.8293 66.2991 84.1549 66.9849C83.4144 67.7499 83.4408 67.8422 83.1499 67.9873C82.502 68.317 82.2507 67.9214 81.6425 68.2379C81.1532 68.4885 81.2722 68.7523 80.3862 69.4909C80.0028 69.8074 79.778 69.9261 79.6325 69.9921C79.368 70.1107 79.2623 70.1107 78.6275 70.2426C77.5961 70.4669 77.5961 70.546 77.3713 70.4932C76.882 70.3745 76.7763 69.9657 76.3663 69.9921C76.2076 70.0052 76.0886 70.0844 75.8638 70.2426C75.6258 70.4141 75.3085 70.6779 74.6076 71.4956C74.3828 71.7726 74.2903 71.8781 74.1051 71.9968C73.8142 72.1814 73.5365 72.221 73.3514 72.2474C72.6506 72.3397 72.0952 72.2869 71.3414 72.2474C70.5216 72.2078 70.1117 72.1814 69.834 72.2474C69.2918 72.3661 69.2918 72.5244 68.5778 72.7486C68.2075 72.8673 67.7182 73.0124 67.0703 72.9992C66.5281 72.986 66.1182 72.8541 65.8141 72.7486C65.0207 72.4848 64.7694 72.2078 64.3066 71.9968C63.2091 71.4956 62.7991 72.2078 61.2917 71.9968C60.1809 71.8385 60.4454 71.456 58.2767 70.7438C57.5759 70.5196 57.0602 70.3877 56.2668 69.9921C55.6056 69.6623 55.1296 69.3326 55.0106 69.2403C54.2039 68.66 54.1114 68.3962 53.0006 67.4861C52.5378 67.1036 52.2998 66.919 51.9956 66.7343C51.2816 66.3123 51.0568 66.3782 50.4882 65.9826C50.0915 65.7056 49.8534 65.4154 49.4832 64.9802C48.9014 64.3075 49.0468 64.268 48.7294 63.9778C47.9889 63.292 47.4336 63.6745 46.7195 62.9754C46.4021 62.6589 46.5079 62.593 45.9658 61.9731C45.6748 61.6433 45.4897 61.4983 45.4633 61.2213C45.45 61.0366 45.5029 60.9179 45.7145 60.4695C46.0187 59.8364 46.1773 59.5199 46.217 59.4671C46.6005 58.966 47.1691 58.8736 47.7245 58.7154C48.0551 58.623 48.7823 58.2274 50.2369 57.4624C52.4717 56.2754 52.0221 56.1962 53.5031 55.4576C53.5031 55.4576 54.2304 55.1015 55.0106 54.2047C55.0767 54.1255 55.2221 53.9541 55.2618 53.7035C55.3015 53.4529 55.2354 53.1232 55.0106 52.9517C54.8915 52.8594 54.7725 52.8462 54.0056 52.9517C53.3047 53.044 52.9477 53.0968 52.7494 53.2023C52.5246 53.321 52.4849 53.4133 51.9956 53.7035C51.7312 53.8618 51.5989 53.9409 51.4931 53.9541C51.3741 53.9673 51.2287 53.9541 50.4882 53.4529C50.3691 53.3738 50.0915 53.1891 49.7344 52.9517C49.3774 52.7143 49.3113 52.7011 49.2319 52.7011C49.0468 52.7143 48.9675 52.8594 48.4782 53.4529C48.1608 53.8486 48.0947 53.9013 47.9757 53.9541C47.6451 54.0992 47.3013 53.9805 47.222 53.9541C46.9046 53.8486 46.9178 53.7167 46.4682 53.4529C46.1773 53.2814 45.9658 53.1627 45.7145 53.2023C45.5294 53.2287 45.4897 53.3078 45.212 53.4529C44.9079 53.6112 44.6566 53.6639 44.4583 53.7035C44.2599 53.7431 43.7046 53.8618 43.2021 53.7035C42.6731 53.532 42.7128 53.2023 41.9458 52.4505C41.5095 52.0285 41.0863 51.6328 40.4384 51.4482C40.2004 51.3822 39.7243 51.2635 39.1822 51.4482C38.8119 51.58 38.5607 51.8043 38.4284 51.9493C38.2036 51.9889 37.8466 52.0153 37.4234 51.9493C37.1193 51.8966 36.8152 51.7911 36.1672 51.4482C35.6912 51.1976 35.3738 50.9865 34.911 50.6964C33.1523 49.5885 33.4961 49.8391 32.901 49.4434C32.1209 48.9158 32.0151 48.7971 31.6448 48.6916C31.0894 48.5334 30.8911 48.6653 30.3886 48.441C29.8993 48.23 29.9919 48.0454 29.3836 47.6893C28.9605 47.4387 28.4844 47.1485 27.8762 47.1881C27.5588 47.2013 27.3869 47.3068 27.1224 47.1881C26.8844 47.0826 26.858 46.9243 26.6199 46.6869C26.3158 46.3967 26.1968 46.5022 25.615 46.1857C25.1389 45.9219 24.7951 45.6054 24.61 45.4339C24.3191 45.157 24.3191 45.1042 24.1075 44.9327C23.724 44.6162 23.3141 44.4843 23.0496 44.4184C22.4149 44.1546 21.9256 43.8908 21.6083 43.6798C21.119 43.3632 20.352 42.7961 20.0479 42.5719C19.9686 42.5191 19.9289 42.4796 19.8496 42.4268C19.3471 42.0971 18.9239 42.0311 18.5933 41.9256C18.2628 41.8201 17.9586 41.6091 17.3371 41.1738C16.9007 40.8705 16.9536 40.8573 16.0809 40.1715C15.1949 39.4724 14.9172 39.301 14.5734 39.1691C14.1767 39.0108 14.1635 39.0768 13.8197 38.9185C13.661 38.8526 13.2114 38.6152 12.5635 37.9161C11.8362 37.1248 12.0081 36.9665 11.5585 36.6632C11.0163 36.2939 10.8048 36.5445 10.051 36.162C9.49564 35.885 9.13861 35.5157 8.7948 35.1596C8.13363 34.4738 8.08074 34.1177 7.53858 33.9066C7.28734 33.8143 7.14188 33.8275 6.78485 33.656C6.38814 33.4714 6.1369 33.2472 6.03111 33.1549C5.7402 32.8911 5.58152 32.8383 3.88892 32.0074Z" fill="#FFD740"/>
</svg>
