<svg width="43" height="66" viewBox="0 0 43 66" fill="none" xmlns="http://www.w3.org/2000/svg">
<path d="M3.26609 64.4785C3.46762 61.8333 4.37449 58.0454 4.37449 58.0454C4.76839 56.3956 4.59434 56.6352 5.20809 53.8519C5.42793 52.8381 5.59282 52.156 5.76687 51.0501C5.92259 50.0547 6.04168 49.2252 6.04168 48.2483C6.04168 46.8566 5.78519 46.3404 5.4829 44.6077C5.14396 42.6354 5.39129 42.8105 5.06152 40.276C4.74091 37.8152 4.5119 37.6585 4.22793 35.2438C4.10884 34.2576 4.05388 33.3729 3.95312 31.6033C3.67831 27.1333 3.87068 27.4006 3.67831 26.2854C3.24777 23.8707 2.62487 24.2578 1.4615 20.4237C0.838599 18.3592 1.26914 19.0873 0.353101 15.3915C0.124092 14.4699 -0.132398 13.5298 0.0782903 12.3132C0.316459 10.9031 0.966844 10.2672 1.18669 10.0736C1.34242 9.93536 2.02944 9.32707 2.57907 9.5114C2.66151 9.53905 2.97296 9.35472 3.4493 9.59435C3.84319 9.7879 3.96228 9.77868 4.08136 9.85241C4.33785 10.0183 4.49358 10.2119 4.68595 10.4423C5.1806 11.0413 4.89663 10.9123 5.07984 11.198C5.44626 11.751 5.07984 12.4883 5.07068 13.7141C5.07068 13.8616 5.07068 14.7187 5.34549 15.668C5.43709 15.9906 5.78519 16.6357 6.45389 17.9076C7.68138 20.2117 7.47069 19.6127 7.5623 19.8615C7.63558 20.0458 7.76382 20.4145 8.12108 20.7002C8.17604 20.7371 8.65238 21.1149 8.95467 20.9767C9.41269 20.7739 9.28444 19.5481 9.22948 19.0228C9.03711 17.1611 8.87223 15.2901 8.6707 13.4284C8.39589 10.7925 8.91803 11.2441 8.6707 7.834C8.56993 6.44232 8.82642 5.0322 8.6707 3.64051C8.63406 3.2995 8.54245 2.58061 8.94551 1.96311C9.25696 1.49307 9.72414 1.27187 10.0539 1.12441C10.3196 1.0046 10.9425 0.728102 11.7211 0.847916C11.886 0.875565 12.2066 0.921648 12.5547 1.12441C12.9669 1.36404 13.1868 1.66818 13.3883 1.96311C13.5348 2.17509 13.8005 2.55296 13.9471 3.0783C14.1028 3.64972 14.002 4.00917 13.9471 4.7557C13.9104 5.22574 13.8829 5.88933 13.9471 6.7096C13.9471 7.06904 13.9379 7.65889 13.9471 8.38699C13.9837 11.8247 14.2127 12.7925 14.2219 15.6588C14.231 17.5021 14.231 18.4237 14.2219 18.4606C14.1211 18.9122 13.9196 19.5666 14.2219 19.8615C14.4417 20.0643 14.9455 20.1288 15.0555 20.138C15.2295 20.1564 15.3028 20.1472 15.3303 20.138C15.66 20.0643 15.8249 19.7048 15.8891 19.5758C16.2555 18.8016 15.8891 17.3362 15.8891 17.3362C15.8891 17.3362 15.8891 17.3362 15.8891 13.4192C15.8891 10.4331 15.8891 8.93998 15.8891 8.93998C15.8249 6.79254 15.9623 4.6451 15.8891 2.50688C15.8799 2.27647 15.8616 1.70505 16.1639 1.10598C16.5028 0.525339 16.9883 0.18433 17.3089 0C17.6204 0 18.1333 0.0276494 18.7013 0.276494C18.9944 0.405525 19.4982 0.62672 19.8097 1.11519C20.112 1.57602 20.0845 2.04606 20.0845 2.5161C20.0845 3.92622 20.2769 3.05065 20.3593 5.5944C20.4143 7.19807 20.3227 7.19807 20.3593 8.6727C20.4051 10.6358 20.57 11.1059 20.6341 13.1519C20.6708 14.3501 20.6524 15.3178 20.6341 15.9537C20.6341 16.1749 20.6341 16.3961 20.6341 16.6081C20.6341 18.7463 20.6341 18.7463 20.6341 18.7463C20.5883 19.585 20.4967 19.7601 20.6341 20.1472C20.7715 20.5343 21.0189 20.8016 21.1929 20.9859C21.4769 21.2993 21.7517 21.5942 22.0265 21.5481C22.3379 21.4928 22.4937 21.0136 22.5853 20.7094C22.9975 19.2901 22.8876 17.9906 22.8601 17.3546C22.8418 16.9583 22.9425 15.9722 23.1349 13.9998C23.2357 12.986 23.4005 11.5482 23.6937 9.80633C23.7212 9.622 23.7212 9.46532 23.7395 9.17961C23.8402 7.75106 23.8586 7.01374 23.9776 5.88933C24.0692 4.96768 24.1334 4.74649 24.2525 4.48842C24.3624 4.26723 24.6738 3.64051 25.3609 3.37323C25.9196 3.15203 26.4326 3.29028 26.7532 3.37323C26.9181 3.41931 27.5868 3.61286 28.1456 4.21193C28.7868 4.91238 28.9242 5.7603 28.9792 6.16582C29.3181 8.6727 29.0616 12.221 28.9792 14.562C28.9151 16.5436 28.9334 18.9399 28.7044 20.7186C28.5761 21.6864 28.4296 22.6725 28.4296 22.6725C28.2738 23.6587 28.2006 23.8707 28.1548 24.3499C28.1364 24.5619 28.1181 24.7094 28.1181 24.8753C28.109 25.3177 28.1456 25.6587 28.1548 26.5895C28.1639 27.4559 28.1364 28.5158 28.1548 30.23C28.1548 30.5158 28.1731 31.0411 28.4296 31.6309C28.5212 31.8429 28.6677 32.1655 28.9884 32.4696C29.0525 32.5342 29.5838 33.0318 30.0968 33.0318C30.7838 33.0318 31.2601 32.1563 31.7639 31.3545C31.7639 31.3545 33.0281 29.3729 34.8235 27.7139C35.3273 27.2439 36.2708 26.654 38.1579 25.4743C38.3869 25.3269 38.8724 25.0319 39.5502 24.9121C39.7976 24.8661 40.1823 24.8015 40.6586 24.9121C41.2541 25.0504 41.648 25.373 41.767 25.4743C41.9411 25.6126 41.8953 25.6126 42.3258 26.0365C42.738 26.4421 42.8022 26.4605 42.8846 26.5988C42.9945 26.7831 43.077 27.0964 42.8846 27.7139C42.5365 28.8384 41.822 29.2623 40.9426 30.5158C40.5579 31.0595 40.5762 31.1425 40.109 31.9167C39.1014 33.5756 38.4968 34.018 37.3243 35.5572C35.822 37.5295 36.1609 37.6493 34.5395 39.7507C33.8525 40.6447 33.2571 41.4004 32.3136 42.2668C31.6632 42.8566 30.8662 43.4096 29.254 44.5064C27.2021 45.9073 26.1761 46.6077 25.9196 46.746C25.2876 47.087 24.6097 47.3911 23.9776 48.1469C23.8586 48.2943 23.483 48.7459 23.1441 49.5478C22.7868 50.3865 22.7227 51.0408 22.5853 52.9026C22.4204 55.2343 22.4295 55.5938 22.3105 56.8196C22.1914 58.0177 22.1639 57.7597 22.0356 59.0592C21.7608 61.649 21.6234 62.9485 21.7608 63.5384C21.8799 64.0729 22.0906 64.6997 21.7608 65.2158C21.5318 65.566 21.1654 65.7043 20.9272 65.778C19.5257 66.2112 18.0417 65.8978 17.3089 65.778C17.3089 65.778 17.3089 65.778 13.1409 65.778C11.4738 65.778 9.78826 65.5292 8.1394 65.778C8.1394 65.778 6.44473 66.0361 4.52106 65.778C4.25541 65.7411 3.67831 65.649 3.41266 65.2158C3.23861 64.9116 3.25693 64.6075 3.26609 64.4785Z" fill="#FFD740"/>
</svg>
