<svg width="60" height="69" viewBox="0 0 60 69" fill="none" xmlns="http://www.w3.org/2000/svg">
<g clip-path="url(#clip0)">
<path d="M48.1287 39.0437L30.0087 38.9715L11.8886 38.8994L11.9048 52.435C11.8967 58.2451 11.9129 62.4764 11.921 63.3179C11.921 63.4461 11.9291 63.7667 12.0671 64.1433C12.2618 64.6642 12.5945 64.9688 12.9597 65.3053C13.901 66.1628 14.964 66.5635 15.5564 66.7959C16.3435 67.0925 16.9846 67.3008 17.512 67.4451C18.145 67.6294 19.0051 67.8698 20.0519 68.0942C22.0563 68.527 23.5899 68.6712 24.9613 68.7914C26.5843 68.9357 28.4993 69.0318 30.6578 69.0078C33.9524 68.9677 36.403 68.6552 37.036 68.567C39.4623 68.2465 40.8661 67.8778 42.8948 67.3489C42.8948 67.3489 44.7449 66.8601 46.5707 65.698C46.9765 65.4416 47.4958 65.0569 47.8691 64.4158C48.0233 64.1513 48.1125 63.9109 48.1693 63.7426L48.1855 59.3109L48.1693 48.7085L48.1125 42.4897L48.1287 39.0437Z" fill="#202060"/>
<path d="M48.1543 43.5154V43.3071L48.1462 40.3579V37.8896L44.7624 38.5708L39.7069 39.268L34.0753 39.6768L29.1091 39.7649L24.3539 39.6126L18.7872 39.1158L14.665 38.4987L11.8898 37.9377V40.959L11.8979 43.6837L12.3929 44.5412L13.748 45.6872L16.9858 47.0816L20.2154 47.883L23.2097 48.3559L27.4862 48.7566L32.2657 48.7485L36.8911 48.3318L41.0945 47.5865L44.17 46.6649L46.2392 45.6792L46.8559 45.2625L47.4159 44.7736L47.919 44.0924" fill="#F777CE"/>
<path d="M-0.00194035 31.0561C-0.00840736 26.0149 13.4178 21.9109 29.9863 21.8895C46.5549 21.8681 59.9916 25.9374 59.9981 30.9786C60.0045 36.0198 46.5783 40.1238 30.0098 40.1452C13.4412 40.1666 0.00452665 36.0973 -0.00194035 31.0561Z" fill="#202060"/>
<path d="M30.0005 33.4657C35.9647 33.4577 41.8154 32.8647 46.4733 31.7908C46.4814 31.7908 46.4976 31.7828 46.5057 31.7828C47.3497 31.5905 47.3497 30.4124 46.5057 30.2201C46.4976 30.2201 46.4814 30.2121 46.4733 30.2121C41.8154 29.1462 35.9647 28.5692 30.0005 28.5772C24.0362 28.5852 18.1855 29.1783 13.5276 30.2521C13.5195 30.2521 13.5033 30.2602 13.4952 30.2602C12.6512 30.4525 12.6512 31.6305 13.4952 31.8229C13.5033 31.8229 13.5195 31.8309 13.5276 31.8309C18.1855 32.8887 24.0362 33.4737 30.0005 33.4657Z" fill="#F777CE"/>
<path d="M32.5899 22.5352C32.5899 25.8369 32.9063 29.0665 33.4987 32.1679C34.0911 32.1439 34.6753 32.1038 35.2596 32.0718C35.7465 32.0397 36.2334 31.9996 36.7202 31.9596C37.4343 31.8955 38.1484 31.8314 38.8463 31.7512C38.8706 31.7512 38.9031 31.7432 38.9355 31.7432C40.1609 31.607 41.3456 31.4467 42.4898 31.2544C42.9767 28.4334 43.2363 25.5164 43.2363 22.5352C43.2363 14.3209 41.2969 6.61951 37.9212 0C34.5293 6.62753 32.5899 14.3209 32.5899 22.5352Z" fill="#40009B"/>
<path d="M36.7113 31.9595C37.4253 31.8953 38.1394 31.8312 38.8373 31.7511C38.2774 27.7281 37.3036 18.5521 39.097 13.327C39.2836 12.7821 38.9834 12.1971 38.4234 12.0128C37.8635 11.8284 37.263 12.125 37.0764 12.6699C35.137 18.3277 36.127 27.7521 36.7113 31.9595Z" fill="#F777CE"/>
<path d="M16.5709 22.7676C16.5709 25.7488 16.8225 28.6659 17.3094 31.4788C18.4698 31.6711 19.6707 31.8314 20.9123 31.9756C20.9285 31.9756 20.9366 31.9756 20.9529 31.9837C21.6507 32.0638 22.3567 32.1279 23.0789 32.192C23.5739 32.2321 24.077 32.2722 24.5801 32.3042C25.1482 32.3443 25.7162 32.3763 26.2923 32.4004C26.8847 29.299 27.2012 26.0774 27.2012 22.7676C27.2012 14.5533 25.2618 6.85194 21.8861 0.232422C18.5103 6.85194 16.5709 14.5533 16.5709 22.7676Z" fill="#40009B"/>
<path d="M19.9396 13.7039C21.733 18.9289 20.7592 28.1049 20.1993 32.1279C20.8972 32.208 21.6032 32.2722 22.3254 32.3363C22.9096 28.1209 23.8915 18.7046 21.9602 13.0467C21.7736 12.5018 21.1731 12.2133 20.6132 12.3896C20.0533 12.5739 19.753 13.1589 19.9396 13.7039Z" fill="#F777CE"/>
</g>
<defs>
<clipPath id="clip0">
<rect width="60" height="69" transform="matrix(-1 0 0 1 60 0)" fill="white"/>
</clipPath>
</defs>
</svg>
