<svg width="239" height="331" viewBox="0 0 239 331" fill="none" xmlns="http://www.w3.org/2000/svg">
<path d="M191.355 120.899L47.873 120.995L48.1327 66.7421C48.1917 43.4714 48.3067 26.4861 48.3373 23.1122C48.3391 22.5724 48.382 21.3 48.9269 19.798C49.705 17.7184 51.0202 16.4889 52.4707 15.1635C56.2033 11.7249 60.4117 10.1196 62.7668 9.24064C65.8941 8.0558 68.4419 7.21605 70.526 6.68322C73.0156 5.93968 76.4506 4.98724 80.5794 4.11426C88.5092 2.42502 94.5843 1.84777 100.004 1.38401C106.406 0.827148 114.004 0.467113 122.544 0.592245C135.577 0.790328 145.29 2.09548 147.776 2.4316C157.353 3.75558 162.92 5.25886 170.934 7.40661C170.934 7.40661 178.273 9.37857 185.467 14.0685C187.083 15.1151 189.103 16.645 190.579 19.2142C191.192 20.2959 191.536 21.2611 191.746 21.898L191.744 39.6549L191.543 82.1665L191.247 107.094L191.355 120.899Z" fill="#202060"/>
<path d="M191.51 102.949L191.507 103.798L191.448 115.616L191.396 125.506L178.006 122.743L158.022 119.88L135.74 118.147L116.057 117.715L97.2183 118.287L75.1942 120.18L58.8559 122.612L47.8588 124.85L47.9189 112.723L47.975 101.792L49.953 98.3664L55.3282 93.7959L68.1874 88.248L80.9807 85.0712L92.8248 83.2217L109.758 81.6977L128.671 81.7806L146.981 83.5003L163.629 86.5254L175.801 90.2681L183.943 94.2479L186.386 95.9334L188.616 97.9075L190.573 100.613" fill="#F777CE"/>
<path d="M119.315 189.426C184.908 189.73 238.158 173.583 238.252 153.359C238.346 133.136 185.248 116.496 119.654 116.191C54.0608 115.887 0.810699 132.035 0.716924 152.258C0.623149 172.481 53.7212 189.122 119.315 189.426Z" fill="#202060"/>
<path d="M119.539 143.003C143.157 143.102 166.303 145.59 184.74 149.951C184.778 149.951 184.836 149.971 184.874 149.971C188.207 150.772 188.191 155.477 184.834 156.237C184.796 156.236 184.738 156.256 184.699 156.255C166.234 160.454 143.071 162.709 119.454 162.61C95.8361 162.512 72.6892 160.024 54.253 155.662C54.2144 155.662 54.1566 155.643 54.1181 155.643C50.7853 154.841 50.8012 150.137 54.1584 149.377C54.197 149.377 54.2549 149.358 54.2934 149.358C72.7393 145.14 95.9213 142.904 119.539 143.003Z" fill="#FFD740"/>
<path d="M81.9725 206.16L69.8027 213.137C68.9914 213.597 68.4487 214.444 68.3877 215.388L67.2417 229.362C67.0602 231.733 64.2223 232.861 62.4732 231.255L52.0744 221.831C51.3632 221.192 50.4 220.958 49.4932 221.167L35.8321 224.398C33.5167 224.93 31.5773 222.591 32.5486 220.435L38.2792 207.633C38.6677 206.786 38.5939 205.783 38.1147 204.952L30.8094 192.955C29.563 190.926 31.2104 188.368 33.5618 188.607L47.5154 190.119C48.4598 190.219 49.3671 189.855 50.0058 189.144L59.161 178.513C60.7094 176.706 63.6567 177.468 64.1502 179.783L67.0345 193.52C67.2242 194.446 67.8771 195.22 68.7435 195.589L81.7007 201.012C83.8377 201.925 84.0202 204.972 81.9725 206.16Z" fill="#FFD740"/>
<path d="M112.412 252.862L100.242 259.839C99.4305 260.299 98.8878 261.146 98.8268 262.09L97.6808 276.064C97.4993 278.435 94.6613 279.563 92.9123 277.957L82.5135 268.533C81.8023 267.894 80.8391 267.659 79.9322 267.868L66.2325 271.138C63.9171 271.67 61.9777 269.331 62.9489 267.175L68.6796 254.373C69.068 253.526 68.9943 252.523 68.5151 251.693L61.2098 239.695C59.9634 237.667 61.6108 235.108 63.9622 235.347L77.9158 236.859C78.8602 236.959 79.7675 236.596 80.4062 235.885L89.5613 225.253C91.1098 223.446 94.0571 224.208 94.5506 226.523L97.4349 240.261C97.6246 241.187 98.2775 241.96 99.1439 242.329L112.101 247.752C114.296 248.646 114.479 251.693 112.412 252.862Z" fill="#FFD740"/>
<path d="M191.999 242.068L182.896 253.603C182.277 254.389 182.089 255.406 182.4 256.355L186.757 270.4C187.505 272.768 185.193 274.982 182.845 274.107L169.053 269.032C168.134 268.704 167.086 268.807 166.289 269.4L154.285 277.863C152.242 279.291 149.456 277.797 149.566 275.297L150.14 260.624C150.169 259.635 149.715 258.69 148.936 258.111L137.149 249.319C135.162 247.827 135.737 244.713 138.135 244.021L152.267 240.038C153.223 239.766 153.975 239.038 154.304 238.119L159.033 224.224C159.844 221.867 162.989 221.452 164.361 223.525L172.534 235.745C173.07 236.573 174.017 237.06 174.983 237.073L189.673 237.275C192.168 237.242 193.538 240.115 191.999 242.068Z" fill="#FFD740"/>
<path d="M218.808 192.913L210.422 204.163C209.86 204.913 209.703 205.915 210.008 206.803L214.533 220.102C215.296 222.341 213.149 224.513 210.896 223.753L197.588 219.255C196.703 218.943 195.719 219.114 194.965 219.67L183.716 228.077C181.822 229.497 179.108 228.119 179.135 225.748L179.298 211.713C179.32 210.768 178.861 209.88 178.091 209.337L166.628 201.24C164.685 199.864 165.158 196.858 167.416 196.152L180.83 191.975C181.737 191.689 182.433 190.997 182.725 190.092L186.896 176.687C187.598 174.415 190.588 173.943 191.97 175.875L200.087 187.336C200.624 188.109 201.528 188.555 202.473 188.539L216.51 188.355C218.862 188.286 220.241 190.99 218.808 192.913Z" fill="#FFD740"/>
<path d="M151.412 209.053L140.393 217.73C139.658 218.306 139.231 219.23 139.305 220.156L140.203 234.176C140.368 236.548 137.722 238.062 135.76 236.744L124.083 228.935C123.294 228.412 122.311 228.312 121.423 228.656L108.353 233.837C106.152 234.717 103.884 232.665 104.547 230.392L108.372 216.871C108.625 215.966 108.417 214.982 107.821 214.266L98.8541 203.459C97.3371 201.622 98.5804 198.85 100.952 198.761L114.99 198.23C115.915 198.195 116.804 197.696 117.308 196.888L124.809 185.018C126.088 183.017 129.095 183.336 129.916 185.556L134.769 198.721C135.094 199.589 135.844 200.267 136.749 200.52L150.349 203.998C152.66 204.623 153.267 207.594 151.412 209.053Z" fill="#FFD740"/>
<path d="M154.727 285.64L144.321 295.044C143.628 295.669 143.264 296.62 143.401 297.538L145.246 311.465C145.572 313.82 143.035 315.51 140.988 314.328L128.809 307.329C127.986 306.86 126.999 306.827 126.136 307.231L113.486 313.283C111.35 314.31 108.948 312.417 109.455 310.105L112.316 296.357C112.507 295.437 112.232 294.469 111.59 293.796L101.911 283.621C100.273 281.891 101.325 279.041 103.685 278.792L117.655 277.311C118.576 277.213 119.429 276.655 119.877 275.815L126.556 263.463C127.697 261.38 130.718 261.494 131.688 263.654L137.422 276.46C137.805 277.304 138.599 277.929 139.519 278.121L153.324 280.669C155.69 281.115 156.497 284.038 154.727 285.64Z" fill="#FFD740"/>
<path d="M127.296 82.9947L131.067 91.4145C131.307 91.9812 131.831 92.3871 132.437 92.5104L141.506 94.1779C143.041 94.466 143.56 96.3674 142.425 97.4145L135.573 103.616C135.107 104.039 134.903 104.644 134.981 105.251L136.183 114.41C136.38 115.946 134.74 117.052 133.408 116.28L125.401 111.665C124.856 111.361 124.209 111.318 123.643 111.599L115.303 115.572C113.906 116.235 112.334 115.017 112.663 113.482L114.572 104.455C114.696 103.849 114.516 103.222 114.113 102.776L107.75 96.0853C106.682 94.9702 107.356 93.0929 108.912 92.9163L118.091 91.9367C118.717 91.8782 119.244 91.5162 119.549 90.9716L123.941 82.8621C124.674 81.4904 126.654 81.5779 127.296 82.9947Z" fill="#202060"/>
<path d="M126.654 87.4593L129.382 93.5313C129.583 93.9361 129.946 94.2203 130.37 94.3228L136.914 95.5169C138.004 95.7227 138.404 97.0983 137.573 97.8432L132.647 102.293C132.302 102.595 132.159 103.019 132.218 103.484L133.085 110.075C133.223 111.187 132.048 111.991 131.08 111.422L125.332 108.109C124.948 107.885 124.484 107.863 124.079 108.064L118.067 110.934C117.055 111.416 115.926 110.523 116.172 109.432L117.548 102.909C117.631 102.465 117.511 102.02 117.209 101.716L112.617 96.8903C111.852 96.0793 112.342 94.7471 113.454 94.6094L120.085 93.9042C120.529 93.8653 120.914 93.6038 121.118 93.2003L124.29 87.3503C124.758 86.402 126.172 86.4472 126.654 87.4593Z" fill="#FFD740"/>
<path d="M59.7995 189.407L61.7178 197.993C61.8509 198.553 62.2542 199.036 62.7932 199.269L70.9761 202.555C72.3431 203.119 72.491 205.009 71.2161 205.737L63.6433 210.223C63.1409 210.53 62.8114 211.049 62.7709 211.628L62.163 220.417C62.0616 221.901 60.3047 222.609 59.1897 221.641L52.5963 215.816C52.1542 215.409 51.557 215.272 50.9781 215.425L42.4299 217.575C40.9826 217.936 39.7729 216.486 40.3558 215.138L43.8534 207.052C44.0866 206.513 44.0501 205.896 43.7433 205.394L39.0641 197.936C38.2778 196.68 39.2858 195.064 40.7314 195.204L49.501 196.024C50.0985 196.084 50.6584 195.835 51.0262 195.393L56.6787 188.625C57.6465 187.51 59.4766 187.96 59.7995 189.407Z" fill="#202060"/>
<path d="M58.3404 193.471L59.727 199.664C59.8221 200.069 60.11 200.437 60.5144 200.573L66.4061 202.945C67.388 203.353 67.4992 204.703 66.5719 205.24L61.1048 208.48C60.7378 208.691 60.5051 209.075 60.4651 209.499L60.0197 215.822C59.9583 216.882 58.684 217.418 57.896 216.702L53.1479 212.502C52.8212 212.212 52.378 212.114 51.9921 212.228L45.8366 213.769C44.7946 214.035 43.9112 212.991 44.3579 212.01L46.8839 206.195C47.0394 205.81 47.0216 205.367 46.8108 205L43.4356 199.629C42.8795 198.721 43.5775 197.566 44.6375 197.666L50.9593 198.266C51.3834 198.306 51.7888 198.134 52.0791 197.807L56.1636 192.943C56.8026 192.116 58.1126 192.429 58.3404 193.471Z" fill="#202060"/>
<path d="M127.796 196.192L130.718 204.512C130.909 205.052 131.37 205.478 131.929 205.653L140.443 207.957C141.868 208.347 142.248 210.199 141.068 211.102L134.071 216.438C133.607 216.783 133.335 217.361 133.372 217.939L133.805 226.732C133.877 228.198 132.235 229.137 131.004 228.285L123.753 223.267C123.272 222.937 122.655 222.858 122.095 223.068L113.852 226.222C112.462 226.757 111.078 225.441 111.488 224.035L114.023 215.599C114.198 215.041 114.085 214.423 113.701 213.959L108.19 207.096C107.269 205.937 108.065 204.223 109.53 204.19L118.342 203.969C118.94 203.951 119.481 203.645 119.81 203.164L124.636 195.796C125.449 194.565 127.319 194.783 127.796 196.192Z" fill="#202060"/>
<path d="M126.856 200.39L128.957 206.374C129.09 206.779 129.417 207.07 129.841 207.187L135.947 208.846C136.987 209.119 137.253 210.47 136.383 211.103L131.338 214.962C131.009 215.211 130.815 215.635 130.833 216.039L131.139 222.384C131.194 223.444 130.015 224.115 129.111 223.514L123.879 219.911C123.533 219.678 123.09 219.619 122.684 219.752L116.738 222.007C115.735 222.39 114.735 221.461 115.047 220.421L116.861 214.354C116.997 213.949 116.902 213.506 116.614 213.177L112.64 208.247C111.968 207.416 112.55 206.184 113.611 206.168L119.954 206.016C120.378 206.017 120.765 205.787 120.997 205.441L124.485 200.131C125.125 199.227 126.493 199.406 126.856 200.39Z" fill="#202060"/>
<path d="M90.4712 236.306L92.2738 244.93C92.3875 245.509 92.7908 245.992 93.3298 246.225L101.455 249.607C102.822 250.171 102.931 252.061 101.637 252.808L94.0063 257.198C93.4848 257.485 93.1553 258.005 93.0954 258.602L92.3718 267.391C92.2512 268.856 90.4943 269.564 89.3987 268.577L82.8634 262.655C82.4213 262.249 81.8241 262.112 81.2645 262.245L72.6975 264.26C71.2696 264.602 70.0406 263.133 70.6621 261.785L74.2753 253.738C74.5084 253.199 74.472 252.582 74.1652 252.08L69.5825 244.564C68.8156 243.289 69.8235 241.712 71.3076 241.852L80.0575 242.807C80.6549 242.867 81.2341 242.637 81.6019 242.195L87.3505 235.524C88.3184 234.371 90.1677 234.84 90.4712 236.306Z" fill="#202060"/>
<path d="M88.9755 240.329L90.2657 246.542C90.3607 246.947 90.6295 247.295 91.0337 247.47L96.8866 249.919C97.8685 250.327 97.9603 251.696 97.0331 252.233L91.5276 255.396C91.1606 255.606 90.928 255.991 90.888 256.415L90.3654 262.737C90.2655 263.797 89.0105 264.314 88.2224 263.598L83.5325 259.34C83.2057 259.05 82.7819 258.933 82.3767 259.028L76.2023 260.473C75.1796 260.72 74.2962 259.676 74.743 258.694L77.3267 252.899C77.5016 252.495 77.4645 252.071 77.2536 251.704L73.9557 246.294C73.3996 245.386 74.1361 244.232 75.1962 244.332L81.5177 245.009C81.9418 245.049 82.3664 244.896 82.6182 244.569L86.7602 239.763C87.4185 238.955 88.7477 239.288 88.9755 240.329Z" fill="#202060"/>
<path d="M164.412 234.77L169.614 242.373C169.951 242.887 170.539 243.193 171.156 243.207L180.363 243.233C181.922 243.244 182.77 245.02 181.841 246.25L176.211 253.562C175.828 254.06 175.735 254.691 175.92 255.273L178.729 264.06C179.196 265.534 177.78 266.913 176.335 266.39L167.646 263.279C167.057 263.077 166.414 263.15 165.907 263.526L158.442 268.929C157.187 269.828 155.426 268.911 155.476 267.345L155.725 258.119C155.738 257.501 155.45 256.917 154.975 256.551L147.533 251.107C146.286 250.201 146.614 248.237 148.112 247.787L156.956 245.193C157.538 245.008 158.015 244.575 158.218 243.985L161.093 235.236C161.568 233.758 163.53 233.492 164.412 234.77Z" fill="#202060"/>
<path d="M164.572 239.272L168.332 244.754C168.601 245.116 169.008 245.33 169.443 245.356L176.086 245.366C177.194 245.374 177.831 246.655 177.147 247.535L173.097 252.783C172.813 253.141 172.747 253.582 172.888 254.029L174.912 260.351C175.245 261.42 174.233 262.419 173.181 262.032L166.943 259.798C166.527 259.646 166.066 259.707 165.704 259.976L160.307 263.865C159.398 264.518 158.13 263.841 158.178 262.726L158.315 256.102C158.317 255.651 158.12 255.235 157.769 254.99L152.4 251.064C151.504 250.404 151.748 249.008 152.816 248.675L159.206 246.803C159.637 246.686 159.968 246.36 160.096 245.928L162.174 239.616C162.521 238.57 163.919 238.363 164.572 239.272Z" fill="#202060"/>
<path d="M129.967 273.96L133.821 281.883C134.087 282.407 134.594 282.78 135.161 282.879L143.863 284.21C145.327 284.444 145.888 286.243 144.834 287.277L138.486 293.387C138.049 293.801 137.855 294.393 137.97 294.966L139.401 303.664C139.649 305.116 138.097 306.221 136.778 305.533L129.012 301.359C128.492 301.084 127.874 301.085 127.35 301.351L119.516 305.392C118.189 306.077 116.667 304.958 116.94 303.491L118.486 294.833C118.585 294.266 118.391 293.66 117.997 293.241L111.724 287.039C110.672 286.006 111.27 284.209 112.725 283.999L121.438 282.799C122.013 282.723 122.529 282.342 122.787 281.842L126.741 273.956C127.446 272.616 129.321 272.63 129.967 273.96Z" fill="#202060"/>
<path d="M129.49 278.256L132.254 283.951C132.432 284.326 132.799 284.611 133.227 284.661L139.491 285.628C140.545 285.792 140.958 287.099 140.194 287.843L135.609 292.235C135.319 292.525 135.154 292.96 135.238 293.361L136.261 299.631C136.425 300.683 135.318 301.489 134.396 300.969L128.792 297.969C128.413 297.781 127.967 297.752 127.595 297.969L121.948 300.884C121.013 301.369 119.899 300.572 120.102 299.516L121.225 293.28C121.295 292.87 121.171 292.433 120.861 292.125L116.361 287.663C115.598 286.92 116.017 285.618 117.089 285.471L123.37 284.602C123.791 284.536 124.161 284.28 124.349 283.901L127.19 278.231C127.669 277.273 129.023 277.301 129.49 278.256Z" fill="#202060"/>
<path d="M192.417 185.998L197.676 193.072C198.021 193.536 198.599 193.807 199.177 193.771L207.989 193.434C209.474 193.381 210.375 195.062 209.522 196.254L204.447 203.448C204.117 203.929 204.038 204.545 204.229 205.086L207.267 213.367C207.763 214.757 206.467 216.122 205.042 215.693L196.625 213.062C196.067 212.886 195.449 213 195.005 213.365L188.084 218.817C186.924 219.738 185.211 218.903 185.177 217.438L185.072 208.627C185.055 208.029 184.767 207.508 184.267 207.159L176.938 202.256C175.707 201.442 175.945 199.554 177.354 199.077L185.692 196.251C186.233 196.06 186.678 195.618 186.834 195.04L189.253 186.565C189.663 185.159 191.534 184.799 192.417 185.998Z" fill="#202060"/>
<path d="M192.749 190.28L196.53 195.363C196.78 195.692 197.184 195.905 197.608 195.868L203.952 195.639C205.032 195.604 205.683 196.801 205.044 197.667L201.383 202.841C201.15 203.187 201.091 203.63 201.225 204.035L203.402 209.981C203.785 210.985 202.837 211.965 201.797 211.653L195.73 209.762C195.325 209.626 194.882 209.721 194.553 209.971L189.566 213.887C188.715 214.54 187.483 213.957 187.487 212.877L187.412 206.534C187.413 206.11 187.183 205.723 186.837 205.491L181.566 201.964C180.681 201.383 180.859 200.015 181.863 199.671L187.866 197.628C188.271 197.495 188.561 197.168 188.698 196.763L190.434 190.657C190.765 189.675 192.116 189.448 192.749 190.28Z" fill="#202060"/>
</svg>
