<svg width="86" height="53" viewBox="0 0 86 53" fill="none" xmlns="http://www.w3.org/2000/svg">
<path d="M6.768 38.086C6.588 38.086 6.498 38.176 6.498 38.356V39.688C4.176 39.76 2.844 40.03 1.89 40.876C0.954 41.686 0.63 42.928 0.63 45.034C0.63 47.14 0.954 48.382 1.89 49.228C2.844 50.038 4.176 50.326 6.498 50.398V51.712C6.498 51.91 6.588 52 6.768 52H8.478C8.658 52 8.748 51.91 8.748 51.712V50.398C11.034 50.326 12.582 49.93 13.392 49.21C14.202 48.472 14.616 47.086 14.616 45.034C14.616 43 14.202 41.614 13.392 40.894C12.582 40.156 11.034 39.76 8.748 39.688V38.356C8.748 38.176 8.658 38.086 8.478 38.086H6.768ZM6.498 48.346C5.076 48.292 4.14 48.04 3.654 47.59C3.186 47.14 2.952 46.294 2.952 45.034C2.952 43.774 3.186 42.928 3.654 42.478C4.14 42.028 5.076 41.776 6.498 41.722V48.346ZM8.748 41.722C10.17 41.776 11.124 42.028 11.592 42.478C12.06 42.928 12.294 43.774 12.294 45.034C12.294 46.294 12.06 47.14 11.592 47.59C11.124 48.04 10.17 48.292 8.748 48.346V41.722Z" fill="#202060"/>
<path d="M21.588 38.14C19.302 38.14 17.97 38.5 17.088 39.634C16.206 40.732 15.936 42.352 15.936 45.142C15.936 47.896 16.206 49.516 17.088 50.614C17.97 51.712 19.302 52.09 21.588 52.09C23.892 52.09 25.224 51.712 26.088 50.614C26.97 49.516 27.24 47.932 27.24 45.142C27.24 42.352 26.97 40.732 26.088 39.634C25.224 38.5 23.892 38.14 21.588 38.14ZM18.276 45.142C18.276 43.18 18.492 41.848 18.906 41.182C19.32 40.498 20.22 40.156 21.588 40.156C22.956 40.156 23.856 40.498 24.27 41.182C24.702 41.848 24.918 43.18 24.918 45.142C24.918 47.104 24.702 48.418 24.27 49.084C23.856 49.75 22.956 50.074 21.588 50.074C20.22 50.074 19.32 49.75 18.906 49.084C18.492 48.418 18.276 47.104 18.276 45.142Z" fill="#202060"/>
<path d="M36 38.23C35.838 38.23 35.712 38.284 35.622 38.41L30.708 44.188V38.5C30.708 38.32 30.618 38.23 30.438 38.23H28.656C28.476 38.23 28.386 38.32 28.386 38.5V51.73C28.386 51.91 28.476 52 28.656 52H30.438C30.618 52 30.708 51.91 30.708 51.73V45.106L35.928 51.802C36 51.928 36.126 52 36.324 52H38.268C38.718 52 38.772 51.73 38.574 51.514L33.12 44.584L38.142 38.572C38.322 38.338 38.268 38.23 37.98 38.23H36Z" fill="#202060"/>
<path d="M48.784 38.23C48.64 38.23 48.532 38.302 48.46 38.446L45.814 45.538L42.484 38.428C42.43 38.302 42.34 38.23 42.178 38.23H40.216C39.982 38.23 39.928 38.338 40.018 38.554L44.698 48.526C44.176 49.696 43.744 50.074 42.898 50.074H41.818C41.638 50.074 41.548 50.164 41.548 50.344V51.496C41.548 51.712 41.656 51.856 41.872 51.91C42.322 52.036 42.826 52.09 43.366 52.09C44.266 52.09 45.004 51.838 45.562 51.334C46.138 50.83 46.678 49.894 47.182 48.526L50.89 38.536C50.98 38.338 50.908 38.23 50.674 38.23H48.784Z" fill="#202060"/>
<path d="M55.464 38.14C54.042 38.14 52.908 38.212 52.08 38.338C51.846 38.392 51.738 38.5 51.738 38.626V39.958C51.738 40.084 51.828 40.156 52.008 40.156H55.284C56.67 40.156 57.588 40.264 58.02 40.48C58.47 40.696 58.686 41.182 58.686 41.938V42.154C58.686 42.928 58.542 43.45 58.236 43.738C57.948 44.026 57.336 44.17 56.418 44.17H52.764C52.602 44.17 52.53 44.242 52.53 44.404V45.826C52.53 45.97 52.602 46.042 52.764 46.042H56.436C57.354 46.042 57.948 46.186 58.236 46.474C58.542 46.762 58.686 47.284 58.686 48.04V48.148C58.686 48.922 58.47 49.444 58.056 49.696C57.642 49.948 56.742 50.074 55.392 50.074H52.008C51.828 50.074 51.738 50.128 51.738 50.254V51.622C51.738 51.748 51.846 51.838 52.08 51.892C53.034 52.018 54.15 52.09 55.464 52.09C57.552 52.09 58.992 51.856 59.802 51.37C60.612 50.884 61.008 49.912 61.008 48.472V47.932C61.008 46.366 60.45 45.412 59.352 45.106C60.45 44.818 61.008 43.864 61.008 42.262V41.668C61.008 40.246 60.594 39.31 59.784 38.842C58.974 38.374 57.534 38.14 55.464 38.14Z" fill="#202060"/>
<path d="M62.656 38.23C62.476 38.23 62.386 38.32 62.386 38.5V51.73C62.386 51.91 62.476 52 62.656 52H71.368C71.566 52 71.656 51.91 71.656 51.73V50.254C71.656 50.074 71.566 49.984 71.368 49.984H64.708V46.24H70.792C70.972 46.24 71.062 46.15 71.062 45.97V44.548C71.062 44.368 70.972 44.278 70.792 44.278H64.708V40.246H71.368C71.566 40.246 71.656 40.156 71.656 39.976V38.5C71.656 38.32 71.566 38.23 71.368 38.23H62.656Z" fill="#202060"/>
<path d="M80.784 34.63C80.64 34.63 80.532 34.702 80.478 34.846C80.172 35.584 79.794 35.818 78.93 35.818C78.066 35.818 77.688 35.584 77.382 34.846C77.328 34.702 77.22 34.63 77.076 34.63H76.266C76.068 34.63 75.978 34.72 76.014 34.918C76.14 35.8 76.428 36.394 76.842 36.736C77.256 37.06 77.958 37.222 78.93 37.222C79.902 37.222 80.604 37.06 81.018 36.736C81.432 36.394 81.72 35.8 81.846 34.918C81.882 34.72 81.792 34.63 81.594 34.63H80.784ZM73.656 38.23C73.476 38.23 73.386 38.32 73.386 38.5V51.712C73.386 51.91 73.476 52 73.656 52H75.042C75.366 52 75.618 51.874 75.798 51.604L82.332 41.902V51.712C82.332 51.91 82.422 52 82.602 52H84.366C84.546 52 84.636 51.91 84.636 51.712V38.5C84.636 38.32 84.546 38.23 84.366 38.23H82.872C82.224 38.248 82.098 38.338 81.81 38.788L75.708 47.842V38.5C75.708 38.32 75.618 38.23 75.438 38.23H73.656Z" fill="#202060"/>
<path d="M34.0029 20.1416L43.1435 20.1123L52.2841 20.083L52.2695 27.0852C52.2695 30.0883 52.2548 32.2856 52.2548 32.7251C52.2548 32.7983 52.2548 32.9595 52.1816 33.1499C52.0791 33.4136 51.9179 33.5747 51.7275 33.7505C51.2587 34.19 50.7168 34.3951 50.4091 34.5123C50.0136 34.6734 49.6914 34.7759 49.4277 34.8492C49.1054 34.9517 48.666 35.0689 48.1533 35.1861C47.1425 35.4058 46.3662 35.4791 45.6777 35.5377C44.8574 35.6109 43.8906 35.6549 42.8066 35.6402C41.1513 35.6109 39.9062 35.4498 39.584 35.4058C38.3682 35.2447 37.6504 35.0396 36.625 34.7759C36.625 34.7759 35.6875 34.5269 34.7646 33.9263C34.5596 33.7945 34.2959 33.5894 34.1055 33.2671C34.0322 33.1352 33.9883 33.0034 33.959 32.9155V30.6303L33.9736 25.1369L34.0029 21.9141V20.1416Z" fill="#202060"/>
<path d="M33.9863 22.4571V22.3399V20.8165V19.542L35.7002 19.8936L38.249 20.2598L41.0908 20.4795L43.5957 20.5235L45.9834 20.4502L48.7959 20.2012L50.8759 19.8789L52.2822 19.5859V21.1534L52.2675 22.5743L52.0185 23.0138L51.33 23.5998L49.7041 24.3176L48.0634 24.7277L46.5547 24.9768L44.4013 25.1819L41.9844 25.1672L39.6553 24.9475L37.5312 24.5666L35.9785 24.0832L34.9385 23.5705L34.6309 23.3654L34.3525 23.1017L34.1035 22.7501" fill="#40009B"/>
<path d="M58.2766 16.0427C58.2837 13.4295 51.5148 11.2925 43.1577 11.2696C34.8007 11.2467 28.0201 13.3466 28.013 15.9598C28.0058 18.573 34.7747 20.71 43.1318 20.7328C51.4889 20.7557 58.2694 18.6559 58.2766 16.0427Z" fill="#202060"/>
<path d="M43.1428 17.2711C40.1399 17.2565 37.1809 16.9488 34.8372 16.3922H34.8225C34.3977 16.2896 34.3977 15.689 34.8225 15.5865H34.8372C37.1955 15.0445 40.1399 14.7368 43.1574 14.7515C46.1604 14.7661 49.1193 15.0738 51.4631 15.6304H51.4777C51.9025 15.733 51.9025 16.3336 51.4777 16.4361H51.4631C49.1047 16.9781 46.1457 17.2711 43.1428 17.2711Z" fill="#FFD740"/>
<path d="M41.5449 11.6606C41.5449 13.3745 41.3838 15.0445 41.0762 16.6412C40.7832 16.6266 40.4756 16.6119 40.1826 16.5826C39.9336 16.568 39.6846 16.5533 39.4502 16.524C39.084 16.4948 38.7324 16.4508 38.3809 16.4215C38.3662 16.4215 38.3516 16.4215 38.3369 16.4215C37.7217 16.3483 37.1211 16.2604 36.5498 16.1725C36.3008 14.7076 36.1836 13.1987 36.1836 11.6606C36.1836 7.41238 37.165 3.42786 38.8789 0C40.5781 3.41321 41.5596 7.39773 41.5449 11.6606Z" fill="#40009B"/>
<path d="M39.4649 16.5239C39.0987 16.4946 38.7471 16.4506 38.3956 16.4213C38.6739 14.3412 39.1719 9.58025 38.2637 6.88484C38.1758 6.60651 38.3223 6.29888 38.6006 6.21099C38.879 6.12309 39.1866 6.26958 39.2745 6.54791C40.2559 9.47771 39.7579 14.3412 39.4649 16.5239Z" fill="#FFD740"/>
<path d="M49.9824 11.7631C49.9824 13.3013 49.8506 14.8101 49.6016 16.275C49.0156 16.3776 48.415 16.4508 47.7852 16.524H47.7705C47.4189 16.568 47.0674 16.5973 46.7012 16.6266C46.4521 16.6412 46.2031 16.6705 45.9395 16.6852C45.6465 16.6998 45.3682 16.7145 45.0752 16.7291C44.7822 15.1177 44.6211 13.4624 44.6211 11.7485C44.6211 7.50028 45.6172 3.51575 47.3164 0.0878906C49.0156 3.5304 49.9824 7.51493 49.9824 11.7631Z" fill="#40009B"/>
<path d="M48.2978 7.07505C47.3896 9.78512 47.873 14.5314 48.1513 16.6115C47.7998 16.6555 47.4482 16.6848 47.082 16.7141C46.789 14.5314 46.3056 9.65327 47.2871 6.73813C47.375 6.4598 47.6826 6.29866 47.9609 6.4012C48.2392 6.48909 48.3857 6.79672 48.2978 7.07505Z" fill="#FFD740"/>
<path d="M42.016 21.632C41.856 21.632 41.776 21.712 41.776 21.872V23.056C39.712 23.12 38.528 23.36 37.68 24.112C36.848 24.832 36.56 25.936 36.56 27.808C36.56 29.68 36.848 30.784 37.68 31.536C38.528 32.256 39.712 32.512 41.776 32.576V33.744C41.776 33.92 41.856 34 42.016 34H43.536C43.696 34 43.776 33.92 43.776 33.744V32.576C45.808 32.512 47.184 32.16 47.904 31.52C48.624 30.864 48.992 29.632 48.992 27.808C48.992 26 48.624 24.768 47.904 24.128C47.184 23.472 45.808 23.12 43.776 23.056V21.872C43.776 21.712 43.696 21.632 43.536 21.632H42.016ZM41.776 30.752C40.512 30.704 39.68 30.48 39.248 30.08C38.832 29.68 38.624 28.928 38.624 27.808C38.624 26.688 38.832 25.936 39.248 25.536C39.68 25.136 40.512 24.912 41.776 24.864V30.752ZM43.776 24.864C45.04 24.912 45.888 25.136 46.304 25.536C46.72 25.936 46.928 26.688 46.928 27.808C46.928 28.928 46.72 29.68 46.304 30.08C45.888 30.48 45.04 30.704 43.776 30.752V24.864Z" fill="#FFD740"/>
</svg>
