<svg width="79" height="14" viewBox="0 0 79 14" fill="none" xmlns="http://www.w3.org/2000/svg">
<path d="M64.5581 2.22518L69.2972 2.28796L74.7024 2.26452L77.4776 2.2872L77.9903 3.19086L78.2711 3.82201L78.4792 4.42389L78.6713 5.23166L78.8155 6.20488L78.8477 6.74887L78.8044 7.60279L78.6428 8.69562L78.5098 9.20204L78.3073 9.82301L78.1611 10.1961L77.8756 10.7777L77.5983 11.2667L77.4991 11.4333L77.0161 11.4334L75.8754 11.4373L74.9605 11.4261L74.2723 11.4408L72.7511 11.4323L71.7543 11.4332L70.5618 11.4176L69.1335 11.4277L67.7461 11.4267L66.3792 11.4251L64.9505 11.4147L63.5014 11.4149L64.0101 10.6949L64.5443 9.72768L64.8777 8.98059L65.2132 7.8532L65.4231 6.61546L65.4353 5.26891L65.3145 4.42879L65.166 3.73313L64.9241 2.99838L64.59 2.27588L64.5581 2.22518Z" fill="#F777CE"/>
<path d="M0.945456 10.917L0.926724 6.21056L0.888054 2.49111L0.880702 1.66911L1.53835 1.66528L3.01843 1.67464L4.6736 1.7008L6.53398 1.71228L7.33565 1.71564L8.84678 1.73462L9.72037 1.73643L11.7042 1.75554L12.6703 1.75538L14.1711 1.77457L16.2885 1.79081L17.8508 1.79841L19.6496 1.81122L21.7053 1.82878L23.9976 1.85155L26.0534 1.86912L26.5567 1.85833L28.9314 1.88961L29.8255 1.89098L31.3264 1.91018L32.6008 1.91367L34.0911 1.92281L35.6536 1.94068L37.0105 1.95269L38.6241 1.95919L40.0425 1.96987L41.6461 1.98686L42.9824 1.9993L44.5241 2.00734L46.0864 2.01494L48.0086 2.03537L49.0468 2.04394L50.7325 2.05916L52.5313 2.07197L53.6824 2.07811L55.985 2.10066L58.0611 2.10751L59.4384 2.11908L60.7542 2.13196L63.6628 2.14152L65.4722 2.17464L65.688 2.65303L65.917 3.26474L66.1508 4.10244L66.291 4.89076L66.3476 6.09196L66.2376 7.19396L66.1073 7.82365L65.8202 8.8164L65.2716 10.0717L64.676 11.0505L64.3664 11.4682L63.7289 11.4511L60.7486 11.4533L58.1376 11.4271L54.5502 11.391L50.3873 11.357L45.0527 11.3172L39.9235 11.2731L33.0061 11.2262L28.4222 11.2115L22.5735 11.1622L15.4402 11.1097L9.51915 11.0414L5.21264 11.0208L4.96588 11.0158L4.56483 11.0038L4.29752 10.9993L3.87614 10.998L3.53694 10.995L2.85852 10.989L2.52981 10.9961L1.6971 10.9831L1.53275 10.9866L1.35789 10.9801L1.08032 10.9758L0.946778 10.9787L0.945456 10.917Z" fill="#40009B"/>
</svg>
