<svg width="63" height="94" viewBox="0 0 63 94" fill="none" xmlns="http://www.w3.org/2000/svg">
<path d="M55.5567 85.1497C56.9328 84.3936 57.4261 82.6471 56.6601 81.2493L31.0926 34.74L26.1017 37.4787L51.6691 83.9879C52.4351 85.3858 54.1806 85.9058 55.5567 85.1497Z" fill="#202060"/>
<path d="M28.8748 35.9565L54.4423 82.4658C54.9829 83.4541 54.8964 84.6222 54.2966 85.4983C54.7249 85.4876 55.1463 85.375 55.545 85.1546C56.9211 84.3985 57.4143 82.652 56.6484 81.2541L31.0809 34.7448L26.09 37.4835L28.8748 35.9565Z" fill="#202060"/>
<path d="M24.4678 4.27905C24.4514 5.71714 24.716 6.79138 24.9362 7.62327C25.3421 9.21089 25.9094 10.3446 26.3828 11.2715C26.6615 11.8275 27.122 12.6684 28.0542 14.0564C28.5405 14.7806 29.4133 16.0381 31.6119 18.7411C32.8546 20.2638 34.0309 21.8428 35.3013 23.3398C35.6908 23.7929 36.4184 24.6438 36.9421 25.9417C37.4519 27.1802 37.4713 28.0901 37.4792 28.3097C37.4859 28.8448 37.4223 29.5431 37.0579 30.5616C36.8846 31.0472 36.2569 32.671 34.1611 34.9351C33.1133 36.0672 32.0377 37.2249 30.2174 38.2746C28.1725 39.4656 26.3891 39.816 24.8965 40.1131C23.0537 40.4773 21.6471 40.7616 19.8383 40.3623C19.0372 40.1879 17.6694 39.8639 16.4375 38.7695C15.4646 37.8987 15.0348 36.952 14.3273 35.1338C13.1575 32.095 12.473 29.807 12.1045 28.6486C11.2906 26.1044 10.6761 24.3753 9.54146 22.2523C8.52251 20.3262 7.57667 18.59 5.71294 16.9424C3.97873 15.4067 2.2116 14.6078 1.0239 14.189L0.869613 14.1671L0.96955 14.0693L1.9519 13.5445L3.81374 12.5285L4.77532 11.9868L6.66593 13.2022L9.31385 15.1893L11.5918 17.3444L12.4321 18.3279L13.3741 19.7377L12.7141 18.0817C12.7141 18.0817 11.8041 15.8173 11.7991 15.8065C11.7942 15.7956 10.6984 13.0643 10.6984 13.0643L9.86745 10.9741L9.28053 9.50807L10.0175 9.10779L11.2136 8.44659L12.191 7.91091L12.5897 7.69051L13.8522 9.1123L16.208 11.757L17.2243 12.8968L17.9579 13.7319L18.3128 14.1089L18.0414 12.644L17.5845 10.1345L17.1937 8.00194L16.9272 6.54791L16.7229 5.43314L17.3198 6.77654L18.1489 8.63137L19.0866 10.7256L19.7873 12.2975L20.2566 13.3313L19.922 11.6982L19.5193 9.74165L19.0444 7.42408L18.6368 5.45666L18.4373 4.49719L19.3821 3.97632L21.3152 2.91485L23.4886 1.71796L24.9192 0.937169L24.4678 4.27905Z" fill="#202060"/>
<path d="M25.0767 39.8738L33.6558 35.1515C34.1475 34.8757 34.7715 35.0649 35.0473 35.5566L37.1851 39.4554C37.4608 39.947 37.2716 40.5711 36.78 40.8468L28.2009 45.5691C27.7092 45.8449 27.0852 45.6557 26.8094 45.164L24.6716 41.2653C24.4068 40.7686 24.5851 40.1496 25.0767 39.8738Z" fill="#F777CE"/>
<path d="M33.5013 35.1575L29.7209 38.134L27.2409 39.0895L24.9401 39.6879L22.7397 38.8888L20.7295 37.4391L19.9643 36.5921L19.1874 35.488L18.8612 34.9142L18.7526 34.5304L18.7844 34.1091L18.9467 33.7728L19.2574 33.4743L19.6808 33.3083L20.1823 33.3431L20.6065 33.5836L20.9169 34.0071L21.5337 34.9608L22.2207 35.7513L22.9929 36.4113L23.8404 36.9191L24.763 37.2745L26.0912 37.5114L26.9893 37.5237L28.0477 37.3975L27.5367 36.4745L26.8854 35.3002C26.8854 35.3002 26.3843 34.399 26.3695 34.3663C26.3546 34.3337 26.1521 33.8875 26.1521 33.8875L26.1493 33.39L26.2681 33.0736L26.6055 32.6316L27.2465 32.5112L27.8775 32.6578L28.1434 32.9833L28.5595 33.7263L29.1051 34.7255L29.5053 35.4625L29.8809 36.1451L30.0015 36.3528L30.3369 35.9643L31.0327 34.9527L31.6187 33.5841L31.8667 31.9621L31.8146 31.067L31.4759 29.6851L31.048 28.685L30.7457 28.0479L30.7745 27.5623L31.0636 26.9848L31.5592 26.7467L32.207 26.7281L32.7014 27.0943L33.2717 28.1479L33.8279 29.7197L34.0982 31.3557L34.0938 32.4734L33.9718 33.4476L33.8192 34.0943L33.5013 35.1575Z" fill="#F777CE"/>
<path d="M54.8033 77.708L49.7164 80.5822L50.0771 81.2321L55.1937 78.4233L54.8033 77.708Z" fill="#F777CE"/>
<path d="M37.358 45.9648L32.2711 48.839L32.6318 49.489L37.7484 46.6801L37.358 45.9648Z" fill="#F777CE"/>
</svg>
