<svg width="28" height="41" viewBox="0 0 28 41" fill="none" xmlns="http://www.w3.org/2000/svg">
<path d="M10.414 11.4421C10.296 11.7689 9.91153 11.8467 9.56306 11.8458L9.16761 13.1246L16.5649 39.4911L18.8654 38.831L11.4299 12.4787L10.4118 11.3776C10.4381 11.3896 10.426 11.4158 10.414 11.4421Z" fill="#FFD740"/>
<path d="M9.20385 11.8713L9.15687 13.1511L16.5662 39.4913L17.7296 39.1673L10.294 12.815L9.73146 11.8274C9.55232 11.8722 9.37098 11.8527 9.20385 11.8713Z" fill="#FFD740"/>
<path d="M7.9936 1.70089L10.3291 4.35752C10.5027 4.53229 10.7125 4.62835 10.9441 4.60748L14.4659 4.18938C15.0699 4.11696 15.4665 4.77465 15.1737 5.27531L13.3669 8.31975C13.2446 8.51761 13.2271 8.76351 13.3385 9.00497L14.8153 12.2205C15.0666 12.7799 14.5827 13.3517 13.9982 13.2427L10.5518 12.4575C10.3181 12.4139 10.0745 12.461 9.89969 12.6349L7.28345 15.0229C6.84541 15.4253 6.11353 15.1535 6.06765 14.5612L5.75417 11.0217C5.73342 10.79 5.60998 10.5748 5.38605 10.4405L2.30777 8.71312C1.78126 8.40848 1.83369 7.67079 2.39299 7.41916L5.66245 6.02857C5.89185 5.94321 6.05243 5.73112 6.09613 5.49724L6.80401 2.01293C6.8488 1.43042 7.60363 1.23662 7.9936 1.70089Z" fill="#40009B"/>
</svg>
