<svg width="30" height="41" viewBox="0 0 30 41" fill="none" xmlns="http://www.w3.org/2000/svg">
<path d="M20.3293 12.1288C20.0439 12.3269 19.6854 12.1676 19.4018 11.965L18.3388 12.7785L9.09933 38.5573L11.3571 39.3515L20.5572 13.5622L20.3649 12.075C20.3793 12.0999 20.3543 12.1144 20.3293 12.1288Z" fill="#FFD740"/>
<path d="M19.0917 11.7772L18.3123 12.7933L9.09777 38.5576L10.2339 38.9672L19.4339 13.1779L19.5473 12.0469C19.3753 11.9798 19.2388 11.8588 19.0917 11.7772Z" fill="#FFD740"/>
<path d="M23.9957 2.78551L24.3611 6.30383C24.4015 6.5469 24.5168 6.74668 24.7177 6.86378L27.8309 8.56256C28.3653 8.85336 28.3077 9.61918 27.779 9.85778L24.5429 11.2933C24.3286 11.3837 24.1719 11.5741 24.1229 11.8354L23.4647 15.3121C23.3455 15.9137 22.6198 16.0995 22.2065 15.6722L19.8517 13.0362C19.6863 12.8653 19.4605 12.7626 19.2173 12.8031L15.7014 13.2347C15.1113 13.309 14.672 12.6636 14.9777 12.1542L16.772 9.08713C16.8893 8.88625 16.9133 8.6393 16.8085 8.40012L15.2994 5.20917C15.0466 4.65589 15.5166 4.08487 16.1183 4.20365L19.589 4.96349C19.8254 5.02676 20.0792 4.94686 20.2502 4.78149L22.8452 2.35095C23.2191 1.90202 23.9467 2.18118 23.9957 2.78551Z" fill="#40009B"/>
</svg>
