<svg width="61" height="81" viewBox="0 0 61 81" fill="none" xmlns="http://www.w3.org/2000/svg">
<path d="M41.4944 24.561C40.9169 24.9518 40.2012 24.6237 39.6369 24.2106L37.4846 25.8182L18.3374 77.3343L22.8496 78.9811L41.918 27.4429L41.567 24.4538C41.5954 24.5042 41.5449 24.5326 41.4944 24.561Z" fill="#F777CE"/>
<path d="M39.0215 23.8251L37.4334 25.8459L18.3367 77.3336L20.607 78.1822L39.6754 26.644L39.9294 24.3771C39.5857 24.2383 39.3147 23.9923 39.0215 23.8251Z" fill="#F777CE"/>
<path d="M49.0752 5.89653L49.7258 12.9657C49.8011 13.4544 50.0279 13.8581 50.4283 14.0978L56.636 17.58C57.7016 18.1762 57.568 19.7116 56.5015 20.1781L49.9735 22.9829C49.5413 23.1593 49.2224 23.5376 49.118 24.061L47.7153 31.0226C47.4621 32.2269 46.0015 32.5829 45.1821 31.7157L40.5181 26.3704C40.1904 26.0235 39.7395 25.8121 39.2506 25.8877L32.1848 26.6713C30.9988 26.8066 30.1324 25.5011 30.7577 24.486L34.4306 18.373C34.6706 17.9727 34.7246 17.4777 34.52 16.9952L31.5664 10.5561C31.0721 9.43987 32.0287 8.30499 33.2333 8.55749L40.1806 10.1638C40.6536 10.2964 41.1646 10.142 41.5118 9.81412L46.7766 4.99744C47.5374 4.1053 48.991 4.6826 49.0752 5.89653Z" fill="#40009B"/>
</svg>
