<svg width="27" height="31" viewBox="0 0 27 31" fill="none" xmlns="http://www.w3.org/2000/svg">
<g clip-path="url(#clip0)">
<path d="M3.89084 19.4707H11.0321H17.4738H23.2451L23.8864 23.0855C23.8864 23.0855 24.7025 26.6182 24.7025 27.7958C24.7025 29.0007 23.1868 29.4389 23.1868 29.4389L22.05 29.9044L20.476 30.3426L19.5433 30.5617L18.2899 30.7534L16.6577 30.8903L14.7339 31.0272H13.2473H12.1397L10.7989 30.9451L9.45811 30.7808L8.02986 30.5891L6.74735 30.3974L5.75631 30.0961L4.5904 29.7128L3.59936 29.2472L2.81237 28.6721L2.4043 27.9875L3.89084 19.4707Z" fill="#202060"/>
<path d="M13.598 24.0442C20.7455 24.0442 26.5397 18.6617 26.5397 12.0221C26.5397 5.38247 20.7455 0 13.598 0C6.45045 0 0.65625 5.38247 0.65625 12.0221C0.65625 18.6617 6.45045 24.0442 13.598 24.0442Z" fill="#FFD740"/>
<path d="M11.8789 11.8301C11.8789 15.9653 17.3879 19.7992 20.7982 21.99C24.4708 19.9361 26.6569 16.2118 26.6569 12.0492C26.6569 7.88667 24.5874 3.97059 20.9439 2.1084C17.5336 4.29921 11.8789 7.69497 11.8789 11.8301Z" fill="#202060"/>
<path d="M14.6769 2.13597L13.9191 3.69693C13.8608 3.80647 13.8608 3.91601 13.9482 4.02555L14.9101 5.50435C15.085 5.75081 14.8518 6.07944 14.5312 6.02467L12.6949 5.83297C12.5783 5.83297 12.4617 5.86036 12.3742 5.94251L11.15 7.257C10.946 7.47608 10.5671 7.39392 10.4796 7.09269L10.1007 5.39481C10.0716 5.28527 9.98411 5.17573 9.86752 5.14834L8.14779 4.46371C7.85631 4.35417 7.82716 3.97078 8.11864 3.83385L9.75093 2.98491C9.86752 2.93014 9.92582 2.8206 9.95497 2.71106L10.1299 0.985797C10.159 0.68456 10.5379 0.547634 10.7711 0.766716L12.1411 1.94428C12.2285 2.02643 12.3742 2.05382 12.4908 2.02643L14.298 1.64304C14.5603 1.58827 14.8227 1.88951 14.6769 2.13597Z" fill="#40009B"/>
<path d="M9.75101 9.94066L8.99316 11.5016C8.93487 11.6112 8.93487 11.7207 9.02231 11.8302L9.9842 13.309C10.1591 13.5555 9.9259 13.8841 9.60527 13.8294L7.76895 13.6377C7.65236 13.6377 7.53576 13.665 7.44832 13.7472L6.19496 15.0617C5.99092 15.2808 5.612 15.1986 5.52455 14.8974L5.14563 13.1995C5.11648 13.09 5.02904 12.9804 4.91245 12.953L3.19271 12.2684C2.90123 12.1589 2.87209 11.7755 3.16357 11.6385L4.79585 10.7896C4.91245 10.7348 4.97074 10.6253 4.99989 10.5158L5.17478 8.79048C5.20393 8.48925 5.58285 8.35232 5.81603 8.5714L7.18599 9.74897C7.27343 9.83112 7.41917 9.85851 7.53576 9.83112L9.34294 9.44773C9.63442 9.39296 9.89675 9.66681 9.75101 9.94066Z" fill="#40009B"/>
<path d="M13.6848 17.7453L12.9269 19.3063C12.8686 19.4158 12.8686 19.5253 12.9561 19.6349L13.9179 21.1137C14.0928 21.3601 13.8596 21.6888 13.539 21.634L11.7027 21.4423C11.5861 21.4423 11.4695 21.4697 11.3821 21.5518L10.1578 22.8663C9.95381 23.0854 9.57489 23.0032 9.48744 22.702L9.10852 21.0315C9.07937 20.922 8.99193 20.8124 8.87534 20.7851L7.1556 20.1004C6.86412 19.9909 6.83498 19.6075 7.12646 19.4706L8.75874 18.6216C8.87534 18.5669 8.93363 18.4573 8.96278 18.3478L9.13767 16.6225C9.16682 16.3213 9.54574 16.1844 9.77892 16.4034L11.1489 17.581C11.2363 17.6631 11.3821 17.6905 11.4987 17.6631L13.3058 17.2798C13.5682 17.1976 13.8305 17.4715 13.6848 17.7453Z" fill="#40009B"/>
</g>
<defs>
<clipPath id="clip0">
<rect x="0.65625" width="26" height="31" fill="white"/>
</clipPath>
</defs>
</svg>
