<svg width="45" height="85" viewBox="0 0 45 85" fill="none" xmlns="http://www.w3.org/2000/svg">
<path d="M27.7855 0.283865C27.4019 0.539344 26.9048 1.91609 27.0894 1.49029C27.0894 1.49029 26.2087 3.53412 26.0524 3.90314C25.257 5.77665 24.3194 7.28114 22.8705 9.59464C21.2085 12.263 20.9812 12.3339 19.8448 14.3352C19.0919 15.6835 18.5095 16.8616 18.126 17.699C17.5009 19.0473 16.9895 20.2964 16.5776 21.4034C16.4213 22.1273 16.1656 23.1492 15.7111 24.3272C15.3844 25.1788 14.8161 26.4988 13.0405 29.2381C11.9893 30.8561 10.725 32.7722 8.72212 35.0999C6.60555 37.5695 6.02313 37.5128 4.14805 39.7553C3.36676 40.6921 2.99743 41.2456 2.11671 41.7707C1.10814 42.3811 -0.0140717 42.6365 0.00013348 43.1617C0.00013348 43.2752 0.0995698 43.403 0.284237 43.6584C0.724598 44.2546 1.13655 44.6378 1.17916 44.6662C1.78999 45.2197 2.00307 45.8016 2.34399 46.4119C3.29574 48.0867 4.48897 48.5125 6.26462 50.7835C6.87544 51.5641 7.40104 52.4441 8.46642 54.2324C9.44658 55.8788 10.0716 57.0853 10.5404 58.0078C11.8757 60.6052 12.0745 61.3858 12.174 61.8116C12.3018 62.3935 12.3444 62.7484 12.5575 63.4864C12.9411 64.7638 13.424 65.6438 13.6371 66.027C15.1429 68.7805 15.1429 69.5895 17.3447 73.521C18.5379 75.65 19.5607 77.1261 21.6204 80.0641C21.9898 80.6035 22.771 81.7106 24.0779 82.6899C24.8592 83.286 25.5411 83.6124 26.2371 83.9389C26.3934 84.0099 26.8479 84.237 27.4872 84.3647C28.0412 84.4924 28.3111 84.4499 28.4531 84.4357C28.7514 84.3789 28.9787 84.2653 29.1918 84.1518C29.5611 83.9531 29.8026 83.7544 29.9163 83.6692C30.6833 83.0447 31.0669 82.7325 31.5499 82.2215C31.9618 81.7957 32.6437 81.0861 33.3397 80.0074C33.6238 79.5674 33.8227 79.1983 33.9931 78.8861C34.6324 77.6655 34.5756 77.481 35.0869 76.672C35.3284 76.3029 35.4989 76.0758 35.7262 75.6075C35.8398 75.3662 35.8824 75.2242 36.0387 74.9404C36.195 74.6707 36.337 74.472 36.4933 74.2449C36.7632 73.8759 36.7774 73.9185 37.0046 73.5778C37.2603 73.223 37.2888 73.1378 37.5018 72.854C37.6723 72.6553 37.8143 72.4991 37.9138 72.3998C38.5956 71.463 39.178 70.654 39.6468 69.9869C40.4707 68.8231 40.627 68.6244 41.252 67.7444C42.3032 66.2825 42.843 65.5586 42.9992 65.3741C43.2691 65.0761 43.4822 64.7354 43.7237 64.4232C44.0362 64.0258 44.2351 63.7845 44.2351 63.4296C44.2351 63.2167 44.1641 63.0748 44.093 62.9187C43.88 62.4503 43.7663 61.9394 43.5674 61.4568C43.2123 60.6052 42.9566 59.7962 42.7577 59.1575C42.6299 58.7459 42.6441 58.7175 42.1327 56.5743C41.7918 55.1408 41.6213 54.4169 41.5077 54.0337C41.252 53.1537 41.1384 52.9124 40.9253 52.0183C40.8543 51.7202 40.6838 51.0815 40.5702 50.3719C40.3571 49.1512 40.3287 48.2287 40.3145 47.7319C40.3003 47.15 40.1724 45.5745 39.9309 42.452C39.7605 40.2379 39.59 38.5489 39.519 37.8676C39.2633 35.4406 39.1354 34.2341 38.9792 33.4393C38.8087 32.5451 38.624 31.8071 38.5388 30.6007C38.482 29.7774 38.5388 29.5078 38.5104 28.5142C38.5104 28.3723 38.482 26.8394 38.2689 25.2498C38.1269 24.1569 37.8428 23.0215 37.2745 20.8073C36.7347 18.6783 36.7063 18.7919 36.408 17.5287C35.8256 15.0874 35.9677 14.9029 35.5415 13.1713C35.3568 12.4049 34.8313 10.4746 33.7943 8.21789C33.155 6.82695 32.6152 5.96117 31.8055 4.18701C31.2515 2.96639 30.9816 2.35608 30.939 2.24253C30.7828 1.80254 30.6975 1.49029 30.4276 1.07869C30.2004 0.723856 29.8594 0.227092 29.2628 0.056773C28.9361 -0.0283865 28.6378 0 28.4815 0.0283865C28.2685 0.0993528 28.0128 0.127739 27.7855 0.283865Z" fill="#FFD740"/>
<path d="M25.7682 11.4399C29.4332 17.4436 29.6747 24.6538 30.2287 31.4665C30.8111 38.5632 32.2032 45.4895 34.8027 52.1319C36.2801 55.9073 38.0841 59.5266 40.2149 62.9756C40.357 63.2027 40.7263 62.9898 40.5842 62.7627C36.763 56.546 33.9646 49.7475 32.3168 42.6508C31.4929 39.1309 31.0099 35.5542 30.7116 31.9491C30.4275 28.5853 30.2429 25.2073 29.7315 21.8719C29.1633 18.1391 28.1263 14.4772 26.1518 11.227C25.9955 10.9999 25.6262 11.2128 25.7682 11.4399Z" fill="#40009B"/>
<path d="M22.2588 16.3509C27.2732 20.3392 26.1226 28.0035 26.4777 33.6382C26.9181 40.82 28.4806 47.9167 31.0944 54.6159C32.5575 58.3629 34.3474 61.9822 36.4355 65.4169C36.5776 65.644 36.9469 65.4311 36.8049 65.204C32.9553 58.8738 30.1426 51.9333 28.4948 44.709C27.6567 41.0755 27.1311 37.3569 26.9038 33.6382C26.7192 30.4873 26.8612 27.3223 26.4635 24.1855C26.0657 21.1056 25.0856 18.0399 22.5713 16.0528C22.3582 15.8825 22.0457 16.1805 22.2588 16.3509Z" fill="#40009B"/>
<path d="M17.8703 22.937C20.7682 24.3138 22.2313 27.3511 22.8422 30.3459C23.4956 33.5962 23.4672 36.96 23.9644 40.2386C24.9161 46.5404 26.8338 52.7003 29.6322 58.4343C31.2374 61.7272 33.1409 64.8781 35.2859 67.8587C35.4422 68.0716 35.8115 67.8729 35.6552 67.6458C31.7346 62.2523 28.6805 56.2486 26.6491 49.89C25.6548 46.7817 24.9019 43.6024 24.4047 40.3805C23.8791 37.0167 23.9217 33.582 23.2541 30.2465C22.6291 27.1382 21.0807 23.9873 18.0834 22.5822C17.8419 22.4545 17.6146 22.8235 17.8703 22.937Z" fill="#40009B"/>
<path d="M14.804 31.2818C18.0854 31.665 19.5627 35.0572 20.1593 37.8958C20.8128 40.919 21.31 43.9564 22.1765 46.9369C23.8243 52.6994 26.2108 58.249 29.2365 63.4153C30.9553 66.3533 32.9014 69.1636 35.018 71.8319C35.1884 72.0448 35.4867 71.7467 35.3163 71.5338C31.353 66.5662 28.0716 61.0592 25.5573 55.2116C24.2931 52.2594 23.2277 49.2221 22.3754 46.1279C21.9634 44.6092 21.5941 43.0764 21.2816 41.5435C20.9548 39.9822 20.7418 38.3784 20.344 36.8313C19.6195 34.0779 17.8865 31.225 14.804 30.8702C14.5341 30.8276 14.5341 31.2534 14.804 31.2818Z" fill="#40009B"/>
<path d="M12.2035 37.1573C17.2037 39.9676 19.1498 45.7017 20.4141 50.9532C21.1101 53.8486 21.7209 56.744 22.6727 59.5685C23.5534 62.1658 24.6472 64.6922 25.9541 67.1051C27.4314 69.8444 29.1645 72.4275 31.1248 74.8546C31.2952 75.0675 31.5935 74.7694 31.4231 74.5565C27.7581 70.0289 24.9029 64.8625 23.0562 59.3556C21.2238 53.9054 20.7976 47.9158 18.0276 42.792C16.7065 40.3508 14.874 38.1792 12.4307 36.8025C12.1751 36.6606 11.962 37.0296 12.2035 37.1573Z" fill="#40009B"/>
<path d="M8.01358 42.6545C10.4569 43.137 12.3036 44.8828 13.6957 46.8557C15.2298 49.0272 16.3804 51.4969 17.4458 53.9239C19.8465 59.3741 21.7074 65.0656 23.7387 70.6719C24.9036 73.908 26.0826 77.1441 27.2474 80.3801C27.3468 80.6356 27.7588 80.522 27.6594 80.2666C25.486 74.2486 23.3268 68.2449 21.1392 62.227C20.1306 59.4451 19.1078 56.6632 17.9288 53.9523C16.835 51.4401 15.656 48.8853 14.065 46.6286C12.6019 44.5706 10.6842 42.7396 8.12722 42.2287C7.87153 42.1861 7.74368 42.5977 8.01358 42.6545Z" fill="#40009B"/>
</svg>
