<svg width="248" height="385" viewBox="0 0 248 385" fill="none" xmlns="http://www.w3.org/2000/svg">
<path d="M134.041 227.967C135.3 227.95 136.56 227.95 137.819 227.934C138.088 229.947 138.373 231.959 138.642 233.972L139.801 244.272L141.161 252.106L141.984 255.544L142.656 263.042L143.294 270.725L143.949 278.81L144.386 285.302L144.57 286.208C144.604 287.416 144.637 288.623 144.671 289.814C144.537 291.844 144.419 293.874 144.285 295.903C141.598 294.26 138.911 292.632 136.224 290.989L128.499 282.115L123.343 276.965C122.1 275.741 120.857 274.516 119.598 273.292C119.564 272.302 119.531 270.809 119.547 269.014C119.564 267.655 119.581 266.951 119.615 265.508C119.665 263.63 119.648 262.959 119.682 259.268C119.699 257.691 119.715 255.427 119.749 252.642C119.799 250.847 119.85 249.069 119.9 247.274C119.934 245.681 119.984 244.104 120.018 242.511L120.085 240.699L124.082 238.166L128.146 234.861L131.958 231.02C132.663 229.997 133.352 228.99 134.041 227.967Z" fill="#40009B"/>
<path d="M109.972 227.431C108.494 227.682 106.999 227.934 105.521 228.186C105.068 229.829 104.631 231.49 104.178 233.134C103.388 236.539 102.599 239.928 101.81 243.333C101.188 245.748 100.55 248.164 99.9288 250.579C99.5761 251.938 99.2234 253.314 98.8707 254.672C98.5181 257.054 98.1654 259.436 97.8127 261.818C97.4433 264.351 97.0906 266.867 96.7211 269.4C96.402 272.235 96.0662 275.053 95.7471 277.888C95.5456 279.817 95.344 281.729 95.1257 283.659C94.9914 284.564 94.857 285.47 94.7227 286.376C94.9746 289.479 95.2265 292.566 95.4784 295.669C97.4433 294.361 99.4082 293.052 101.39 291.761C102.23 290.922 103.506 289.63 104.967 287.986C108.343 284.195 108.393 283.407 110.946 280.857C111.836 279.968 113.381 278.609 116.538 275.959C117.63 275.036 118.721 274.131 119.796 273.208C119.695 271.514 119.729 270.155 119.779 269.216C119.813 268.478 119.88 267.723 119.93 266.263C119.93 266.263 119.964 265.324 119.981 264.435C120.014 262.288 119.913 260.678 119.863 259.319C119.779 257.256 119.83 255.763 119.93 252.777C119.981 251.334 120.014 251.015 120.199 247.308C120.3 245.144 120.384 243.383 120.434 242.259C120.518 241.504 120.602 240.766 120.669 240.011C119.846 239.357 119.023 238.703 118.201 238.049C116.907 236.908 115.614 235.784 114.321 234.644C113.028 233.402 111.735 232.161 110.442 230.92C110.291 229.729 110.123 228.588 109.972 227.431Z" fill="#40009B"/>
<path d="M120.686 269.281C122.114 269.281 123.272 268.124 123.272 266.697C123.272 265.271 122.114 264.114 120.686 264.114C119.258 264.114 118.1 265.271 118.1 266.697C118.1 268.124 119.258 269.281 120.686 269.281Z" fill="#FFD740" stroke="#FFD740" stroke-miterlimit="10"/>
<path d="M120.686 251.368C122.114 251.368 123.272 250.211 123.272 248.784C123.272 247.358 122.114 246.201 120.686 246.201C119.258 246.201 118.1 247.358 118.1 248.784C118.1 250.211 119.258 251.368 120.686 251.368Z" fill="#FFD740" stroke="#FFD740" stroke-miterlimit="10"/>
<path d="M136.963 213.944C137.198 214.497 137.45 215.051 137.685 215.604C137.903 216.309 138.122 217.013 138.34 217.701C138.357 218.489 138.29 219.11 138.239 219.546C138.038 220.922 137.618 221.76 138.054 222.381C138.206 222.599 138.424 222.717 138.558 222.784C138.256 223.371 137.954 223.975 137.651 224.562C137.668 225.434 137.668 226.306 137.685 227.179C137.719 227.715 137.719 231.49 137.719 231.49L137.937 236.572L138.525 240.699C138.525 240.699 139.247 246.939 139.247 247.291C139.247 247.643 140.557 252.659 140.557 252.659L141.279 255.93L143.093 251.87L146.284 245.278L149.34 238.233L150.062 235.834L148.299 233.821L145.763 230.819L145.209 230.198L148.265 228.621L152.615 226.642L152.783 226.239L150.465 222.549L145.578 215.705L142.387 212.316C140.574 212.853 138.777 213.407 136.963 213.944Z" fill="#202060"/>
<path d="M108.139 214.565C107.82 215.085 107.518 215.605 107.199 216.125C106.896 216.796 106.577 217.45 106.275 218.121C106.157 218.893 106.141 219.53 106.141 219.966C106.174 221.358 106.477 222.231 105.956 222.801C105.771 223.002 105.553 223.086 105.402 223.137C105.62 223.757 105.855 224.395 106.073 225.015C105.956 225.871 105.822 226.743 105.704 227.599C105.603 228.135 105.099 231.876 105.099 231.876L104.226 236.875L103.118 240.901C103.118 240.901 101.59 246.99 101.539 247.342C101.489 247.694 99.5406 252.492 99.5406 252.492L98.3987 255.629L97.1223 251.368L94.8216 244.407L92.7223 237.043L92.3193 234.577L94.3345 232.815L97.2399 230.182L97.878 229.628L95.0567 227.666L90.9925 225.133L90.875 224.697L93.6628 221.325L99.4063 215.186L103.017 212.25C104.713 213.022 106.426 213.793 108.139 214.565Z" fill="#202060"/>
<path d="M115.702 215.269L110.664 214.598L104.769 213.91L102.821 217.785L102.334 223.203L102.536 226.491L103.98 228.219H106.801L109.79 227.548L114.929 225.132L116.273 224.545L125.862 224.361L128.566 225.233L132.445 227.262L133.789 228.135L138.256 228.219L140.187 225.904L140.288 218.657L137.668 213.826L128.18 215.369L115.702 215.269Z" fill="#40009B"/>
<path d="M116.035 223.688L116.086 216.492L117.194 215.838H125.608L126.733 216.777V222.648V223.504L126.246 224.057L116.589 224.124L116.035 223.688Z" fill="#FFD740"/>
<path d="M128.883 219.595L136.793 217.348L128.883 219.595Z" fill="#FFD740"/>
<path d="M128.734 221.694L136.426 223.657L128.734 221.694Z" fill="#FFD740"/>
<path d="M113.281 222.181L105.287 223.254L113.281 222.181Z" fill="#FFD740"/>
<path d="M113.669 219.194L105.541 217.231L113.669 219.194Z" fill="#FFD740"/>
<path d="M60.0949 224.713L54.1162 223.018L50.22 221.794L47.6338 220.989L45.0139 220.452L41.5208 220.62L37.3727 220.569L32.5193 220.871L29.043 220.771L23.988 220.502L18.2109 222.029L13.3239 222.582L10.385 222.532L8.36969 221.257L7.98343 219.882L8.30251 219.378L8.6216 218.875L9.20938 218.405L10.0995 217.684L12.2155 217.919L14.0964 217.852L16.33 217.013L18.2949 216.158L19.1346 215.705L19.4872 214.933L17.6567 214.48L12.3163 214.447L7.00938 213.893L3.04603 213.474L1.4842 213.038L0.795646 211.897L0.694883 210.287L1.04755 209.515L1.93763 208.81L3.04603 208.391L4.64145 208.559L6.48877 208.743L8.08419 208.911L14.9865 209.381L17.6399 209.666L18.9666 209.8L19.3193 209.029L19.3361 208.777L18.8659 208.19L16.7498 207.955L13.0384 207.569L8.80633 207.116L2.71015 206.479L1.41702 206.076L0.476562 204.902L0.879616 203.61L1.78649 202.638L3.13 202.52L6.06893 202.554L8.99106 202.856L13.2567 203.04L15.8933 203.325L18.5468 203.61L19.8735 203.745L20.73 203.308L21.3346 202.57L20.5956 201.95L17.4552 201.346L14.2979 200.742L10.385 199.803L6.70709 199.148L5.41396 198.746L4.45671 197.572L4.60786 196.246L5.53152 195.005L7.47961 194.418L15.4231 195.257L21.217 196.129L23.0475 196.599L24.5926 197.018L26.7254 197.253L30.1681 197.605L31.5117 197.488L32.3681 197.052L33.0063 196.045L31.5788 194.284L28.4552 191.013L26.675 187.608L26.272 186.232L26.3895 185.175L27.0277 184.169L27.6155 183.699L28.2033 183.229L29.2613 183.347L31.7132 185.477L32.9559 186.4L36.1132 189.419L39.8078 192.489L41.9743 194.854L43.7712 197.974L45.5681 201.379L46.6933 203.376L47.9361 204.298L51.0429 205.17L54.7376 205.825L56.82 206.311L61.0353 207.032L62.6139 207.2L63.0674 208.039L62.6979 211.478L62.2781 215.453L61.7742 220.217L61.4048 223.656L60.7666 224.646L60.0949 224.713Z" fill="#F777CE"/>
<path d="M192.432 225.988L197.84 222.935L201.35 220.855L203.684 219.463L206.102 218.339L209.545 217.685L213.559 216.678L218.345 215.84L221.704 214.934L226.557 213.508L232.553 213.642L237.423 213.055L240.278 212.334L241.924 210.623L241.974 209.18L241.554 208.778L241.117 208.358L240.446 208.04L239.421 207.553L237.423 208.258L235.575 208.627L233.208 208.341L231.092 207.956L230.168 207.721L229.647 207.05L231.31 206.178L236.516 204.903L241.537 203.141L245.299 201.799L246.71 201.028L247.113 199.753L246.827 198.159L246.324 197.505L245.299 197.019L244.124 196.868L242.612 197.405L240.849 198.025L239.337 198.545L232.737 200.608L230.218 201.498L228.959 201.934L228.438 201.279L228.354 201.028L228.69 200.34L230.688 199.636L234.198 198.394L238.229 196.968L243.989 194.939L245.165 194.234L245.82 192.875L245.114 191.718L244.006 190.98L242.662 191.164L239.808 191.903L237.053 192.875L232.939 194.033L230.437 194.922L227.934 195.811L226.675 196.264L225.734 196.029L224.979 195.442L225.55 194.67L228.472 193.362L231.394 192.054L234.988 190.225L238.414 188.732L239.572 188.028L240.227 186.669L239.774 185.411L238.582 184.438L236.566 184.304L229.026 186.954L223.601 189.168L221.922 190.041L220.511 190.812L218.496 191.534L215.238 192.674L213.895 192.875L212.954 192.641L212.098 191.802L213.072 189.772L215.372 185.864L216.313 182.14L216.363 180.714L216.011 179.708L215.154 178.886L214.466 178.567L213.794 178.231L212.786 178.584L210.905 181.234L209.914 182.425L207.53 186.082L204.658 189.923L203.113 192.725L202.072 196.197L201.131 199.921L200.493 202.118L199.519 203.309L196.681 204.869L193.255 206.362L191.324 207.335L187.411 208.996L185.899 209.532L185.664 210.455L186.823 213.726L188.15 217.484L189.745 221.996L190.904 225.25L191.76 226.089L192.432 225.988Z" fill="#F777CE"/>
<path d="M96.5036 294.443L108.041 284.043L130.041 284.278L142.418 294.309L142.015 320.829L147.171 321.114L152.041 319.856L148.632 338.426L145.575 350.772L145.508 354.026L147.456 357.75L147.977 359.092L146.667 358.27L143.61 357.012L137.951 356.928L133.887 358.421L129.671 361.021L125.036 363.772L121.107 365.181L120.586 365.332L120.485 361.608L120.099 349.279L120.032 334.937L119.998 320.024L119.662 312.408L122.517 312.258L126.044 311.905L129.436 310.614L129.722 310.077L121.459 309.876L114.826 309.825L108.578 309.976L105.673 310.027V310.865L108.78 311.754L113.029 312.408H116.27L116.421 320.427L117.042 332.605L117.244 340.086L117.681 347.316L117.731 353.372V359.947V364.862L116.371 364.812L110.812 362.077L104.279 357.716L100.013 356.575L96.1005 356.391L92.8593 357.968L91.6837 357.917L93.3295 354.412L93.8165 350.939L92.473 345.186L89.6181 337.168L87.586 330.441L86.1753 324.385L85.7891 320.276L88.9295 321.064L91.7341 321.265L96.1509 321.366L96.4364 305.565L96.2852 297.899L96.5371 294.275" fill="#40009B"/>
<path d="M95.3281 353.423C97.7632 353.339 101.088 353.49 104.884 354.463C109.502 355.654 112.995 357.6 115.262 359.11" stroke="#FFD740" stroke-width="4" stroke-miterlimit="10"/>
<path d="M143.882 354.094C141.447 354.01 138.121 354.161 134.326 355.134C129.708 356.325 126.214 358.271 123.947 359.781" stroke="#FFD740" stroke-width="4" stroke-miterlimit="10"/>
<path d="M107.151 310.447C107.638 310.43 108.125 310.396 108.612 310.38C108.612 310.212 108.612 310.044 108.612 309.876C107.386 309.977 106.143 310.094 104.918 310.195C104.598 310.229 104.582 310.682 104.918 310.698C108.092 310.799 111.266 310.883 114.44 310.984C114.759 311 114.759 310.497 114.44 310.48C111.786 310.38 109.15 310.279 106.496 310.178C106.211 310.162 106.143 310.614 106.429 310.665C113.969 312.141 121.711 312.493 129.353 311.671C129.672 311.638 129.688 311.185 129.353 311.168C123.576 310.866 117.782 310.581 112.005 310.279C112.005 310.447 112.005 310.614 112.005 310.782C117.429 310.833 122.837 310.883 128.261 310.95C128.58 310.95 128.58 310.464 128.261 310.447C126.397 310.363 124.55 310.262 122.685 310.178C122.685 310.346 122.685 310.514 122.685 310.682C125.154 310.732 127.64 310.799 130.108 310.849C130.377 310.849 130.461 310.396 130.176 310.363C127.421 309.994 124.65 309.977 121.913 310.363C119.142 310.749 115.934 312.258 113.197 311.101C113.147 311.252 113.113 311.42 113.063 311.571C117.009 311.705 120.956 311.822 124.902 311.956C124.902 311.789 124.902 311.621 124.902 311.453C121.308 311.47 117.714 311.47 114.121 311.487C113.801 311.487 113.801 311.99 114.121 311.99C117.714 311.973 121.308 311.973 124.902 311.956C125.221 311.956 125.221 311.47 124.902 311.453C120.956 311.319 117.009 311.202 113.063 311.067C112.827 311.067 112.693 311.436 112.928 311.537C115.397 312.577 117.966 311.604 120.452 311.118C123.609 310.497 126.85 310.43 130.024 310.849C130.041 310.682 130.075 310.514 130.092 310.363C127.623 310.313 125.137 310.245 122.669 310.195C122.35 310.195 122.35 310.682 122.669 310.698C124.533 310.782 126.38 310.883 128.244 310.967C128.244 310.799 128.244 310.631 128.244 310.464C122.82 310.413 117.412 310.363 111.988 310.296C111.669 310.296 111.669 310.782 111.988 310.799C117.765 311.101 123.559 311.386 129.336 311.688C129.336 311.52 129.336 311.353 129.336 311.185C121.728 311.99 114.053 311.655 106.547 310.195C106.53 310.363 106.496 310.531 106.479 310.682C109.133 310.782 111.769 310.883 114.423 310.984C114.423 310.816 114.423 310.648 114.423 310.48C111.249 310.38 108.075 310.296 104.901 310.195C104.901 310.363 104.901 310.531 104.901 310.698C106.127 310.598 107.369 310.48 108.595 310.38C108.914 310.346 108.931 309.86 108.595 309.876C108.108 309.893 107.621 309.927 107.134 309.944C106.832 309.96 106.832 310.464 107.151 310.447Z" fill="#40009B"/>
<path d="M111.368 311.487C112.141 311.671 112.93 311.839 113.702 312.024C113.669 311.89 113.635 311.739 113.585 311.604C113.383 311.806 113.182 312.007 112.98 312.191C112.846 312.326 112.913 312.56 113.098 312.611C113.333 312.678 113.551 312.745 113.786 312.812C114.105 312.913 114.223 312.426 113.921 312.326C113.837 312.292 113.753 312.275 113.686 312.242C113.383 312.141 113.249 312.628 113.551 312.728C113.635 312.762 113.719 312.779 113.786 312.812C113.837 312.644 113.87 312.493 113.921 312.326C113.686 312.259 113.467 312.191 113.232 312.124C113.266 312.259 113.299 312.409 113.35 312.544C113.551 312.342 113.753 312.141 113.954 311.957C114.089 311.822 114.021 311.571 113.837 311.537C113.064 311.353 112.275 311.185 111.502 311C111.183 310.933 111.049 311.42 111.368 311.487Z" fill="#40009B"/>
<path d="M96.5566 290.702C111.805 290.786 127.038 290.887 142.286 290.971L96.5566 290.702Z" fill="#FFD740"/>
<path d="M96.5546 290.953C108.411 291.021 120.251 291.088 132.107 291.155C135.5 291.171 138.892 291.188 142.284 291.222C142.603 291.222 142.603 290.719 142.284 290.719C130.428 290.651 118.588 290.584 106.732 290.517C103.339 290.501 99.947 290.484 96.5546 290.45C96.2188 290.45 96.2188 290.953 96.5546 290.953Z" fill="#FFD740"/>
<path d="M88.2923 363.032C88.2755 362.613 88.2923 361.942 88.5778 361.204C88.9137 360.348 89.4343 359.845 90.0221 359.275C90.7106 358.62 91.2984 358.251 92.4404 357.53C93.7335 356.725 94.3885 356.322 95.245 356.087C96.1686 355.819 96.9076 355.802 97.3778 355.802C98.8221 355.769 99.8801 356.087 101.156 356.473C101.946 356.708 103.121 357.077 104.549 357.832C106.363 358.788 106.463 359.241 108.999 360.835C109.184 360.952 110.024 361.422 111.703 362.378C114.373 363.888 114.81 364.106 115.582 364.206C116.573 364.34 116.959 364.122 117.413 364.491C117.917 364.894 117.883 365.498 118.001 367.393C118.135 369.49 118.185 370.547 118.286 371.453C118.387 372.392 118.521 373.332 118.185 374.455C118.034 374.942 117.883 375.193 117.799 375.328C117.161 376.284 116.103 376.586 115.767 376.686C114.088 377.206 114.138 377.928 110.544 379.773C109.184 380.477 106.614 381.786 103.088 382.675C100.804 383.262 99.1411 383.396 96.4037 383.648C95.7488 383.698 92.3396 384 87.8892 383.748C85.5717 383.614 84.5137 383.43 83.4389 383.077C81.6419 382.474 80.3152 381.601 79.4755 380.947C79.0053 380.427 78.1824 379.387 77.8297 377.861C77.1748 375.059 78.5854 372.812 78.8877 372.359C79.6435 370.95 80.8358 369.088 82.6664 367.242C84.7152 365.112 86.7976 363.804 88.2923 363.032Z" fill="#FFD740" stroke="#FFD740" stroke-miterlimit="10"/>
<path d="M106.598 367.899C107.588 367.546 108.143 366.624 108.243 366.456C108.764 365.55 108.714 364.678 108.68 364.376L107.622 362.581L105.791 360.988L102.601 359.931L99.5442 359.444L96.3029 359.679L93.9854 361.122C93.7335 361.222 92.9442 361.575 92.5411 362.43C92.4068 362.715 92.0709 363.386 92.3396 363.789C92.6755 364.275 93.5991 363.94 95.2449 363.973C96.1182 363.99 96.7228 364.108 97.8144 364.326C98.9396 364.544 100.619 365.03 102.617 366.204C103.642 367.697 105.304 368.352 106.598 367.899Z" fill="#202060"/>
<path d="M88.2564 367.41C87.9542 367.527 87.2824 367.997 85.9389 368.953C85.2671 369.423 84.9817 369.641 84.8305 370.06C84.629 370.563 84.6458 371.285 85.032 371.754C85.687 372.543 87.1481 372.207 87.9877 371.989C89.3816 371.654 90.2213 370.916 90.7419 370.446C91.3633 369.892 91.8671 369.423 91.9007 368.702C91.9007 368.584 91.9343 367.947 91.5144 367.494C90.6076 366.538 88.5419 367.309 88.2564 367.41Z" fill="#202060"/>
<path d="M150.01 363.185C149.909 362.649 150.043 362.179 149.724 361.357C149.388 360.501 148.834 359.965 148.28 359.428C147.591 358.774 147.004 358.405 145.862 357.683C144.569 356.878 143.914 356.476 143.057 356.241C142.133 355.972 141.395 355.956 140.924 355.956C139.48 355.922 138.422 356.241 137.146 356.627C136.356 356.861 135.181 357.23 133.753 357.985C131.94 358.941 131.839 359.394 129.303 360.988C129.118 361.105 128.279 361.575 126.599 362.531C123.929 364.041 123.492 364.259 122.72 364.36C121.729 364.494 121.343 364.276 120.889 364.645C120.385 365.047 120.419 365.651 120.301 367.547C120.167 369.643 120.117 370.7 120.016 371.606C119.915 372.545 119.781 373.485 120.117 374.609C120.268 375.095 120.419 375.347 120.503 375.481C121.141 376.437 122.199 376.739 122.535 376.84C124.214 377.36 124.164 378.081 127.758 379.926C129.118 380.631 131.688 381.939 135.214 382.828C137.498 383.415 139.161 383.549 141.898 383.801C142.553 383.851 145.962 384.153 150.413 383.902C152.26 383.801 153.469 383.65 154.863 383.231C156.291 382.795 157.651 382.358 158.827 381.1C159.196 380.698 160.12 379.624 160.472 378.014C160.943 375.85 160.137 374.089 159.414 372.512C158.877 371.338 157.869 369.157 155.636 367.396C152.982 365.249 150.346 365.064 150.01 363.185Z" fill="#FFD740" stroke="#FFD740" stroke-miterlimit="10"/>
<path d="M133.133 366.474C132.159 366.206 131.605 365.216 131.487 365.031C130.967 364.125 131.017 363.253 131.051 362.951L132.109 361.156L133.939 359.563L137.13 358.506L140.186 358.02C141.765 357.734 142.89 358.053 143.428 358.254C143.898 358.439 144.351 358.724 145.258 359.294C146.299 359.949 146.619 360.267 146.854 360.62C147.055 360.922 147.525 361.609 147.29 362.029C147.022 362.498 146.098 362.247 144.687 362.314C143.545 362.364 142.773 362.582 141.379 363.002C139.599 363.522 138.306 364.176 137.147 364.78C134.728 366.055 134.124 366.759 133.133 366.474Z" fill="#202060"/>
<path d="M151.471 366.003C151.773 366.121 152.445 366.59 153.789 367.546C154.46 368.016 154.746 368.234 154.897 368.654C155.099 369.157 155.082 369.878 154.696 370.348C154.041 371.136 152.579 370.801 151.74 370.583C150.346 370.247 149.506 369.509 148.986 369.039C148.364 368.486 147.86 368.016 147.827 367.295C147.827 367.177 147.793 366.54 148.213 366.087C149.12 365.131 151.169 365.886 151.471 366.003Z" fill="#202060"/>
<path d="M133.263 286.056L127.352 286.157L114.891 286.107C112.069 286.073 109.265 286.04 106.443 286.006C107.703 284.698 108.962 283.389 110.222 282.081L114.622 278.005L118.451 274.516L120.13 273.09L122.23 274.834L126.68 279.011L131.449 283.456L134.321 286.056H133.263Z" fill="#FFD740" stroke="#FFD740" stroke-miterlimit="10"/>
<path d="M107.875 228.336C110.713 227.128 113.535 225.904 116.373 224.696L126.751 224.629C129.321 225.602 131.89 226.592 134.477 227.564C132.982 229.594 131.051 231.909 128.615 234.241C125.895 236.857 123.241 238.854 120.941 240.363C118.825 239.005 116.406 237.243 113.921 234.945C111.402 232.63 109.42 230.349 107.875 228.336Z" fill="#FFD740" stroke="#FFD740" stroke-miterlimit="10"/>
<path d="M168.397 312.007L162.301 316.721L157.145 319.472L150.981 321.065L146.699 322.005L142.047 321.854L142.114 310.766L142.265 292.348L141.896 281.763L140.586 260.812L138.772 246.319L136.74 228.638L139.276 227.833L140.586 224.864L140.519 219.144L138.923 215.303L138.268 213.642L143.861 212.199L149.235 210.388L151.855 209.297C152.98 208.945 154.088 208.593 155.214 208.241C156.523 207.922 157.833 207.603 159.126 207.268C160.504 206.983 161.881 206.681 163.241 206.396L167.96 206.177L173.62 204.869C173.62 204.869 178.843 203.057 179.128 202.99C179.414 202.923 187.844 199.937 187.844 199.937C189.288 199.686 191.589 199.199 194.293 198.226C196.526 197.421 200.137 196.935 201.262 195.979C201.313 195.928 201.749 195.559 201.884 195.66C201.984 195.727 201.867 195.962 201.783 196.582C201.716 197.069 201.766 197.136 201.682 197.455C201.598 197.79 201.481 197.975 201.397 198.176C201.128 198.713 201.178 198.897 200.859 200.004C200.859 200.004 200.759 200.373 200.423 201.414C199.617 203.913 197.03 205.943 196.829 208.761C196.795 209.264 197.03 210.153 197.551 211.948C198.004 213.525 198.525 214.766 199.583 217.265C200.456 219.329 200.691 219.681 201.178 219.899C202.572 220.52 204 218.909 204.554 219.396C205.259 220.016 203.949 223.438 201.229 225.686C200.104 226.609 199.062 227.062 198.491 227.313C191.606 230.366 188.079 231.389 188.079 231.389C184.334 232.48 179.867 233.838 173.955 235.684L165.827 237.227L159.966 238.149L158.32 238.351L160.89 247.057L163.459 257.926L165.391 268.36L167.137 278.827L167.725 287.332L168.162 296.81L168.061 307.73L168.397 312.007Z" fill="#FFD740"/>
<path d="M89.8707 208.357L79.2737 207.635L73.6142 207.048L61.5729 202.989C57.9958 202.016 54.4188 201.06 50.8584 200.087C49.9684 199.869 49.0615 199.651 48.1714 199.433C47.1302 199.449 46.089 199.483 45.0478 199.5C45.4508 200.389 45.8707 201.295 46.2737 202.184C46.5424 202.586 46.8111 203.006 47.0798 203.408C47.3149 203.526 47.5668 203.643 47.802 203.777C48.289 204.834 48.7928 205.891 49.2798 206.948L49.2294 211.208L47.5836 216.241L46.4752 219.864C46.089 220.166 45.7195 220.468 45.3333 220.753C45.0478 220.803 44.7455 220.854 44.46 220.904C43.9226 220.988 43.4355 220.971 43.4355 220.971C43.4355 220.971 43.5867 220.937 43.721 220.971C44.1241 221.072 44.2584 221.759 44.3088 221.994C44.3088 221.994 44.4432 222.648 45.2493 224.678C45.2829 224.745 45.7699 225.953 46.6264 226.859C47.7012 227.983 49.0111 228.268 49.9684 228.519C52.3531 229.19 52.202 229.727 55.9134 231.421C59.4737 233.049 59.8768 232.663 67.3165 235.196C71.5653 236.638 71.5149 236.789 73.3623 237.225C76.0325 237.863 78.7195 238.131 81.3897 238.433C82.9012 238.601 84.1607 238.701 85.0676 238.769L80.231 250.175L76.5531 263.326L73.2615 278.608L71.3302 288.085L70.5577 297.747L70.3562 311.67L70.5577 312.492L74.034 315.243L78.7531 318.296L83.2539 320.611L89.9378 322.204L96.2523 322.272L96.8401 292.262L97.4279 278.021L98.8386 268.744L100.434 258.311L104.061 240.815L106.094 228.536L104.347 228.486L102.6 227.714L102.164 224.762L102.55 220.652L103.222 216.492L104.481 213.792L105.103 212.382L100.652 210.89L96.2019 209.397L89.8707 208.357Z" fill="#FFD740"/>
<path d="M119.513 273.242C119.832 273.242 119.832 272.738 119.513 272.738C119.194 272.738 119.194 273.242 119.513 273.242Z" fill="#40009B"/>
<path d="M119.379 272.771C119.312 272.805 119.245 272.838 119.195 272.872C119.312 272.905 119.43 272.939 119.547 272.956C119.547 272.939 119.53 272.922 119.53 272.905C119.547 272.972 119.547 273.039 119.564 273.107V273.123C119.497 273.14 119.446 273.174 119.379 273.19C119.278 273.09 119.178 273.09 119.077 273.174C119.01 273.207 118.943 273.257 118.875 273.291C118.741 273.375 118.607 273.459 118.472 273.543C118.237 273.694 118.388 274.079 118.674 273.996C119.077 273.878 119.43 273.677 119.732 273.408C119.933 273.241 119.715 272.922 119.48 272.989C118.758 273.174 118.153 273.643 117.767 274.281C117.649 274.465 117.834 274.717 118.053 274.65C118.573 274.499 118.993 274.163 119.228 273.677C119.362 273.392 118.943 273.123 118.791 273.425C118.607 273.794 118.321 274.046 117.918 274.163C118.019 274.281 118.103 274.415 118.204 274.532C118.523 273.996 119.01 273.626 119.614 273.476C119.53 273.341 119.446 273.19 119.362 273.056C119.111 273.274 118.842 273.425 118.523 273.509C118.59 273.66 118.657 273.811 118.724 273.962C119.06 273.761 119.95 273.425 119.732 272.888C119.53 272.452 118.926 272.754 119.111 273.19C119.161 273.325 119.346 273.341 119.463 273.274C119.53 273.241 119.598 273.207 119.648 273.174C119.933 273.073 119.682 272.637 119.379 272.771Z" fill="#40009B"/>
<path d="M117.296 274.466C117.162 274.651 117.027 274.852 116.893 275.037C116.759 275.221 116.977 275.456 117.178 275.406C117.817 275.238 118.337 274.819 118.623 274.232C118.757 273.946 118.337 273.695 118.186 273.98C117.951 274.45 117.548 274.785 117.044 274.936C117.145 275.054 117.229 275.188 117.33 275.305C117.464 275.121 117.598 274.919 117.733 274.735C117.934 274.45 117.498 274.198 117.296 274.466Z" fill="#40009B"/>
<path d="M116.607 275.07C116.523 275.221 116.422 275.389 116.339 275.54C116.221 275.724 116.406 275.959 116.624 275.909C117.061 275.791 117.363 275.506 117.531 275.087C117.615 274.886 117.329 274.701 117.161 274.802C116.607 275.154 116.137 275.64 115.835 276.228C115.7 276.479 116.019 276.731 116.238 276.53C116.523 276.261 116.826 275.993 117.111 275.724C117.346 275.506 116.993 275.154 116.758 275.372C116.473 275.64 116.171 275.909 115.885 276.177C116.019 276.278 116.154 276.379 116.288 276.479C116.557 275.959 116.943 275.54 117.43 275.238C117.313 275.137 117.178 275.053 117.061 274.953C116.96 275.204 116.758 275.355 116.506 275.422C116.607 275.54 116.691 275.674 116.792 275.791C116.876 275.64 116.977 275.473 117.061 275.322C117.195 275.053 116.758 274.785 116.607 275.07Z" fill="#40009B"/>
<path d="M115.567 276.547C115.03 276.782 114.577 277.151 114.241 277.62C114.106 277.805 114.325 278.057 114.526 277.989C114.98 277.855 115.349 277.553 115.584 277.151C115.752 276.866 115.315 276.614 115.148 276.899C114.98 277.201 114.728 277.402 114.392 277.503C114.493 277.62 114.577 277.755 114.677 277.872C114.963 277.469 115.366 277.167 115.819 276.983C116.122 276.849 115.87 276.413 115.567 276.547Z" fill="#40009B"/>
<path d="M114.106 277.837C111.956 279.447 109.991 281.292 108.261 283.355C108.06 283.607 108.412 283.959 108.614 283.708C110.31 281.678 112.225 279.85 114.358 278.256C114.609 278.088 114.374 277.652 114.106 277.837Z" fill="#40009B"/>
<path d="M109.197 283.071C111.683 280.84 114.168 278.609 116.637 276.378C116.872 276.16 116.519 275.808 116.284 276.026C113.799 278.257 111.313 280.488 108.844 282.719C108.593 282.92 108.945 283.289 109.197 283.071Z" fill="#40009B"/>
<path d="M116.773 275.858C116.958 275.657 117.126 275.439 117.31 275.237C117.478 275.053 117.327 274.751 117.058 274.818C116.773 274.885 116.538 275.07 116.387 275.305C116.219 275.59 116.655 275.841 116.823 275.556C116.907 275.422 117.042 275.338 117.193 275.288C117.109 275.154 117.025 275.003 116.941 274.868C116.756 275.07 116.588 275.288 116.403 275.489C116.319 275.59 116.303 275.741 116.403 275.841C116.521 275.942 116.689 275.959 116.773 275.858Z" fill="#40009B"/>
<path d="M116.355 276.076C116.69 276.009 116.942 275.757 117.06 275.438C117.11 275.304 117.01 275.17 116.892 275.136C116.758 275.103 116.623 275.187 116.59 275.304C116.539 275.455 116.388 275.556 116.237 275.589C116.103 275.623 116.036 275.774 116.069 275.891C116.086 276.042 116.22 276.109 116.355 276.076Z" fill="#40009B"/>
<path d="M116.724 276.075C117.396 275.337 118.135 274.716 118.974 274.179C119.663 273.743 120.352 273.358 120.889 272.72C121.091 272.468 120.738 272.116 120.536 272.368C119.915 273.106 119.042 273.508 118.269 274.045C117.564 274.532 116.942 275.085 116.371 275.723C116.153 275.958 116.506 276.327 116.724 276.075Z" fill="#40009B"/>
<path d="M119.108 273.206C118.285 274.346 117.109 275.202 116.051 276.108C115.799 276.326 116.169 276.678 116.404 276.46C117.512 275.52 118.688 274.631 119.544 273.457C119.729 273.189 119.292 272.937 119.108 273.206Z" fill="#40009B"/>
<path d="M109.4 282.315C109.417 282.483 109.098 282.584 108.98 282.667C108.913 282.735 108.846 282.802 108.795 282.886C108.745 282.953 108.711 283.104 108.627 283.137C108.325 283.255 108.459 283.741 108.762 283.624C108.913 283.557 109.014 283.489 109.098 283.355C109.198 283.221 109.249 283.087 109.383 283.003C109.652 282.852 109.937 282.667 109.887 282.315C109.87 281.996 109.366 281.996 109.4 282.315Z" fill="#40009B"/>
<path d="M71.0968 156.944C66.6128 156.021 68.0067 156.088 66.3609 155.92C63.7075 155.669 62.3808 155.551 61.2388 155.719C59.4922 155.987 58.2495 156.541 57.9472 156.692C56.251 157.48 55.109 158.52 54.5044 159.158C52.5395 161.204 51.4479 163.888 51.4479 163.888C51.2632 165.431 51.1289 167.595 51.3472 170.179C51.4479 171.42 51.5487 172.51 51.935 173.953C51.935 173.953 52.4052 175.748 55.1258 180.964C58.5518 185.343 59.1395 185.896 59.1395 185.896C61.2052 187.825 63.2876 188.714 65.4373 189.62C66.4449 190.039 68.225 190.744 70.5594 191.113C72.5915 191.448 73.5991 191.616 74.2876 191.063C75.5136 190.09 74.3212 188.396 75.6983 185.259C76.0342 184.487 76.4037 183.934 76.6724 182.793C76.7899 182.306 77.0082 181.3 76.8739 180.143C76.7227 178.935 76.3197 178.834 75.6144 177.09C74.7915 175.077 75.1105 174.674 74.1701 172.359C73.6327 171.034 73.5319 171.185 73.2464 170.33C72.7426 168.786 72.9945 168.132 72.9105 165.683C72.7594 161.473 71.9533 161.758 72.2892 159.695C72.3731 159.141 72.6082 158.017 72.0037 157.38C71.6678 157.061 71.2647 156.977 71.0968 156.944Z" fill="#FFD740"/>
<path d="M71.6178 160.968L67.9567 159.274L64.1949 158.721L61.088 159.14L58.3002 160.784L56.6544 162.696L55.5628 164.659L55.2437 166.034L55.1094 169.507L55.1933 172.157L55.7811 174.354L57.1582 177.273L58.3002 179.185L59.8117 181.467L61.9613 183.664L64.8498 185.727L67.688 187.103L70.3414 187.556L73.0452 187.506H74.1872L75.1445 187.321C75.5307 186.583 75.917 185.862 76.3033 185.124C76.5384 184.117 76.7903 183.111 77.0254 182.121C77.0254 181.366 77.0254 180.595 77.0254 179.84C76.8407 179.135 76.6559 178.431 76.488 177.743C76.2025 177.122 75.9338 176.485 75.6483 175.864C75.4468 175.21 75.2788 174.489 75.1781 173.683C75.1445 173.465 75.1277 173.264 75.1109 173.063C74.7918 172.56 74.4895 172.073 74.1704 171.57C74.1033 170.932 74.0193 170.278 73.9185 169.607C73.6498 167.796 73.3307 166.068 72.9613 164.458L72.5414 161.354L71.6178 160.968Z" fill="#40009B"/>
<path d="M72.5774 168.097C71.15 166.856 69.6385 165.715 68.0263 164.725C66.4141 163.736 64.9194 163.065 62.9881 163.149C61.3759 163.216 59.6461 163.501 58.3698 164.558C57.2446 165.48 56.64 166.94 57.0431 168.365C57.1271 168.684 57.6141 168.55 57.5301 168.231C57.0767 166.638 58.0843 165.145 59.4614 164.44C60.8385 163.736 62.6187 163.534 64.1469 163.669C65.7255 163.82 67.0858 164.725 68.379 165.564C69.7225 166.436 70.9988 167.409 72.208 168.466C72.4599 168.667 72.8293 168.315 72.5774 168.097Z" fill="#FFD740"/>
<path d="M73.2649 171.385C71.7703 171.217 70.2924 171.066 68.7978 170.915C67.6222 170.798 66.413 170.664 65.2878 171.083C63.3398 171.821 62.3489 173.801 62.6512 175.814C62.7016 176.132 63.1886 175.998 63.1382 175.679C62.7688 173.247 64.6161 171.335 67.0008 171.301C69.0665 171.268 71.2161 171.67 73.2649 171.888C73.584 171.922 73.584 171.419 73.2649 171.385Z" fill="#FFD740"/>
<path d="M75.0612 175.646C72.5925 175.562 69.6871 177.105 69.9726 179.94C70.2581 182.842 73.5329 183.63 75.9344 183.278C76.2535 183.228 76.1192 182.741 75.8001 182.792C73.7009 183.094 70.7116 182.439 70.4764 179.873C70.2413 177.323 72.8948 176.065 75.0612 176.149C75.397 176.166 75.397 175.663 75.0612 175.646Z" fill="#FFD740"/>
<path d="M74.9763 177.912C74.6236 178.398 74.2542 178.868 73.9015 179.354C73.7 179.606 74.1366 179.858 74.3381 179.606C74.6908 179.12 75.0603 178.65 75.413 178.163C75.5977 177.912 75.161 177.66 74.9763 177.912Z" fill="#FFD740"/>
<path d="M189.209 121.516L189.562 121.466L194.684 120.493L199.134 119.134L203.786 117.491L208.438 115.26L211.914 112.743L214.047 109.741L214.82 105.782L214.719 100.179L213.846 98.3509L210.168 94.6774L204.072 91.1044L194.583 87.4308L180.93 83.8579C180.93 79.8152 183.549 67.9054 183.549 67.9054L187.328 42.6767L189.075 34.2727C189.226 33.2663 189.31 31.6895 188.789 29.9282C188.52 29.0391 188.134 28.1501 186.757 26.1539C185.43 24.2249 184.322 22.5977 182.407 20.6519C181.299 19.5112 179.804 18.1525 176.311 15.7202C173.523 13.7744 170.467 11.6608 166.436 9.63112C160.794 6.79625 156.276 5.68914 149.894 4.12912C145.814 3.12266 140.255 1.79748 132.765 1.22715C127.256 0.807788 123.192 1.00908 118.54 1.22715C113.72 1.46199 107.675 1.76393 99.9662 3.25685C96.0029 4.02847 91.0487 5.00139 84.8685 7.31626C79.9143 9.17822 73.6502 11.577 67.151 16.8944C62.3815 20.7861 58.183 24.2249 56.7052 30.2301C55.4624 35.2121 56.6716 39.6238 57.5784 42.056L61.2059 61.3466L63.9601 77.0139L65.1189 84.3443L59.812 85.3676L47.3342 89.3599L37.2411 94.2244L31.296 100.163L30.8594 106.973L32.8914 112.19L36.8044 115.863L43.4884 118.916L50.8441 120.845L57.5784 122.288L57.4777 118.162L57.4441 111.603L57.4777 110.261L62.5662 106.57L71.7189 101.974L86.3296 97.529L102.015 95.1303L116.458 94.4761H138.592L154.345 96.1367L167.998 98.4516L179.468 102.008L188.974 107.443L189.209 121.516Z" fill="#FFD740"/>
<path d="M34.705 102.509C34.5538 102.576 34.0332 102.61 34.0332 102.61L34.2347 100.865L36.166 98.2484L41.3889 95.2458L52.221 90.4147L66.6469 86.8418L80.4851 84.2418L90.9309 82.9837L103.123 81.8262L119.279 81.4404L136.409 81.6417L147.728 82.1282L159.248 83.4869L171.642 85.1308L183.935 87.7476L192.551 89.9786L200.78 92.7799L206.876 95.8664L210.654 99.2548L211.712 100.697L211.813 101.67L209.009 99.4394L201.451 95.38L188.285 90.5489L172.516 87.4624L151.607 84.8456L128.381 83.8727L107.574 84.074L88.9996 85.5166L75.2622 87.1605L61.2225 90.3476L49.1309 93.7361L42.7492 96.9232L37.3248 100.295C37.3248 100.295 35.4943 102.157 34.705 102.509Z" fill="#40009B"/>
<path d="M66.8326 75.1505C68.2769 74.295 70.2418 73.2046 72.6433 72.064C74.0372 71.393 77.9166 69.5981 84.1639 67.7194C90.8647 65.6897 96.1211 64.8007 100.135 64.1465C102.385 63.7774 108.078 62.8884 115.518 62.4019C115.921 62.3684 125.275 61.798 134.193 62.3013C134.898 62.3348 136.259 62.4187 138.072 62.5864C139.097 62.6871 142.086 62.9722 147.074 63.8445C149.475 64.2639 153.12 64.9013 157.906 66.0755C162.104 67.0988 164.271 67.6355 167.294 68.7762C171.005 70.1852 173.642 71.6278 174.75 72.2485C176.614 73.3053 178.142 74.3285 179.301 75.1505C179.368 75.2008 179.452 75.2679 179.536 75.3685C180.141 76.0898 179.771 77.0627 179.57 78.5557C179.385 80.0486 179.2 81.4409 179.503 83.0847C179.587 83.5544 179.671 83.8564 179.503 84.108C178.999 84.8293 177 84.2086 175.59 83.8228C173.138 83.1351 170.585 82.9002 168.117 82.2628C165.984 81.7093 163.364 81.3905 158.107 80.7363C156.495 80.535 149.307 79.6628 139.013 79.2434C133.488 79.0253 129.423 79.0253 124.1 79.0253C122.739 79.0253 117.164 79.0421 109.623 79.2434C103.359 79.4112 100.219 79.495 96.1883 79.7802C92.1914 80.0654 86.9517 80.4512 80.2173 81.5918C75.515 82.397 71.6189 83.3028 68.7807 84.0241C68.3105 84.2757 67.9578 84.2925 67.6891 84.2086C65.9425 83.6215 66.5135 77.7337 66.8326 75.1505Z" fill="#40009B"/>
<path d="M188.64 107.309L186.322 105.279L174.415 100.197L160.325 96.8584L141.163 94.8287L124.319 94.3926L107.777 94.5436L96.7434 95.4158L81.6457 98.4688L68.7312 103.384L57.4121 109.624L57.6976 121.953L58.2854 131.95L60.1663 144.414L62.635 155.435L70.2258 156.793L71.4518 158.622L72.2579 161.457L73.6686 170.381L75.3144 175.547L76.7251 179.271V182.844L75.6671 184.723L75.0457 187.809L74.2732 190.896L74.609 194.133L76.3052 197.32L84.8701 205.255C84.8701 205.255 89.522 208.207 89.5724 208.341C89.6228 208.492 96.3907 211.092 96.3907 211.092L102.201 212.736L107.189 214.145L114.646 215.017L119.919 215.453H128.433L138.359 213.81L146.974 211.394L156.127 207.67L161.551 204.768L167.16 199.3L168.991 194.569L169.478 190.174L169.142 187.323L167.597 183.364L166.875 181.569L167.647 178.768L169.394 175.094L171.325 169.29L171.946 165.13L172.618 160.836L172.853 159.511L179.101 157.162L184.508 154.948L186.658 147.265L188.371 138.425L188.841 132.957L188.942 125.559L188.908 118.162L188.64 107.309Z" fill="#40009B"/>
<path opacity="0.9" d="M57.41 109.622C58.065 107.005 61.0711 105.73 66.8481 103.432C74.4558 100.412 78.2512 98.9027 79.6283 98.5001C86.2955 96.5375 91.5855 95.7994 96.4726 95.1117C101.477 94.4071 105.306 94.1388 107.892 93.9542C114.711 93.4678 119.866 93.4678 123.863 93.4678C132.68 93.4845 139.28 93.9375 140.892 94.0549C148.366 94.5917 153.958 95.3633 155.705 95.5981C159.399 96.1181 163.799 96.7556 169.543 98.1143C177.856 100.077 173.758 99.9595 182.894 102.66C184.422 103.113 187.411 103.969 188.705 106.535C189.108 107.34 189.242 108.112 189.292 108.665V117.069C189.124 122.857 188.956 128.627 188.805 134.414C188.218 138.457 187.647 142.483 187.059 146.525C186.034 149.847 185.01 153.168 183.969 156.489C181.332 156.389 178.695 156.288 176.059 156.204C174.329 156.674 172.599 157.143 170.869 157.613C171.273 151.792 171.659 145.988 172.062 140.168L171.575 130.791L170.517 122.773L174.295 118.042L176.327 113.597L176.915 111.668L176.814 108.481H176.042L175.555 111.182L173.237 115.14L168.888 120.558L162.59 125.289L156.561 128.66L155.503 128.761L156.947 125.188L158.106 120.743L159.55 116.298L159.937 113.983L158.492 113.882L149.776 119.871L141.363 124.903L137.013 127.319L134.007 127.989L135.837 121.9L136.811 115.224L136.039 113.865L135.166 113.765L131.102 116.851L123.847 122.068L115.517 126.228L112.511 126.513L114.056 121.397L114.728 115.107V113.362H113.367L108.531 117.237L97.6145 123.93L91.3168 127.218L88.8985 128.275L90.3428 124.5L92.1733 119.082L92.4588 113.278L92.1733 112.305L88.2939 114.436L80.9382 118.982L74.6405 123.913L70.5764 127.486L70.6772 124.4L72.1214 118.898L74.5398 113.865L78.0161 109.605L78.6878 108.934L77.1428 108.649L73.6665 111.836L69.6024 118.696C69.6024 118.696 67.4695 124.4 67.4695 124.685C67.4695 124.97 67.3688 132.619 67.3688 132.619L67.9565 133.29L70.4756 130.489L71.2481 130.103L71.1978 135.135L70.6604 142.717L70.4253 151.809V155.432C70.3413 155.885 70.2573 156.338 70.1901 156.791C69.3169 156.607 68.4268 156.439 67.5535 156.254C66.5459 156.087 65.5382 155.919 64.5474 155.751C63.9092 155.718 63.2711 155.684 62.6161 155.65C61.7596 151.742 60.9031 147.85 60.0466 143.942C59.5596 140.923 59.0894 137.903 58.6024 134.884C58.3001 131.529 57.9978 128.191 57.6955 124.836C57.2588 120.038 57.6619 121.313 57.326 114.536C57.2253 111.685 57.2421 110.259 57.41 109.622Z" fill="#F777CE"/>
<path d="M161.715 142.785C161.866 141.98 161.648 141.258 161.43 140.755C160.859 139.547 160.204 138.625 159.683 138.004C159.112 137.316 158.407 136.461 157.215 135.689C156.375 135.136 155.619 134.851 154.964 134.599C154.444 134.398 153.738 134.129 152.781 133.945C151.673 133.727 150.833 133.743 149.775 133.743C148.902 133.76 148.163 133.76 147.189 133.945C145.845 134.18 144.871 134.582 144.502 134.75C143.477 135.186 142.738 135.689 142.318 135.974C141.63 136.461 139.161 138.759 140.068 137.937C140.992 137.098 137.801 139.866 137.23 140.47C136.743 140.973 136.155 141.678 135.92 142.651C135.853 142.902 135.752 143.389 135.987 143.59C136.054 143.64 136.256 143.775 136.86 143.523C137.75 143.154 138.204 142.516 138.607 142.08C139.044 141.594 139.766 141.107 141.227 140.118C141.899 139.665 142.671 139.145 143.763 138.591C144.25 138.356 145.089 137.92 146.047 137.618C146.786 137.383 149.775 136.411 152.865 137.585C153.923 137.987 154.729 138.541 155.183 138.86C155.434 139.027 156.022 139.447 157.718 141.04C158.491 141.762 159.112 142.365 159.532 142.785C159.818 143.422 160.204 143.791 160.439 143.976C160.708 144.194 160.808 144.194 160.876 144.194C161.363 144.127 161.631 143.204 161.715 142.785Z" fill="#FFD740"/>
<path d="M85.5091 142.785C85.358 141.98 85.5763 141.258 85.7946 140.755C86.3656 139.547 87.0206 138.625 87.5412 138.004C88.1122 137.316 88.8175 136.461 90.0099 135.689C90.8496 135.136 91.6053 134.851 92.2603 134.599C92.7809 134.398 93.4862 134.129 94.4435 133.945C95.5519 133.727 96.3916 133.743 97.4496 133.743C98.3229 133.76 99.0618 133.76 100.036 133.945C101.379 134.18 102.353 134.582 102.723 134.75C103.747 135.186 104.486 135.689 104.906 135.974C105.595 136.461 108.063 138.759 107.156 137.937C106.233 137.098 109.424 139.866 109.995 140.47C110.482 140.973 111.069 141.678 111.305 142.651C111.372 142.902 111.472 143.389 111.237 143.59C111.17 143.64 110.969 143.775 110.364 143.523C109.474 143.154 109.021 142.516 108.618 142.08C108.181 141.594 107.459 141.107 105.998 140.118C105.326 139.665 104.553 139.145 103.462 138.591C102.975 138.356 102.135 137.92 101.178 137.618C100.439 137.383 97.4496 136.411 94.3595 137.585C93.3015 137.987 92.4954 138.541 92.042 138.86C91.7901 139.027 91.2023 139.447 89.5061 141.04C88.7336 141.762 88.1122 142.365 87.6923 142.785C87.4069 143.422 87.0206 143.791 86.7855 143.976C86.5168 144.194 86.416 144.194 86.3488 144.194C85.8618 144.127 85.5763 143.204 85.5091 142.785Z" fill="#FFD740"/>
<path d="M85.321 161.339C86.1103 159.209 87.1179 157.766 87.4538 157.33C87.9744 156.609 88.8645 155.418 90.4095 154.277C91.0477 153.808 91.9042 153.17 93.1637 152.734C95.8675 151.795 98.353 152.466 99.6462 152.835C99.9485 152.919 101.242 153.288 102.787 154.143C103.29 154.412 105.104 155.452 106.952 157.481C108.832 159.545 110.159 161.977 110.092 162.027C110.008 162.061 111.335 164.392 112.023 167.059C112.174 167.63 112.426 168.603 112.51 169.911C112.577 170.817 112.493 170.985 112.46 173.048C112.426 175.212 112.51 175.161 112.41 175.749C112.191 176.956 111.721 177.778 111.049 178.936C110.445 179.993 109.874 180.965 108.782 181.989C107.741 182.945 106.75 183.431 105.877 183.867C105.02 184.287 104.399 184.589 103.509 184.74C102.803 184.857 102.619 184.756 101.141 184.689C99.7133 184.639 99.7637 184.723 97.7485 184.689C96.3042 184.673 95.5653 184.656 94.8935 184.488C94.4065 184.371 93.8859 184.203 92.4752 183.515C90.3424 182.475 89.2675 181.955 88.5622 181.334C87.4202 180.362 86.8492 179.372 86.0431 177.996C85.3714 176.839 84.75 175.782 84.3973 174.272C84.263 173.669 84.2294 173.316 84.2462 169.626C84.263 166.271 84.2798 165.952 84.3469 165.416C84.6156 163.285 85.1866 161.725 85.321 161.339Z" fill="#FFD740"/>
<path d="M104.633 166.806C104.062 166.471 103.507 166.152 102.701 165.984C102.181 165.867 101.375 165.699 100.468 165.984C99.3089 166.353 98.6707 167.276 98.0494 168.165C97.7303 168.635 97.3776 169.138 97.1257 169.909C96.9914 170.329 96.5715 171.855 97.2265 173.482C97.5456 174.288 98.0158 174.808 98.6708 175.562C99.2417 176.2 99.5272 176.519 99.9303 176.77C101.543 177.743 103.558 177.039 104.045 176.871C104.481 176.72 105.22 176.451 105.926 175.764C106.631 175.076 106.933 174.338 107.135 173.835C107.303 173.398 107.605 172.644 107.622 171.604C107.622 171.134 107.622 169.691 106.648 168.416C106.11 167.662 105.472 167.293 104.633 166.806Z" fill="#40009B"/>
<path d="M101.779 171.822C102.064 171.705 102.316 171.47 102.786 171C103.139 170.648 103.324 170.48 103.408 170.329C103.76 169.742 103.727 168.954 103.458 168.35C103.072 167.494 102.299 167.176 102.047 167.092C101.275 166.823 100.62 167.025 100.401 167.092C100.166 167.176 99.5114 167.377 99.0915 168.014C98.5205 168.87 98.8228 169.859 98.89 170.145C98.9739 170.43 99.3098 171.537 100.334 171.889C100.452 171.906 101.107 172.107 101.779 171.822Z" fill="#FFD740"/>
<path d="M141.601 191.7L137.738 193.428L132.129 194.887L125.445 196.044H111.305L104.537 194.786L101.245 193.394L100.355 191.163L99.9688 193.176L101.01 195.004L103.092 196.497L104.251 199.399L107.073 203.761L111.724 207.887L116.292 209.917L123.044 210.202L127.41 209.414L132.549 206.143L135.387 202.821L137.419 199.399L137.705 196.866L137.789 194.686L141.601 191.7Z" fill="#FFD740"/>
<path d="M117.497 200.741C118.236 200.808 118.958 200.875 119.898 200.942C120.604 200.993 121.494 201.043 122.3 201.026C122.686 201.026 123.778 200.993 126.314 200.49C128.682 200.02 129.874 199.785 131.15 199.231C132.527 198.644 133.25 198.057 134.677 196.917C135.147 196.548 135.601 196.145 135.5 195.893C135.45 195.776 135.231 195.591 133.854 195.742C131.906 195.96 130.798 196.48 129.353 196.85C128.497 197.068 127.741 197.168 126.213 197.336C124.147 197.571 123.341 197.47 118.706 197.437C114.726 197.403 113.819 197.47 111.686 197.235C110.494 197.118 109.503 196.967 108.831 196.85C107.924 196.262 107.169 196.179 106.749 196.179C106.463 196.179 105.993 196.179 105.876 196.413C105.708 196.749 106.295 197.37 106.463 197.52C107.236 198.309 108.16 198.577 108.781 198.779C111.233 199.55 110.695 199.668 112.308 200.087C113.03 200.288 114.524 200.439 117.497 200.741Z" fill="#40009B"/>
<path d="M112.04 204.549C112.292 203.509 114.089 203.156 115.433 202.905C116.088 202.787 116.927 202.67 120.269 202.67C122.52 202.67 124.972 202.72 124.972 202.72C124.972 202.72 126.198 202.754 127.34 202.955C127.34 202.955 128.851 203.24 129.993 204.012C130.228 204.18 130.514 204.398 130.665 204.783C130.715 204.901 130.833 205.186 130.766 205.454C130.631 205.974 129.876 206.109 128.734 206.511C127.625 206.914 127.961 206.931 126.366 207.568C125.123 208.071 124.485 208.323 123.847 208.44C123.024 208.591 122.251 208.541 120.706 208.44C119.48 208.356 118.876 208.323 118.053 208.155C117.263 207.987 116.541 207.736 115.097 207.233C115.097 207.233 114.509 207.031 113.686 206.645C112.695 206.193 112.477 205.991 112.326 205.773C112.108 205.505 111.923 204.985 112.04 204.549Z" fill="#40009B"/>
<path d="M157.838 161.339C157.048 159.209 156.041 157.766 155.705 157.33C155.184 156.609 154.294 155.418 152.749 154.277C152.111 153.808 151.254 153.17 149.995 152.734C147.291 151.795 144.806 152.466 143.512 152.835C143.21 152.919 141.917 153.288 140.372 154.143C139.868 154.412 138.054 155.452 136.207 157.481C134.326 159.545 133 161.977 133.067 162.027C133.151 162.061 131.824 164.392 131.135 167.059C130.984 167.63 130.732 168.603 130.648 169.911C130.581 170.817 130.665 170.985 130.699 173.048C130.732 175.212 130.648 175.161 130.749 175.749C130.967 176.956 131.438 177.778 132.109 178.936C132.714 179.993 133.285 180.965 134.377 181.989C135.418 182.945 136.409 183.431 137.282 183.867C138.138 184.287 138.76 184.589 139.65 184.74C140.355 184.857 140.54 184.756 142.018 184.689C143.445 184.639 143.395 184.723 145.41 184.689C146.854 184.673 147.593 184.656 148.265 184.488C148.752 184.371 149.273 184.203 150.683 183.515C152.816 182.475 153.891 181.955 154.596 181.334C155.738 180.362 156.309 179.372 157.116 177.996C157.787 176.839 158.409 175.782 158.761 174.272C158.896 173.669 158.929 173.316 158.912 169.626C158.896 166.271 158.879 165.952 158.812 165.416C158.526 163.285 157.972 161.725 157.838 161.339Z" fill="#FFD740"/>
<path d="M138.523 166.806C139.094 166.471 139.648 166.152 140.454 165.984C140.974 165.867 141.781 165.699 142.687 165.984C143.846 166.353 144.484 167.276 145.106 168.165C145.425 168.635 145.777 169.138 146.029 169.909C146.164 170.329 146.584 171.855 145.929 173.482C145.61 174.288 145.139 174.808 144.484 175.562C143.913 176.2 143.628 176.519 143.225 176.77C141.613 177.743 139.597 177.039 139.11 176.871C138.674 176.72 137.935 176.451 137.229 175.764C136.524 175.076 136.222 174.338 136.02 173.835C135.852 173.398 135.55 172.644 135.533 171.604C135.533 171.134 135.533 169.691 136.507 168.416C137.045 167.662 137.666 167.293 138.523 166.806Z" fill="#40009B"/>
<path d="M141.381 171.822C141.096 171.705 140.844 171.47 140.374 171C140.021 170.648 139.836 170.48 139.752 170.329C139.4 169.742 139.433 168.954 139.702 168.35C140.088 167.494 140.861 167.176 141.113 167.092C141.885 166.823 142.54 167.025 142.758 167.092C142.994 167.176 143.649 167.377 144.068 168.014C144.639 168.87 144.337 169.859 144.27 170.145C144.186 170.43 143.85 171.537 142.826 171.889C142.708 171.906 142.036 172.107 141.381 171.822Z" fill="#FFD740"/>
<path d="M129.372 183.312C129.271 183.765 129.12 184.083 129.002 184.335C128.633 185.123 128.179 185.627 127.692 186.147C127.373 186.482 126.937 186.952 126.248 187.455C125.895 187.707 125.291 188.126 124.502 188.394C123.175 188.847 122.033 188.646 120.656 188.394C119.615 188.21 119.094 188.109 118.473 187.74C117.801 187.338 117.415 186.834 116.659 185.861C116.105 185.14 115.752 184.687 115.433 183.983C115.063 183.194 114.677 182.339 114.845 181.299C114.996 180.41 115.483 179.806 115.937 179.269C116.273 178.85 116.995 177.994 118.187 177.525C119.833 176.887 120.74 177.642 122.033 176.719C122.218 176.585 122.554 176.35 122.839 175.914C123.024 175.629 123.477 174.79 122.906 172.073C122.486 170.077 121.932 169.104 122.47 168.383C122.503 168.332 122.789 167.93 123.091 167.98C123.343 168.013 123.477 168.383 123.679 168.852C124.149 169.993 124.266 169.892 124.485 170.479C124.737 171.217 124.518 171.301 124.552 173.415C124.586 175.059 124.72 175.344 124.451 175.981C124.216 176.535 123.914 176.82 124.048 177.072C124.216 177.374 124.804 177.105 125.795 177.39C126.282 177.541 126.601 177.743 127.071 178.028C127.525 178.313 127.911 178.548 128.263 178.984C128.381 179.135 128.549 179.353 128.767 179.806C129.103 180.594 129.691 181.836 129.372 183.312Z" fill="#FFD740"/>
<path d="M172.028 156.943C176.512 156.02 175.118 156.087 176.764 155.919C179.418 155.668 180.744 155.55 181.886 155.718C183.633 155.986 184.876 156.54 185.178 156.691C186.874 157.479 188.016 158.519 188.621 159.157C190.586 161.203 191.677 163.887 191.677 163.887C191.862 165.43 191.996 167.594 191.778 170.178C191.677 171.419 191.576 172.509 191.19 173.952C191.19 173.952 190.72 175.747 187.999 180.964C184.573 185.342 183.986 185.895 183.986 185.895C181.92 187.824 179.838 188.713 177.688 189.619C176.68 190.038 174.9 190.743 172.566 191.112C170.534 191.448 169.526 191.615 168.838 191.062C167.612 190.089 168.804 188.395 167.427 185.258C167.091 184.486 166.722 183.933 166.453 182.792C166.335 182.305 166.117 181.299 166.251 180.142C166.402 178.934 166.805 178.833 167.511 177.089C168.334 175.076 168.015 174.673 168.955 172.358C169.492 171.033 169.593 171.184 169.879 170.329C170.383 168.785 170.131 168.131 170.215 165.682C170.366 161.472 171.172 161.757 170.836 159.694C170.752 159.14 170.517 158.016 171.122 157.379C171.457 157.06 171.86 156.976 172.028 156.943Z" fill="#FFD740"/>
<path d="M171.507 160.968L175.168 159.274L178.93 158.721L182.037 159.14L184.825 160.784L186.471 162.696L187.562 164.659L187.881 166.034L188.016 169.507L187.932 172.157L187.344 174.354L185.967 177.273L184.825 179.185L183.313 181.467L181.164 183.664L178.275 185.727L175.437 187.103L172.784 187.556L170.08 187.506H168.938L167.981 187.321C167.594 186.583 167.208 185.862 166.822 185.124C166.587 184.117 166.335 183.111 166.1 182.121C166.1 181.366 166.1 180.595 166.1 179.84C166.284 179.135 166.469 178.431 166.637 177.743C166.923 177.122 167.191 176.485 167.477 175.864C167.678 175.21 167.846 174.489 167.947 173.683C167.981 173.465 167.997 173.264 168.014 173.063C168.333 172.56 168.635 172.073 168.955 171.57C169.022 170.932 169.106 170.278 169.206 169.607C169.475 167.796 169.794 166.068 170.164 164.458L170.584 161.354L171.507 160.968Z" fill="#40009B"/>
<path d="M170.901 168.466C172.077 167.443 173.303 166.504 174.596 165.648C175.923 164.776 177.333 163.82 178.962 163.686C180.457 163.552 182.17 163.736 183.53 164.39C184.975 165.095 186.066 166.605 185.596 168.248C185.512 168.567 185.999 168.701 186.083 168.383C186.486 167.007 185.915 165.581 184.857 164.642C183.581 163.535 181.767 163.233 180.138 163.166C178.257 163.082 176.813 163.703 175.234 164.675C173.572 165.682 172.026 166.856 170.565 168.131C170.314 168.316 170.666 168.668 170.901 168.466Z" fill="#FFD740"/>
<path d="M169.877 171.888C171.925 171.653 174.075 171.267 176.141 171.301C178.525 171.334 180.373 173.246 180.003 175.679C179.953 175.997 180.44 176.132 180.49 175.813C180.793 173.8 179.802 171.837 177.854 171.083C176.728 170.646 175.519 170.797 174.344 170.915C172.849 171.066 171.371 171.217 169.877 171.384C169.557 171.418 169.541 171.921 169.877 171.888Z" fill="#FFD740"/>
<path d="M168.064 176.149C170.23 176.065 172.883 177.323 172.648 179.873C172.413 182.439 169.441 183.094 167.325 182.792C167.006 182.741 166.871 183.228 167.19 183.278C169.592 183.614 172.867 182.842 173.152 179.94C173.421 177.105 170.515 175.562 168.064 175.646C167.744 175.663 167.744 176.166 168.064 176.149Z" fill="#FFD740"/>
<path d="M167.711 178.161C168.063 178.648 168.433 179.118 168.785 179.604C168.97 179.856 169.407 179.604 169.222 179.352C168.869 178.866 168.5 178.396 168.147 177.91C167.963 177.658 167.526 177.91 167.711 178.161Z" fill="#FFD740"/>
<path d="M80.8025 378.851C80.6346 378.65 80.1812 377.929 79.4926 377.895C79.4254 377.895 79.056 377.878 78.888 378.096C78.5522 378.533 79.2407 379.606 79.6941 380.143C80.7354 381.401 82.1796 381.82 82.6499 381.938C87.3186 383.229 92.7598 382.944 92.7598 382.944C95.5979 382.793 98.0331 382.676 101.325 381.887C104.364 381.166 106.329 380.327 109.89 378.784C114.105 376.973 111.485 377.644 115.952 375.228C116.221 375.077 117.648 374.322 117.9 373.131C117.934 372.98 118.035 372.544 117.799 372.326C117.548 372.091 117.044 372.259 116.842 372.326C115.432 372.796 111.603 375.329 110.78 375.882L105.775 377.979C104.28 378.583 102.047 379.321 99.259 379.724C98.1674 379.875 96.4544 379.925 93.0957 380.026C93.0957 380.026 91.0468 380.076 85.4376 379.925C83.1537 379.875 81.5415 379.807 80.8025 378.851Z" fill="#202060"/>
<path d="M157.783 379.205C157.951 379.004 158.404 378.282 159.093 378.249C159.16 378.249 159.529 378.232 159.697 378.45C160.033 378.886 159.345 379.96 158.891 380.496C157.85 381.755 156.406 382.174 155.935 382.291C151.267 383.583 145.826 383.298 145.826 383.298C142.987 383.147 140.552 383.029 137.261 382.241C134.221 381.52 132.256 380.681 128.696 379.138C124.481 377.326 127.1 377.997 122.633 375.582C122.365 375.431 120.937 374.676 120.685 373.485C120.652 373.334 120.551 372.898 120.786 372.68C121.038 372.445 121.542 372.612 121.743 372.68C123.154 373.149 126.983 375.682 127.806 376.236L132.81 378.333C134.305 378.936 136.539 379.675 139.326 380.077C140.418 380.228 142.131 380.278 145.49 380.379C145.49 380.379 147.539 380.429 153.148 380.278C155.415 380.228 157.044 380.161 157.783 379.205Z" fill="#202060"/>
<path d="M108.681 311.033C112.845 310.916 117.027 310.798 121.192 310.664C121.511 310.647 121.511 310.178 121.192 310.161C117.615 310.043 114.038 309.926 110.461 309.792C110.461 309.96 110.461 310.127 110.461 310.295C112.476 310.278 114.508 310.261 116.523 310.261C116.842 310.261 116.842 309.758 116.523 309.758C114.609 309.725 112.677 309.691 110.763 309.658C110.444 309.658 110.444 310.161 110.763 310.161C112.862 310.211 114.945 310.245 117.044 310.295C117.044 310.127 117.044 309.96 117.044 309.792C113.92 309.741 110.797 309.691 107.656 309.641C107.337 309.641 107.337 310.127 107.656 310.144C109.386 310.211 111.116 310.278 112.845 310.362C112.845 310.194 112.845 310.027 112.845 309.859C110.629 310.094 108.429 310.329 106.212 310.563C106.212 310.731 106.212 310.899 106.212 311.067C107.337 310.949 108.445 310.815 109.571 310.698C109.823 310.664 109.94 310.245 109.638 310.211C108.429 310.027 107.219 309.842 106.027 309.658C105.775 309.624 105.557 309.993 105.826 310.11C106.027 310.194 106.229 310.295 106.43 310.379C106.481 310.228 106.514 310.06 106.564 309.909C105.926 309.842 105.288 309.758 104.65 309.691C104.364 309.658 104.314 310.11 104.583 310.178C105.708 310.496 106.816 310.865 107.958 311.1C107.975 310.932 108.009 310.765 108.026 310.614C107.119 310.714 106.229 310.832 105.322 310.932C105.003 310.966 104.986 311.436 105.322 311.436C106.581 311.419 107.858 311.402 109.117 311.385C109.436 311.385 109.436 310.882 109.117 310.882C108.311 310.865 107.505 310.865 106.699 310.849C106.699 311.016 106.699 311.184 106.699 311.352C109.403 311.301 112.106 311.234 114.81 311.184C115.129 311.184 115.129 310.698 114.81 310.681C114.374 310.664 113.937 310.647 113.5 310.614C113.5 310.781 113.5 310.949 113.5 311.117C116.137 311.134 118.757 311.167 121.393 311.184C121.393 311.016 121.393 310.849 121.393 310.681C119.563 310.748 117.749 310.815 115.919 310.865C115.6 310.882 115.6 311.369 115.919 311.369C118.152 311.369 120.386 311.385 122.619 311.385C122.619 311.218 122.619 311.05 122.619 310.882C120.554 310.916 118.488 310.949 116.423 310.966C116.103 310.966 116.103 311.469 116.423 311.469C119.613 311.469 122.787 311.469 125.978 311.469C125.978 311.301 125.978 311.134 125.978 310.966C124.013 311.083 122.048 311.201 120.084 311.318C120.084 311.486 120.084 311.654 120.084 311.821C123.174 311.503 126.264 311.184 129.354 310.865C129.673 310.832 129.69 310.379 129.354 310.362C128.564 310.329 127.758 310.278 126.969 310.245C126.969 310.412 126.969 310.58 126.969 310.748C127.54 310.765 128.111 310.765 128.682 310.781C128.665 310.614 128.632 310.446 128.615 310.295C128.01 310.48 127.406 310.681 126.784 310.865C126.482 310.966 126.6 311.452 126.919 311.352C128.128 310.983 129.337 310.597 130.546 310.228C130.815 310.144 130.764 309.741 130.479 309.741C128.85 309.708 127.221 309.658 125.575 309.624C125.306 309.624 125.222 310.077 125.508 310.11C126.079 310.211 126.65 310.295 127.221 310.396C127.238 310.228 127.271 310.06 127.288 309.909C125.81 309.993 124.332 310.094 122.855 310.178C122.535 310.194 122.535 310.681 122.855 310.681C124.467 310.714 126.079 310.748 127.691 310.781C127.691 310.614 127.691 310.446 127.691 310.278C126.935 310.312 126.18 310.362 125.424 310.396C125.105 310.412 125.105 310.899 125.424 310.899C126.935 310.865 128.346 310.714 129.841 310.513C130.16 310.463 130.026 309.976 129.706 310.027C128.279 310.228 126.885 310.362 125.424 310.396C125.424 310.563 125.424 310.731 125.424 310.899C126.18 310.865 126.935 310.815 127.691 310.781C128.01 310.765 128.01 310.278 127.691 310.278C126.079 310.245 124.467 310.211 122.855 310.178C122.855 310.345 122.855 310.513 122.855 310.681C124.332 310.597 125.81 310.496 127.288 310.412C127.557 310.396 127.658 309.976 127.355 309.926C126.784 309.825 126.213 309.741 125.642 309.641C125.626 309.809 125.592 309.976 125.575 310.127C127.204 310.161 128.833 310.211 130.479 310.245C130.462 310.077 130.429 309.909 130.412 309.758C129.203 310.127 127.993 310.513 126.784 310.882C126.835 311.05 126.868 311.201 126.919 311.369C127.523 311.184 128.128 310.983 128.749 310.798C129.018 310.714 128.968 310.312 128.682 310.312C128.111 310.295 127.54 310.295 126.969 310.278C126.65 310.278 126.65 310.765 126.969 310.781C127.758 310.815 128.564 310.865 129.354 310.899C129.354 310.731 129.354 310.563 129.354 310.396C126.264 310.714 123.174 311.033 120.084 311.352C119.764 311.385 119.748 311.872 120.084 311.855C122.048 311.738 124.013 311.62 125.978 311.503C126.297 311.486 126.297 311 125.978 311C122.787 311 119.613 311 116.423 311C116.423 311.167 116.423 311.335 116.423 311.503C118.488 311.469 120.554 311.436 122.619 311.419C122.939 311.419 122.939 310.916 122.619 310.916C120.386 310.916 118.152 310.899 115.919 310.899C115.919 311.067 115.919 311.234 115.919 311.402C117.749 311.335 119.563 311.268 121.393 311.218C121.713 311.201 121.713 310.714 121.393 310.714C118.757 310.698 116.137 310.664 113.5 310.647C113.181 310.647 113.181 311.134 113.5 311.15C113.937 311.167 114.374 311.184 114.81 311.218C114.81 311.05 114.81 310.882 114.81 310.714C112.106 310.765 109.403 310.832 106.699 310.882C106.38 310.882 106.38 311.385 106.699 311.385C107.505 311.402 108.311 311.402 109.117 311.419C109.117 311.251 109.117 311.083 109.117 310.916C107.858 310.932 106.581 310.949 105.322 310.966C105.322 311.134 105.322 311.301 105.322 311.469C106.229 311.369 107.119 311.251 108.026 311.15C108.277 311.117 108.395 310.714 108.093 310.664C106.951 310.429 105.826 310.06 104.717 309.741C104.7 309.909 104.667 310.077 104.65 310.228C105.288 310.295 105.926 310.379 106.564 310.446C106.816 310.48 106.917 310.077 106.699 309.976C106.497 309.892 106.296 309.792 106.094 309.708C106.027 309.859 105.96 310.01 105.893 310.161C107.102 310.345 108.311 310.53 109.503 310.714C109.52 310.547 109.554 310.379 109.571 310.228C108.445 310.345 107.337 310.48 106.212 310.597C105.893 310.63 105.893 311.134 106.212 311.1C108.429 310.865 110.629 310.63 112.845 310.396C113.164 310.362 113.181 309.909 112.845 309.892C111.116 309.825 109.386 309.758 107.656 309.674C107.656 309.842 107.656 310.01 107.656 310.178C110.78 310.228 113.903 310.278 117.044 310.329C117.363 310.329 117.363 309.825 117.044 309.825C114.945 309.775 112.862 309.741 110.763 309.691C110.763 309.859 110.763 310.027 110.763 310.194C112.677 310.228 114.609 310.261 116.523 310.295C116.523 310.127 116.523 309.96 116.523 309.792C114.508 309.809 112.476 309.825 110.461 309.825C110.142 309.825 110.142 310.312 110.461 310.329C114.038 310.446 117.615 310.563 121.192 310.698C121.192 310.53 121.192 310.362 121.192 310.194C117.027 310.312 112.845 310.429 108.681 310.563C108.361 310.53 108.361 311.033 108.681 311.033Z" fill="#40009B"/>
<path d="M128.949 310.431C129.722 310.045 130.494 309.642 131.267 309.256C131.149 309.139 131.032 309.022 130.914 308.904C130.242 309.944 129.033 310.414 127.824 310.129C127.555 310.062 127.371 310.447 127.623 310.582C127.807 310.682 127.992 310.783 128.177 310.884C128.194 310.733 128.21 310.582 128.244 310.431C127.908 310.514 127.572 310.598 127.219 310.682C127.001 310.733 126.984 311.035 127.152 311.135C127.219 311.169 127.27 311.219 127.337 311.253C127.303 311.135 127.27 311.018 127.253 310.9C127.169 311.051 127.085 311.202 127.001 311.353C126.917 311.487 126.984 311.689 127.152 311.722C127.589 311.823 127.942 311.773 128.311 311.487C128.462 311.37 128.479 311.169 128.311 311.051C127.455 310.447 126.514 310.145 125.456 310.162C125.137 310.162 125.137 310.665 125.456 310.665C126.413 310.649 127.27 310.934 128.042 311.487C128.042 311.336 128.042 311.202 128.042 311.051C127.841 311.253 127.589 311.303 127.27 311.236C127.32 311.353 127.371 311.487 127.421 311.605C127.505 311.454 127.589 311.303 127.673 311.152C127.74 311.034 127.707 310.884 127.589 310.8C127.522 310.766 127.471 310.716 127.404 310.682C127.387 310.833 127.371 310.984 127.337 311.135C127.673 311.051 128.009 310.967 128.361 310.884C128.563 310.833 128.613 310.531 128.429 310.431C128.244 310.33 128.059 310.229 127.874 310.129C127.807 310.28 127.74 310.431 127.673 310.582C129.1 310.934 130.528 310.364 131.317 309.139C131.468 308.921 131.183 308.686 130.965 308.787C130.192 309.173 129.419 309.575 128.647 309.961C128.412 310.145 128.664 310.582 128.949 310.431Z" fill="#40009B"/>
<path d="M127.253 309.743C126.263 309.777 125.272 309.81 124.281 309.844C123.945 309.86 123.962 310.313 124.281 310.347C125.305 310.448 126.33 310.548 127.371 310.632C127.371 310.464 127.371 310.297 127.371 310.129C124.264 310.146 121.157 310.179 118.05 310.196C118.05 310.364 118.05 310.531 118.05 310.699C119.444 310.582 120.838 310.448 122.232 310.33C122.551 310.297 122.551 309.844 122.232 309.827C120.687 309.726 119.142 309.626 117.597 309.525C117.597 309.693 117.597 309.86 117.597 310.028C118.806 309.928 119.998 309.827 121.208 309.726C121.527 309.693 121.527 309.189 121.208 309.223C120.066 309.307 118.94 309.408 117.798 309.491C117.479 309.525 117.479 309.978 117.798 309.995C119.73 310.129 121.644 310.246 123.575 310.38C123.575 310.213 123.575 310.045 123.575 309.877C121.779 310.028 119.998 310.196 118.201 310.347C117.882 310.38 117.866 310.833 118.201 310.85C120.502 310.917 122.786 311.001 125.087 311.068C125.087 310.9 125.087 310.733 125.087 310.565C123.945 310.598 122.803 310.632 121.661 310.666C121.678 310.833 121.711 311.001 121.728 311.152C122.618 310.9 123.492 310.632 124.382 310.38C124.634 310.313 124.617 309.978 124.382 309.894C124.063 309.793 123.743 309.693 123.441 309.575C123.424 309.743 123.391 309.911 123.374 310.062C123.777 310.028 124.163 309.978 124.566 309.944C124.55 309.777 124.516 309.609 124.499 309.458C124.113 309.508 123.743 309.575 123.357 309.626C123.055 309.676 123.172 310.095 123.424 310.112C124.029 310.179 124.617 310.229 125.221 310.297C125.221 310.129 125.221 309.961 125.221 309.793C120.334 309.777 115.464 310.313 110.695 311.353C110.409 311.42 110.476 311.84 110.762 311.84C110.997 311.84 111.232 311.857 111.467 311.857C111.803 311.873 111.786 311.387 111.467 311.353C109.989 311.219 108.528 311.068 107.05 310.934C107.05 311.102 107.05 311.269 107.05 311.437C107.655 311.437 108.259 311.437 108.864 311.437C109.183 311.437 109.183 310.951 108.864 310.934C108.259 310.917 107.638 310.884 107.034 310.867C107.034 311.035 107.034 311.202 107.034 311.37C108.092 311.353 109.15 311.353 110.208 311.337C110.476 311.337 110.56 310.884 110.275 310.85C108.293 310.515 106.311 310.196 104.313 309.86C103.994 309.81 103.859 310.297 104.179 310.347C105.875 310.649 107.554 310.951 109.25 311.253C109.569 311.303 109.704 310.833 109.385 310.766C107.823 310.414 106.261 310.078 104.699 309.726C104.38 309.659 104.246 310.146 104.565 310.213C106.127 310.565 107.688 310.9 109.25 311.253C109.301 311.085 109.334 310.934 109.385 310.766C107.688 310.464 106.009 310.162 104.313 309.86C104.263 310.028 104.229 310.179 104.179 310.347C106.16 310.682 108.142 311.001 110.14 311.337C110.157 311.169 110.191 311.001 110.208 310.85C109.15 310.867 108.092 310.867 107.034 310.884C106.714 310.884 106.714 311.37 107.034 311.387C107.638 311.404 108.259 311.437 108.864 311.454C108.864 311.286 108.864 311.118 108.864 310.951C108.259 310.951 107.655 310.951 107.05 310.951C106.714 310.951 106.731 311.42 107.05 311.454C108.528 311.588 109.989 311.739 111.467 311.873C111.467 311.706 111.467 311.538 111.467 311.37C111.232 311.37 110.997 311.353 110.762 311.353C110.779 311.521 110.812 311.689 110.829 311.84C115.565 310.8 120.385 310.297 125.221 310.297C125.557 310.297 125.54 309.827 125.221 309.793C124.617 309.726 124.029 309.676 123.424 309.609C123.441 309.777 123.475 309.944 123.492 310.095C123.878 310.045 124.247 309.978 124.634 309.928C124.919 309.894 124.852 309.408 124.566 309.441C124.163 309.475 123.777 309.525 123.374 309.558C123.088 309.592 123.021 309.961 123.307 310.045C123.626 310.146 123.945 310.246 124.247 310.364C124.247 310.196 124.247 310.045 124.247 309.877C123.357 310.129 122.484 310.397 121.594 310.649C121.325 310.733 121.375 311.152 121.661 311.135C122.803 311.102 123.945 311.068 125.087 311.035C125.406 311.018 125.406 310.548 125.087 310.531C122.786 310.464 120.502 310.38 118.201 310.313C118.201 310.481 118.201 310.649 118.201 310.817C119.998 310.666 121.779 310.498 123.575 310.347C123.895 310.313 123.895 309.86 123.575 309.844C121.644 309.709 119.73 309.592 117.798 309.458C117.798 309.626 117.798 309.793 117.798 309.961C118.94 309.877 120.066 309.777 121.208 309.693C121.208 309.525 121.208 309.357 121.208 309.189C119.998 309.29 118.806 309.391 117.597 309.491C117.278 309.525 117.278 309.978 117.597 309.995C119.142 310.095 120.687 310.196 122.232 310.297C122.232 310.129 122.232 309.961 122.232 309.793C120.838 309.911 119.444 310.045 118.05 310.162C117.731 310.196 117.714 310.666 118.05 310.666C121.157 310.649 124.264 310.615 127.371 310.598C127.707 310.598 127.69 310.129 127.371 310.095C126.346 309.995 125.322 309.894 124.281 309.81C124.281 309.978 124.281 310.146 124.281 310.313C125.272 310.28 126.263 310.246 127.253 310.213C127.572 310.229 127.572 309.726 127.253 309.743Z" fill="#40009B"/>
<path d="M105.505 309.992C105.959 310.428 106.429 310.847 106.882 311.283C106.966 311.149 107.05 310.998 107.134 310.864C106.228 310.512 105.321 310.159 104.414 309.824C104.162 309.723 104.011 310.075 104.162 310.243C105.875 312.155 108.579 311.635 110.812 311.216C113.869 310.646 116.925 310.075 119.982 309.505C120.267 309.455 120.2 309.002 119.915 309.019C118.101 309.052 116.287 309.103 114.49 309.136C114.49 309.304 114.49 309.472 114.49 309.639C115.834 309.606 117.16 309.572 118.504 309.522C118.823 309.505 118.823 309.019 118.504 309.019C117.328 309.002 116.153 308.985 114.977 308.968C114.977 309.136 114.977 309.304 114.977 309.472C115.632 309.404 116.27 309.354 116.925 309.287C117.244 309.254 117.244 308.75 116.925 308.784C116.27 308.851 115.632 308.901 114.977 308.968C114.658 309.002 114.641 309.472 114.977 309.472C116.153 309.488 117.328 309.505 118.504 309.522C118.504 309.354 118.504 309.186 118.504 309.019C117.16 309.052 115.834 309.086 114.49 309.136C114.171 309.153 114.171 309.639 114.49 309.639C116.304 309.606 118.118 309.555 119.915 309.522C119.898 309.354 119.864 309.186 119.847 309.035C117.211 309.522 114.591 310.025 111.954 310.512C109.586 310.948 106.379 312.005 104.498 309.908C104.414 310.042 104.33 310.193 104.246 310.327C105.153 310.679 106.06 311.032 106.966 311.367C107.202 311.451 107.386 311.115 107.218 310.948C106.765 310.512 106.295 310.092 105.841 309.656C105.623 309.404 105.27 309.757 105.505 309.992Z" fill="#40009B"/>
<path d="M117.079 309.356C118.271 309.306 119.463 309.239 120.656 309.189C120.639 309.021 120.605 308.853 120.589 308.702C116.592 309.34 112.595 309.977 108.598 310.614C108.296 310.665 108.413 311.084 108.665 311.101C110.344 311.302 112.041 311.487 113.72 311.688C113.72 311.52 113.72 311.352 113.72 311.185C113.166 311.235 112.628 311.269 112.074 311.319C111.805 311.336 111.705 311.755 112.007 311.805C112.427 311.889 112.847 311.973 113.267 312.057C113.283 311.889 113.317 311.722 113.334 311.571C112.309 311.604 111.285 311.621 110.244 311.654C109.925 311.671 109.925 312.158 110.244 312.158C110.848 312.158 111.453 312.174 112.057 312.174C112.057 312.007 112.057 311.839 112.057 311.671C110.899 311.671 109.757 311.654 108.598 311.654C108.598 311.822 108.598 311.99 108.598 312.158C109.068 312.107 109.521 312.057 109.992 311.99C110.311 311.956 110.328 311.487 109.992 311.487C109.74 311.487 109.488 311.487 109.236 311.487C108.917 311.487 108.917 311.99 109.236 311.99C110.529 312.023 111.822 312.057 113.099 312.091C113.099 311.923 113.099 311.755 113.099 311.587C112.427 311.587 111.772 311.587 111.1 311.604C111.151 311.755 111.184 311.923 111.234 312.074C111.352 312.007 111.486 311.956 111.604 311.889C111.856 311.772 111.705 311.436 111.47 311.42C110.277 311.319 109.102 311.235 107.909 311.134C107.926 311.302 107.96 311.47 107.976 311.621C108.346 311.52 108.715 311.42 109.085 311.302C109.034 311.134 109.001 310.983 108.951 310.816C108.665 310.933 108.396 311.034 108.111 311.151C107.842 311.252 107.876 311.621 108.178 311.638C110.361 311.822 112.544 312.007 114.728 312.174C114.728 312.007 114.728 311.839 114.728 311.671C113.25 311.722 111.772 311.772 110.294 311.822C109.975 311.839 109.975 312.325 110.294 312.325C112.477 312.342 114.66 312.359 116.86 312.392C116.86 312.225 116.86 312.057 116.86 311.889C115.399 311.973 113.938 312.057 112.477 312.141C112.158 312.158 112.158 312.627 112.477 312.644C114.795 312.745 117.096 312.845 119.413 312.963C119.413 312.795 119.413 312.627 119.413 312.46C118.859 312.51 118.288 312.577 117.734 312.627C117.415 312.661 117.415 313.164 117.734 313.131C119.111 312.996 120.471 312.862 121.848 312.745C122.167 312.711 122.184 312.258 121.848 312.242C119.665 312.191 117.465 312.124 115.282 312.074C115.282 312.242 115.282 312.409 115.282 312.577C115.903 312.527 116.525 312.493 117.163 312.443C117.482 312.426 117.499 311.94 117.163 311.94C116.726 311.94 116.306 311.94 115.87 311.94C115.551 311.94 115.551 312.443 115.87 312.443C117.18 312.46 118.506 312.493 119.816 312.51C119.816 312.342 119.816 312.174 119.816 312.007C118.473 312.023 117.146 312.023 115.802 312.04C115.802 312.208 115.802 312.376 115.802 312.543C119.044 312.443 122.285 312.325 125.526 312.225C125.526 312.057 125.526 311.889 125.526 311.722C124.283 311.872 123.041 312.023 121.781 312.191C121.462 312.225 121.462 312.728 121.781 312.694C123.024 312.543 124.267 312.392 125.526 312.225C125.845 312.191 125.862 311.705 125.526 311.722C122.285 311.822 119.044 311.94 115.802 312.04C115.483 312.057 115.483 312.543 115.802 312.543C117.146 312.527 118.473 312.527 119.816 312.51C120.135 312.51 120.135 312.007 119.816 312.007C118.506 311.99 117.18 311.956 115.87 311.94C115.87 312.107 115.87 312.275 115.87 312.443C116.306 312.443 116.726 312.443 117.163 312.443C117.163 312.275 117.163 312.107 117.163 311.94C116.541 311.99 115.92 312.023 115.282 312.074C114.963 312.091 114.946 312.56 115.282 312.577C117.465 312.627 119.665 312.694 121.848 312.745C121.848 312.577 121.848 312.409 121.848 312.242C120.471 312.376 119.111 312.51 117.734 312.627C117.734 312.795 117.734 312.963 117.734 313.131C118.288 313.08 118.859 313.013 119.413 312.963C119.732 312.929 119.749 312.476 119.413 312.46C117.096 312.359 114.795 312.258 112.477 312.141C112.477 312.309 112.477 312.476 112.477 312.644C113.938 312.56 115.399 312.476 116.86 312.392C117.18 312.376 117.18 311.889 116.86 311.889C114.677 311.872 112.494 311.856 110.294 311.822C110.294 311.99 110.294 312.158 110.294 312.325C111.772 312.275 113.25 312.225 114.728 312.174C115.063 312.158 115.047 311.705 114.728 311.671C112.544 311.487 110.361 311.302 108.178 311.134C108.195 311.302 108.228 311.47 108.245 311.621C108.531 311.503 108.799 311.403 109.085 311.285C109.37 311.168 109.27 310.715 108.951 310.799C108.581 310.9 108.212 311 107.842 311.118C107.557 311.202 107.641 311.587 107.909 311.604C109.102 311.705 110.277 311.789 111.47 311.889C111.419 311.738 111.386 311.571 111.335 311.42C111.218 311.487 111.083 311.537 110.966 311.604C110.731 311.722 110.848 312.074 111.1 312.074C111.772 312.074 112.427 312.074 113.099 312.057C113.418 312.057 113.418 311.554 113.099 311.554C111.805 311.52 110.512 311.487 109.236 311.453C109.236 311.621 109.236 311.789 109.236 311.956C109.488 311.956 109.74 311.956 109.992 311.956C109.992 311.789 109.992 311.621 109.992 311.453C109.521 311.503 109.068 311.554 108.598 311.621C108.279 311.654 108.262 312.124 108.598 312.124C109.757 312.124 110.899 312.141 112.057 312.141C112.376 312.141 112.376 311.638 112.057 311.638C111.453 311.638 110.848 311.621 110.244 311.621C110.244 311.789 110.244 311.956 110.244 312.124C111.268 312.091 112.292 312.074 113.334 312.04C113.602 312.04 113.686 311.604 113.401 311.554C112.981 311.47 112.561 311.386 112.141 311.302C112.125 311.47 112.091 311.638 112.074 311.789C112.628 311.738 113.166 311.705 113.72 311.654C114.056 311.621 114.039 311.185 113.72 311.151C112.041 310.95 110.344 310.765 108.665 310.564C108.682 310.732 108.715 310.9 108.732 311.051C112.729 310.413 116.726 309.776 120.723 309.138C121.009 309.088 120.941 308.635 120.656 308.652C119.463 308.702 118.271 308.769 117.079 308.82C116.76 308.87 116.76 309.373 117.079 309.356Z" fill="#40009B"/>
<path d="M129.723 310.699C128.581 310.783 127.422 310.867 126.28 310.95C125.961 310.967 125.961 311.47 126.28 311.454C127.422 311.37 128.581 311.286 129.723 311.202C130.042 311.169 130.042 310.665 129.723 310.699Z" fill="#40009B"/>
<path d="M115.667 313.131C117.498 313.131 119.328 313.115 121.142 313.115C121.461 313.115 121.461 312.611 121.142 312.611C119.311 312.611 117.481 312.628 115.667 312.628C115.348 312.628 115.348 313.131 115.667 313.131Z" fill="#40009B"/>
<path d="M131.452 306.589C132.157 319.538 132.862 332.488 133.568 345.421C133.584 345.74 134.088 345.74 134.071 345.421C133.366 332.472 132.661 319.522 131.955 306.589C131.939 306.27 131.435 306.27 131.452 306.589Z" fill="#FFD740"/>
<path d="M105.792 306.842C105.087 319.791 104.382 332.741 103.676 345.674C103.659 345.993 104.163 345.993 104.18 345.674C104.885 332.724 105.591 319.775 106.296 306.842C106.313 306.523 105.809 306.523 105.792 306.842Z" fill="#FFD740"/>
</svg>
