<svg width="167" height="211" viewBox="0 0 167 211" fill="none" xmlns="http://www.w3.org/2000/svg">
<path d="M21.1179 132.592H66.6452H107.841H144.674L148.721 157.094C148.721 157.094 153.969 181.059 153.969 189.185C153.969 197.31 144.231 200.282 144.231 200.282L136.96 203.38L127 206.257L121.025 207.743L112.994 209.135L102.498 210.083L90.2625 211H80.7144H73.5691L65.0011 210.494L56.4332 209.419L47.3277 208.028L39.2024 206.732L32.8159 204.708L25.3229 202.021L19.0312 198.796L14.0359 194.844L11.4434 190.228L21.1179 132.592Z" fill="#202060"/>
<path d="M83.2447 163.512C128.906 163.512 165.921 126.978 165.921 81.9109C165.921 36.8437 128.906 0.30957 83.2447 0.30957C37.5838 0.30957 0.568359 36.8437 0.568359 81.9109C0.568359 126.978 37.5838 163.512 83.2447 163.512Z" fill="#F777CE"/>
<path d="M72.1797 80.7729C72.1797 108.943 107.432 134.963 129.089 149.823C152.706 135.753 166.617 110.429 166.617 82.2272C166.617 54.0256 153.275 27.2783 130.037 14.6318C108.38 29.4914 72.1797 52.5712 72.1797 80.7729Z" fill="#202060"/>
<path d="M90.1058 14.8854L85.1736 25.5717C84.8575 26.2989 84.8891 27.1209 85.3001 27.7848L91.402 37.8388C92.4454 39.5461 91.0542 41.6643 89.0308 41.443L77.238 40.1151C76.4476 40.0203 75.6572 40.3364 75.1197 40.9371L67.3105 49.7897C65.9826 51.2756 63.5166 50.6433 63.1056 48.6831L60.7343 37.2065C60.5763 36.4477 60.0388 35.7837 59.3116 35.4676L48.3724 30.8832C46.5071 30.0928 46.3806 27.5635 48.1195 26.5834L58.458 20.7977C59.1535 20.4183 59.5962 19.7227 59.691 18.9323L60.7343 7.26593C60.924 5.27411 63.2952 4.35724 64.7812 5.71673L73.5389 13.6524C74.1396 14.1899 74.93 14.4112 75.7204 14.2215L87.2919 11.5974C89.3154 11.0915 90.9278 13.0833 90.1058 14.8854Z" fill="#FFD740"/>
<path d="M58.68 67.8112L53.7479 78.4975C53.4317 79.2247 53.4633 80.0467 53.8743 80.7106L59.9763 90.7645C61.0196 92.4718 59.6285 94.5901 57.605 94.3688L45.8122 93.0409C45.0218 92.9461 44.2314 93.2622 43.6939 93.8629L35.8847 102.715C34.5569 104.201 32.0908 103.569 31.6798 101.609L29.3086 90.1322C29.1505 89.3734 28.613 88.7095 27.8858 88.3933L16.9466 83.809C15.0813 83.0186 14.9548 80.4893 16.6937 79.5092L27.0322 73.7234C27.7278 73.3441 28.1704 72.6485 28.2652 71.8581L29.3086 60.1917C29.4983 58.1999 31.8695 57.283 33.3554 58.6425L42.1131 66.5782C42.7138 67.1156 43.5042 67.337 44.2946 67.1473L55.8662 64.5231C57.8896 64.0489 59.502 66.0091 58.68 67.8112Z" fill="#FFD740"/>
<path d="M83.8147 120.925L78.8826 131.612C78.5665 132.339 78.5981 133.161 79.0091 133.825L85.111 143.879C86.1544 145.586 84.7632 147.704 82.7398 147.483L70.947 146.155C70.1566 146.06 69.3662 146.376 68.8287 146.977L61.0195 155.83C59.6916 157.316 57.2256 156.683 56.8145 154.723L54.4433 143.246C54.2853 142.488 53.7478 141.824 53.0206 141.508L42.0814 136.923C40.2161 136.133 40.0896 133.604 41.8285 132.623L52.167 126.838C52.8625 126.458 53.3051 125.763 53.4 124.972L54.4433 113.306C54.633 111.314 57.0042 110.397 58.4902 111.757L67.2479 119.692C67.8486 120.23 68.639 120.451 69.4294 120.262L81.0009 117.637C83.0244 117.132 84.6684 119.092 83.8147 120.925Z" fill="#FFD740"/>
</svg>
