<svg width="274" height="311" viewBox="0 0 274 311" fill="none" xmlns="http://www.w3.org/2000/svg">
<path d="M68.7441 194.801L137.649 194.388L206.554 193.976V246.503C206.623 269.054 206.554 285.486 206.554 288.717C206.554 289.198 206.554 290.505 206.001 291.948C205.241 293.942 203.997 295.18 202.614 296.486C199.021 299.855 195.012 301.367 192.731 302.261C189.76 303.43 187.272 304.255 185.267 304.805C182.848 305.561 179.6 306.455 175.592 307.349C167.989 309.068 162.184 309.618 156.931 310.099C150.78 310.649 143.524 311.062 135.299 310.993C122.79 310.855 113.46 309.618 111.041 309.343C101.849 308.105 96.4581 306.661 88.7867 304.599C88.7867 304.599 81.7372 302.743 74.826 298.205C73.3055 297.174 71.3013 295.73 69.919 293.255C69.297 292.223 68.9515 291.261 68.8133 290.642L68.7441 273.454V232.34L68.9515 208.207L68.7441 194.801Z" fill="#202060"/>
<path d="M68.6758 212.193V211.368V199.955V190.33L81.5306 193.011L100.744 195.624L122.169 197.205L141.036 197.549L159.144 196.93L180.292 195.005L195.98 192.53L206.486 190.33V202.087V212.675L204.619 215.975L199.505 220.444L187.203 225.875L174.901 228.969L163.498 230.825L147.256 232.407H129.08L111.525 230.825L95.4913 227.938L83.8113 224.363L75.9326 220.581L73.5827 218.931L71.4403 217.075L69.5742 214.462" fill="#40009B"/>
<path d="M137.58 198.993C200.56 198.993 251.615 183.141 251.615 163.585C251.615 144.03 200.56 128.178 137.58 128.178C74.6002 128.178 23.5449 144.03 23.5449 163.585C23.5449 183.141 74.6002 198.993 137.58 198.993Z" fill="#202060"/>
<path d="M137.577 173.83C113.181 173.83 89.2678 171.355 70.1928 166.886C70.1237 166.886 70.1237 166.886 70.0546 166.886C66.599 166.061 66.599 161.179 70.0546 160.354C70.1237 160.354 70.1237 160.354 70.1928 160.354C89.2678 155.885 113.181 153.41 137.577 153.41C161.974 153.41 185.887 155.885 204.962 160.354C205.031 160.354 205.031 160.354 205.1 160.354C208.555 161.179 208.555 166.061 205.1 166.886C205.031 166.886 205.031 166.886 204.962 166.886C185.956 171.355 161.974 173.83 137.577 173.83Z" fill="#FFD740"/>
<g clip-path="url(#clip0)">
<path d="M139.244 199.817L143.239 207.885C143.519 208.404 144.038 208.803 144.597 208.883L153.505 210.162C155.023 210.361 155.583 212.238 154.504 213.277L148.113 219.588C147.673 220.027 147.473 220.626 147.593 221.185L149.111 230.052C149.351 231.53 147.793 232.689 146.475 231.97L138.485 227.816C137.966 227.536 137.327 227.536 136.767 227.816L128.818 232.01C127.46 232.729 125.902 231.57 126.181 230.092L127.699 221.225C127.819 220.626 127.619 220.027 127.18 219.628L120.708 213.317C119.63 212.278 120.229 210.401 121.707 210.201L130.615 208.923C131.215 208.843 131.734 208.444 131.974 207.925L135.968 199.857C136.648 198.499 138.605 198.499 139.244 199.817Z" fill="#202060"/>
<path d="M138.804 204.21L141.68 210.042C141.88 210.441 142.239 210.681 142.679 210.761L149.11 211.679C150.189 211.839 150.628 213.157 149.829 213.916L145.155 218.469C144.836 218.789 144.716 219.188 144.796 219.628L145.874 226.018C146.074 227.097 144.916 227.896 143.957 227.416L138.244 224.381C137.845 224.181 137.406 224.181 137.006 224.381L131.254 227.416C130.295 227.935 129.176 227.097 129.336 226.018L130.415 219.628C130.495 219.188 130.335 218.749 130.055 218.469L125.421 213.916C124.622 213.157 125.062 211.839 126.14 211.679L132.572 210.761C133.011 210.681 133.371 210.441 133.571 210.042L136.447 204.21C136.926 203.252 138.324 203.252 138.804 204.21Z" fill="#FFD740"/>
</g>
<path d="M231.222 155.299C232.574 155.789 234.109 155.05 234.594 153.705L250.468 108.013L245.456 106.28L229.582 151.972C229.166 153.3 229.871 154.809 231.222 155.299Z" fill="#40009B"/>
<path d="M248.3 107.221L232.426 152.914C232.099 153.885 231.202 154.529 230.269 154.629C230.569 154.918 230.894 155.164 231.294 155.279C232.646 155.769 234.182 155.03 234.666 153.684L250.54 107.992L245.529 106.259L248.3 107.221Z" fill="#40009B"/>
<path d="M267.201 84.9914C266.179 85.8524 265.632 86.6979 265.212 87.3256C264.37 88.5812 263.948 89.6149 263.602 90.5179C263.413 91.0474 263.117 91.8633 262.738 93.3281C262.536 94.0823 262.208 95.46 261.732 98.61C261.471 100.375 261.098 102.134 260.882 103.924C260.806 104.461 260.678 105.49 260.137 106.629C259.622 107.725 259 108.295 258.856 108.444C258.499 108.76 257.978 109.156 257.076 109.506C256.612 109.702 255.133 110.242 252.266 110.153C250.819 110.131 249.373 110.109 247.508 109.496C245.443 108.827 244.055 107.793 242.949 106.98C241.561 105.947 240.498 105.159 239.612 103.661C239.219 103.027 238.608 101.862 238.58 100.394C238.557 99.22 238.947 98.3423 239.764 96.7244C241.116 94.0798 242.241 92.233 242.794 91.2752C244.025 89.1418 244.855 87.7051 245.586 85.6308C246.259 83.7559 246.876 82.0804 246.85 79.8011C246.836 77.703 246.257 75.9757 245.821 74.9112L245.758 74.8171L245.871 74.8241L246.847 75.1555L248.687 75.8112L249.663 76.1425L249.997 78.1929L250.297 81.2108L250.222 84.0701L250.063 85.2554L249.659 86.7638L250.376 85.32L251.351 83.3285L252.552 80.9452L253.52 79.0661L254.161 77.753L254.893 78.0015L256.113 78.4157L257.09 78.747L257.49 78.8622L257.273 80.6527L256.929 83.8786L256.782 85.2451L256.68 86.2309L256.654 86.6803L257.507 85.6059L258.926 83.7549L260.144 82.2521L260.998 81.1777L261.632 80.3827L261.11 81.5905L260.355 83.3025L259.499 85.1887L258.851 86.6142L258.411 87.579L259.297 86.3487L260.377 84.8824L261.676 83.1367L262.8 81.6957L263.34 80.9626L264.316 81.294L266.268 81.9567L268.465 82.7022L269.791 83.2357L267.201 84.9914Z" fill="#202060"/>
<path d="M245.04 107.605L249.983 109.356C251.491 109.878 252.258 111.482 251.741 112.983L251.684 113.183C251.168 114.684 249.563 115.441 248.055 114.919L243.112 113.168C241.604 112.646 240.838 111.042 241.354 109.541L241.411 109.341C241.902 107.883 243.576 107.108 245.04 107.605Z" fill="#FFD740"/>
<path d="M251.714 109.894L247.327 109.102L245.106 107.994L243.255 106.751L242.464 104.785L242.187 102.535L242.271 101.481L242.543 100.302L242.757 99.7294L242.933 99.4247L243.24 99.1957L243.584 99.1044L243.966 99.1507L244.316 99.3529L244.635 99.711L244.747 100.124L244.652 100.592L244.368 101.589L244.222 102.549L244.258 103.499L244.431 104.411L244.768 105.244L245.429 106.323L246.004 106.945L246.735 107.599L247.038 106.671L247.422 105.5C247.422 105.5 247.743 104.64 247.724 104.571C247.75 104.528 247.932 104.111 247.932 104.111L248.29 103.795L248.59 103.678L249.135 103.644L249.635 103.991L249.922 104.505L249.878 104.886L249.632 105.615L249.304 106.586L249.059 107.315L248.838 108.001L248.781 108.2L249.257 108.185L250.397 108.03L251.688 107.614L252.979 106.793L253.557 106.197L254.298 105.116L254.713 104.194L254.952 103.578L255.285 103.305L255.836 103.159L256.299 103.368L256.705 103.777L256.741 104.321L256.389 105.336L255.678 106.667L254.705 107.847L253.965 108.523L253.213 109.017L252.699 109.301L251.714 109.894Z" fill="#FFD740"/>
<path d="M235.876 150.264L230.751 148.525L230.512 149.141L235.655 150.95L235.876 150.264Z" fill="#FFD740"/>
<path d="M246.708 119.076L241.583 117.336L241.388 117.978L246.487 119.761L246.708 119.076Z" fill="#FFD740"/>
<path d="M57.6416 89.0569L60.8364 87.8081L63.5638 86.091L64.8885 83.2811L67.5379 79.3785L70.1094 76.6467L73.2263 75.1637L75.2524 74.5393L78.8369 74.7735L83.2006 75.7881L86.7851 77.6614L89.2007 80.2371L92.3956 84.0616L94.5775 86.7154L96.5256 88.2764L97.7724 88.9008L99.6425 88.2764L100.266 85.7787L100.5 79.4566L100.266 71.9636L100.422 64.7048L101.045 56.6655L103.071 51.5141L106.344 45.1919L111.799 38.1672L119.903 29.8157L127.929 21.6984L131.124 17.8738L134.864 9.99061L137.514 2.96596L138.838 0.702465L139.929 0H141.254L142.656 1.32688L143.592 4.76115L144.683 11.1614L145.306 15.2201L146.007 16.8592L147.722 18.8104L149.514 20.8398L150.371 22.3228L150.994 23.8838L150.916 25.5229L150.215 27.3181L149.514 29.0352L149.592 30.9865L150.215 32.4695L151.774 34.4208L152.787 35.7476L153.254 37.855L152.942 39.4941L151.696 41.5235L150.137 43.3967L149.903 44.9577L149.981 45.8944L150.994 47.2212L152.397 48.4701L153.254 49.7969L153.644 50.9677L153.488 52.6068L153.02 54.0898L151.929 55.2606L150.371 56.6655L149.436 57.6802L149.202 58.6948L149.514 60.1778L149.981 61.7388L150.371 63.9243L149.981 65.9536L148.968 67.9049L147.332 69.3879L145.773 70.8709L144.76 71.6514L144.527 71.8855L144.683 71.8075L145.54 71.4172L146.709 70.9489L148.267 70.2465L151.306 69.0757L153.955 68.061L156.605 67.1244L160.033 66.1097L162.683 65.4073L164.397 65.017L166.813 64.5487L169.384 64.0804L171.566 63.6901L175.073 62.9877L178.034 62.3633L181.151 61.5047L185.047 60.412L189.567 59.007L195.645 56.9777L201.099 54.9483L203.281 54.0898L207.333 52.5287L209.827 51.5141L211.931 50.7336L212.788 50.4994L213.178 50.4213L213.489 50.4994L213.723 50.6555L213.801 50.8116L213.879 51.0458L213.723 51.2799L213.567 51.5921L213.178 51.9824L212.476 52.6068L211.541 53.3873L209.749 54.8703L208.035 56.1972L206.476 57.6021L204.84 58.929L203.203 60.49L203.359 60.412L203.827 60.2559L204.762 59.8656L205.541 59.5534L205.775 59.3973H206.086L206.32 59.4753L206.476 59.5534L206.71 59.7095L206.788 59.9437L206.866 60.2559L206.788 60.6461L206.632 61.3486L206.164 62.6755L205.931 63.2999L205.229 64.7829L204.216 66.7341L203.827 67.3586L202.58 69.544L202.268 70.1684L202.112 70.4026L201.801 70.7928L201.255 71.7294L200.632 72.7441L199.775 74.071L198.917 75.3198L198.294 76.3345L197.203 77.8955L195.956 79.6127L194.632 81.5639L193.852 82.5786L191.203 86.091L190.19 87.4178L187.852 90.2277L185.281 93.2717L182.008 96.9401L179.203 99.9841L175.93 103.262L173.125 105.76L171.255 107.477L167.748 110.287L165.488 111.848L163.073 113.409L159.254 115.516L156.137 116.843L152.709 117.858L149.748 118.326L147.566 118.248L146.319 118.092V118.17L147.098 118.951L148.89 120.512L150.683 122.073L154.111 124.805L156.059 126.288L160.033 129.253L167.436 134.249L169.852 135.732L174.605 138.62L182.008 142.678L185.359 144.239L188.787 145.8L193.93 147.908L197.203 149.313L201.099 151.03L204.06 152.357L209.048 154.62L211.853 156.025L214.268 157.274L215.983 158.367L217.463 159.303L218.087 159.772L218.71 160.318L219.489 161.099L219.957 161.723L220.347 162.425L220.424 163.206V163.518L220.269 163.986L220.035 164.455L219.567 165.001L219.022 165.469L218.321 165.938L217.385 166.25L216.606 166.328L215.983 166.172L215.126 165.938L214.658 165.782L213.879 165.548L212.944 165.469L212.087 165.548L211.385 165.86L210.918 166.094L210.372 166.406L209.437 167.03L208.113 167.733L206.554 168.435L205.697 168.67L204.918 168.904L203.593 169.138L202.034 169.216L200.71 169.138L199.307 168.904L198.294 168.67L197.125 168.279L194.71 167.265L192.294 165.938L191.515 165.469L190.424 164.845L189.333 163.986L188.554 163.674L187.774 163.362H186.995L185.904 163.44L184.813 163.596L183.878 163.674H182.865L181.774 163.362L180.683 162.972L179.748 162.425L178.969 161.801L177.644 160.864L175.618 159.459L173.514 158.211L171.488 157.118L169.852 156.259L167.982 155.479L164.787 154.308L162.683 153.606L160.111 152.825L158.241 152.357L155.358 151.654L152.163 151.108L149.981 150.718L146.786 150.249L143.358 149.781L139.929 149.391L136.812 148.923L132.994 148.376L129.877 147.83L125.903 147.127L123.176 146.581L120.214 145.8L116.162 144.63L113.669 143.849L111.643 143.069L109.539 142.21L107.591 141.43L106.032 140.727L104.552 140.025L102.837 139.088L100.5 137.839L97.7724 136.2L95.7463 134.795L92.9411 132.844L89.8241 130.424L86.7851 127.849L84.9928 126.209L82.8889 124.102L81.72 122.775L80.0057 120.746L77.2784 117.077L75.642 114.268L73.7718 110.521L73.3043 109.194L72.0575 105.682L70.7328 101.233L69.486 97.7987L68.7068 96.0816L67.8496 94.6766L67.0704 93.9742L66.6028 93.74L65.6677 93.4278L61.5378 91.7887L59.5897 91.0082L58.6546 90.6179L57.7974 90.2277L57.4078 89.9935L57.252 89.7594V89.4472L57.4078 89.213L57.6416 89.0569Z" fill="#40009B"/>
<path d="M76.1051 85.3109C77.4392 85.3109 78.5207 84.2276 78.5207 82.8913C78.5207 81.555 77.4392 80.4717 76.1051 80.4717C74.771 80.4717 73.6895 81.555 73.6895 82.8913C73.6895 84.2276 74.771 85.3109 76.1051 85.3109Z" fill="white"/>
<path d="M190.655 70.7939C182.161 85.7018 174.836 90.7752 169.615 89.2922C160.888 86.8726 150.368 97.2534 148.42 98.4242" stroke="#FFD740" stroke-miterlimit="10"/>
<path d="M183.407 64.9404C175.77 78.5214 169.147 83.0484 164.316 81.7215C156.445 79.5361 146.861 88.9023 145.068 89.995" stroke="#FFD740" stroke-width="2" stroke-miterlimit="10"/>
<path d="M138.755 26.7715C141.327 43.7087 138.755 52.2163 133.69 54.3237C125.353 57.836 123.482 72.5097 122.703 74.6952" stroke="#FFD740" stroke-miterlimit="10"/>
<path d="M129.562 26.6934C131.9 42.0695 129.562 49.7966 124.964 51.6699C117.406 54.87 115.769 68.1388 114.99 70.1681" stroke="#FFD740" stroke-width="2" stroke-miterlimit="10"/>
<path d="M133.537 131.594C116.394 132.53 108.212 129.018 106.654 123.789C104.004 115.125 89.5883 111.847 87.4844 110.832" stroke="#FFD740" stroke-width="2" stroke-miterlimit="10"/>
<path d="M134.552 122.384C119.045 123.242 111.643 120.12 110.162 115.359C107.747 107.476 94.7333 104.51 92.7852 103.651" stroke="#FFD740" stroke-miterlimit="10"/>
<path d="M29.3116 85.0719L36.2854 101.778L58.4665 155.048L49.6825 158.7L27.5014 105.52L20.5277 88.7237C22.4655 85.8855 25.889 84.4428 29.3116 85.0719Z" fill="#40009B"/>
<path d="M52.297 157.619L30.1159 104.439L23.0971 87.6875C23.8181 86.6063 24.7192 85.7952 25.7103 85.1643C23.6834 85.6606 21.7913 86.9224 20.5295 88.7245L27.5032 105.521L49.6843 158.701L52.297 157.619Z" fill="#40009B"/>
<path d="M29.3145 85.0722L36.2883 101.778L27.5494 105.475L24.175 97.3247L20.5756 88.679C21.1615 87.823 21.8824 87.1021 22.6933 86.4712C24.5855 85.2094 26.9277 84.6679 29.3145 85.0722Z" fill="#FFD740"/>
<path d="M35.5679 100.066L37.5926 104.974C35.2057 104.57 32.8185 105.156 30.9263 106.508C30.0703 107.094 29.3944 107.86 28.8086 108.716L27.5038 105.609L26.7389 103.853C27.3248 102.997 28.0457 102.276 28.8566 101.645C29.3972 101.284 29.9378 100.924 30.5685 100.653C32.1451 99.9771 33.8566 99.7061 35.5679 100.066Z" fill="#40009B"/>
<path d="M101.272 217.958L106.18 227.929C106.511 228.591 107.124 229.064 107.879 229.158L118.827 230.765C120.668 231.049 121.423 233.317 120.054 234.593L112.126 242.296C111.607 242.816 111.371 243.572 111.465 244.281L113.353 255.198C113.683 257.041 111.749 258.459 110.097 257.561L100.281 252.457C99.6208 252.126 98.8657 252.126 98.2051 252.457L88.3895 257.608C86.7379 258.459 84.8031 257.089 85.1334 255.245L87.021 244.328C87.1626 243.62 86.9266 242.863 86.3604 242.344L78.3852 234.546C77.0639 233.222 77.7718 230.954 79.6122 230.718L90.5603 229.111C91.3153 229.016 91.9288 228.544 92.2591 227.882L97.2141 217.958C98.0635 216.256 100.423 216.256 101.272 217.958Z" fill="#FFD740"/>
<path d="M99.1011 246.975L109.813 254.914C110.144 254.678 110.521 254.442 110.851 254.205L106.84 241.445L117.694 233.695C117.6 233.317 117.458 232.891 117.316 232.513L103.962 232.371L99.9505 219.611C99.5258 219.611 99.1011 219.611 98.7236 219.611L94.4764 232.277L81.1689 232.182C81.0745 232.371 81.0273 232.56 80.9329 232.749C80.8857 232.939 80.7913 233.128 80.7441 233.364L91.4563 241.351L87.2092 254.016C87.5395 254.253 87.8698 254.536 88.2002 254.772L99.1011 246.975ZM109.2 253.024L100.092 246.266L105.802 242.201L109.2 253.024ZM115.712 233.695L106.463 240.264L104.386 233.553L115.712 233.695ZM99.337 221.549L102.735 232.371L95.7034 232.277L99.337 221.549ZM82.7733 233.364L94.1461 233.458L91.881 240.122L82.7733 233.364ZM92.872 240.878L95.3731 233.506L103.159 233.6L105.472 241.02L99.1011 245.51L92.872 240.878ZM92.4473 242.06L98.0629 246.266L88.8608 252.835L92.4473 242.06Z" fill="#202060"/>
<path d="M141.267 257.469L146.091 267.34C146.416 267.995 147.019 268.463 147.761 268.556L158.523 270.147C160.332 270.428 161.074 272.673 159.729 273.936L151.936 281.561C151.426 282.076 151.194 282.825 151.287 283.526L153.142 294.333C153.467 296.157 151.565 297.561 149.941 296.672L140.293 291.619C139.644 291.292 138.902 291.292 138.252 291.619L128.604 296.718C126.98 297.561 125.079 296.204 125.403 294.379L127.259 283.573C127.398 282.871 127.166 282.123 126.609 281.608L118.77 273.889C117.471 272.579 118.167 270.334 119.976 270.1L130.738 268.509C131.48 268.416 132.083 267.948 132.408 267.293L137.278 257.469C138.113 255.785 140.432 255.785 141.267 257.469Z" fill="#FFD740"/>
<path d="M139.134 286.194L149.664 294.053C149.988 293.819 150.359 293.585 150.684 293.351L146.741 280.72L157.41 273.048C157.317 272.674 157.178 272.253 157.039 271.879L143.912 271.738L139.969 259.107C139.551 259.107 139.134 259.107 138.763 259.107L134.588 271.645L121.507 271.551C121.415 271.738 121.368 271.925 121.275 272.113C121.229 272.3 121.136 272.487 121.09 272.721L131.619 280.627L127.445 293.164C127.769 293.398 128.094 293.679 128.419 293.913L139.134 286.194ZM149.061 292.182L140.108 285.492L145.721 281.469L149.061 292.182ZM155.462 273.048L146.37 279.551L144.329 272.908L155.462 273.048ZM139.366 261.025L142.706 271.738L135.794 271.645L139.366 261.025ZM123.084 272.721L134.263 272.814L132.037 279.41L123.084 272.721ZM133.011 280.159L135.469 272.861L143.123 272.955L145.396 280.299L139.134 284.743L133.011 280.159ZM132.594 281.328L138.113 285.492L129.068 291.995L132.594 281.328Z" fill="#202060"/>
<g clip-path="url(#clip1)">
<path d="M180.365 218.819L185.274 228.435C185.605 229.073 186.218 229.529 186.974 229.62L197.925 231.169C199.766 231.443 200.521 233.63 199.152 234.86L191.222 242.289C190.703 242.79 190.467 243.519 190.561 244.203L192.449 254.73C192.78 256.507 190.844 257.874 189.192 257.008L179.374 252.086C178.713 251.767 177.958 251.767 177.297 252.086L167.479 257.054C165.826 257.874 163.891 256.552 164.222 254.775L166.11 244.248C166.251 243.565 166.015 242.835 165.449 242.334L157.471 234.815C156.15 233.539 156.858 231.351 158.699 231.124L169.65 229.574C170.405 229.483 171.019 229.027 171.349 228.389L176.306 218.819C177.155 217.179 179.516 217.179 180.365 218.819Z" fill="#FFD740"/>
<path d="M178.192 246.8L188.908 254.456C189.238 254.228 189.616 254 189.946 253.772L185.934 241.468L196.791 233.994C196.696 233.63 196.555 233.22 196.413 232.855L183.054 232.718L179.042 220.414C178.617 220.414 178.192 220.414 177.815 220.414L173.566 232.627L160.255 232.536C160.161 232.718 160.113 232.901 160.019 233.083C159.972 233.265 159.877 233.447 159.83 233.675L170.545 241.377L166.297 253.59C166.627 253.818 166.958 254.091 167.288 254.319L178.192 246.8ZM188.294 252.633L179.184 246.116L184.895 242.197L188.294 252.633ZM194.808 233.994L185.556 240.329L183.479 233.858L194.808 233.994ZM178.428 222.282L181.827 232.718L174.794 232.627L178.428 222.282ZM161.86 233.675L173.236 233.766L170.97 240.192L161.86 233.675ZM171.961 240.921L174.463 233.812L182.252 233.903L184.565 241.058L178.192 245.387L171.961 240.921ZM171.537 242.06L177.154 246.116L167.949 252.451L171.537 242.06Z" fill="#202060"/>
</g>
<defs>
<clipPath id="clip0">
<rect x="120.158" y="198.833" width="34.9543" height="33.3912" fill="white"/>
</clipPath>
<clipPath id="clip1">
<rect x="156.809" y="217.589" width="43.0498" height="39.7383" fill="white"/>
</clipPath>
</defs>
</svg>
