<svg width="29" height="46" viewBox="0 0 29 46" fill="none" xmlns="http://www.w3.org/2000/svg">
<path d="M21.0452 33.359L13.822 33.3162L6.59881 33.2734V38.9127C6.59182 41.3366 6.59881 43.0975 6.59881 43.4469C6.59881 43.5039 6.59881 43.6322 6.65475 43.7891C6.73167 44.003 6.86452 44.1313 7.01137 44.2739C7.38196 44.6303 7.8085 44.8014 8.04625 44.8941C8.36091 45.0224 8.61963 45.108 8.82241 45.165C9.07414 45.2434 9.41677 45.3433 9.83631 45.4359C10.6335 45.6142 11.2418 45.6783 11.7942 45.7282C12.4375 45.7924 13.1997 45.828 14.0667 45.8209C15.3813 45.8067 16.3603 45.6783 16.605 45.6427C17.57 45.5072 18.1294 45.3575 18.9405 45.1365C18.9405 45.1365 19.6817 44.9369 20.4089 44.4521C20.5697 44.3452 20.7795 44.1883 20.9263 43.9174C20.9893 43.8033 21.0242 43.7035 21.0452 43.6394L21.0522 41.7929V37.3728L21.0312 34.792L21.0452 33.359Z" fill="#202060"/>
<path d="M21.0519 35.2274V35.1347V33.9084V32.8818L19.7023 33.1599L17.6885 33.4522L15.4439 33.6161L13.4651 33.6518L11.5701 33.5805L9.3535 33.3738L7.71028 33.1171L6.60547 32.8818V34.1366V35.2773L6.80126 35.6337L7.33968 36.1114L8.63328 36.696L9.91989 37.0311L11.1086 37.2307L12.8148 37.3946H14.7167L16.5627 37.2235L18.2409 36.917L19.4646 36.532L20.2897 36.1256L20.5344 35.9545L20.7582 35.7478L20.954 35.4626" fill="#FFD740"/>
<path d="M13.8282 33.8162C20.4319 33.8162 25.7853 32.1117 25.7853 30.0092C25.7853 27.9066 20.4319 26.2021 13.8282 26.2021C7.22446 26.2021 1.87109 27.9066 1.87109 30.0092C1.87109 32.1117 7.22446 33.8162 13.8282 33.8162Z" fill="#202060"/>
<path d="M13.8295 31.0995C16.3888 31.0995 18.8921 30.8357 20.8919 30.3581C20.8989 30.3581 20.8989 30.3581 20.9059 30.3581C21.2695 30.2725 21.2695 29.745 20.9059 29.6594C20.8989 29.6594 20.8989 29.6594 20.8919 29.6594C18.8921 29.1818 16.3888 28.918 13.8295 28.918C11.2703 28.918 8.767 29.1818 6.76716 29.6594C6.76017 29.6594 6.76017 29.6594 6.75317 29.6594C6.38957 29.745 6.38957 30.2725 6.75317 30.3581C6.76017 30.3581 6.76017 30.3581 6.76716 30.3581C8.76001 30.8357 11.2703 31.0995 13.8295 31.0995Z" fill="#FFD740"/>
<path d="M21.8438 0.350833C21.7739 0.265282 21.69 0.179731 21.69 0.179731C21.6341 0.122697 21.5991 0.0941801 21.5781 0.0727923C21.4243 -0.0412757 21.1726 0.0371461 21.0677 0.0727923C20.8719 0.136956 20.746 0.229636 20.5922 0.350833C20.2356 0.628874 20.0608 0.771459 19.879 0.971078C19.7531 1.11366 19.6832 1.21347 19.3336 1.8052C18.9699 2.41119 18.7881 2.71775 18.7252 2.84607C18.5854 3.10985 18.5084 3.29522 18.1798 4.09369C17.8022 5.02049 17.6134 5.4839 17.5715 5.61935C17.4246 6.04711 17.3057 6.55328 17.061 7.55851C16.9771 7.90784 16.8792 8.34273 16.6904 9.18398C16.4527 10.2462 16.3338 10.7738 16.3198 10.952C16.2569 11.7648 16.2219 12.2068 16.3198 12.8199C16.3688 13.1193 16.3827 13.3689 16.2499 13.4758C16.0611 13.6255 15.7394 13.3902 15.0891 13.2548C14.7325 13.1835 14.4808 13.2191 13.8794 13.2477C13.1732 13.2762 13.2571 13.2762 12.7257 13.2762C12.1733 13.2762 11.9286 13.3332 11.7048 13.3475C11.6558 13.3475 11.488 13.3403 11.2643 13.4615C11.1874 13.5043 11.1734 13.49 11.1314 13.4687C10.9426 13.376 11.0265 12.8698 11.0895 12.2353C11.1244 11.8646 11.1943 11.2087 11.0895 10.5029C11.0405 10.1607 11.0055 10.1749 10.7818 9.29092C10.621 8.64928 10.586 8.42115 10.4741 7.94349C10.4112 7.67258 10.1874 6.71013 9.79586 5.55519C9.44623 4.51432 9.1106 3.75862 8.97774 3.48058C8.57917 2.59655 8.26451 2.06898 8.06173 1.74817C8.06173 1.74817 7.51632 0.892656 6.90798 0.429255C6.80309 0.350833 6.69121 0.279541 6.69121 0.279541C6.6073 0.215377 6.46046 0.122697 6.36256 0.0727923C6.18076 -0.00562946 5.90106 -0.0412757 5.6843 0.0727923C5.39061 0.222507 4.99904 1.19921 5.13889 0.906915C5.13889 0.906915 4.90814 2.11889 4.86618 3.08847C4.83821 3.78 4.92911 4.33609 5.10392 5.44112C5.14588 5.71916 5.3137 6.73864 5.6843 8.14311C5.89407 8.96297 6.13881 9.8969 6.60031 11.0875C7.11076 12.4064 7.36248 13.0694 7.78902 13.5114C8.15962 13.8964 8.53722 14.3883 8.67007 14.6165C8.72601 14.7092 8.47428 14.6878 8.19459 14.8945C8.15263 14.9302 8.09669 14.9729 7.91489 15.1583C7.64917 15.4292 7.52331 15.5647 7.39745 15.7215C7.28557 15.8712 7.13873 16.0851 6.99888 16.3703L6.59332 17.2115L6.36956 18.067L6.2367 18.9083L6.26467 19.9135L6.41151 21.1112L6.82407 22.3588L7.40444 23.4354L8.01278 24.298L8.48827 24.7899L9.15954 25.3959V25.4743L8.96375 25.731L8.71203 25.4387L8.19459 24.904L7.52331 24.4049L6.32061 23.7205L5.35565 23.4068L4.71934 23.3641L4.111 23.4425L3.69145 23.8061L3.55859 24.3693L3.66348 24.9325L3.97814 25.6098L4.43964 26.2372L4.93611 26.7861L5.48851 27.3137L6.36256 27.8412L6.5164 27.9767L7.00587 28.212L7.48835 28.4187L7.76805 28.4472L7.81699 28.5542L7.74008 28.7752L7.66316 29.317L7.58624 30.0157L7.57226 30.0869L8.06173 30.1582L8.44631 30.2652L8.97774 30.3507L9.79586 30.4577L10.2434 30.5004L10.7119 30.5432L11.516 30.6145L12.467 30.643H13.4599H14.7395L15.5856 30.586L16.3198 30.5717L16.8582 30.5432L17.5715 30.4434L18.2917 30.3365L19.0259 30.2295L19.5853 30.1226L19.802 30.0798V29.5451C19.802 29.5451 19.7042 29.1601 19.7111 29.1245C19.7181 29.0889 19.6132 28.5542 19.6132 28.5542L19.5993 28.49L19.8999 28.4116C19.8999 28.4116 20.4034 28.212 20.4104 28.2048C20.4174 28.1977 20.8509 27.9339 20.8509 27.9339L21.7459 27.442L22.3403 26.9429L23.0815 26.173L23.6269 25.2747L23.8367 24.4121L23.6829 23.7704L23.3332 23.528L23.0815 23.3926L22.6829 23.3641L21.8159 23.4496L21.2635 23.6492L20.4244 24.0627L19.7461 24.519L19.3196 24.8541L18.8441 25.3246L18.4525 25.7595L18.3686 25.6811L18.1868 25.4244L18.4805 25.182L18.8301 24.8683L19.1797 24.5333L19.3825 24.3051L19.5363 24.077L19.6972 23.8631L20.0398 23.3641L20.2845 22.972L20.5083 22.5299L20.8369 21.7529L20.9488 21.2752L21.1096 20.3626L21.1516 19.4786L21.1376 18.7372L21.0257 18.0884L20.8439 17.3755L20.5363 16.634L20.1517 15.9496L19.6762 15.3864L19.0678 14.8303C19.0399 14.8232 18.8231 14.7448 18.8161 14.6022C18.8161 14.5666 18.8231 14.538 18.8511 14.4881C18.942 14.317 19.0608 14.203 19.0608 14.203C19.0608 14.203 19.1657 14.0675 19.3685 13.7966C19.5363 13.5756 19.6552 13.3403 19.886 12.8841C19.9349 12.7914 20.1027 12.4563 20.3475 11.9287C20.5432 11.5081 20.6411 11.2942 20.753 11.0091C20.8509 10.7667 20.9628 10.4245 21.1866 9.75432C21.3614 9.24101 21.4453 8.97723 21.5292 8.70632C21.669 8.22153 21.7599 7.8722 21.7809 7.78664C21.8788 7.38741 21.9417 7.08798 21.9907 6.83845C22.0746 6.40357 22.1305 6.08275 22.1935 5.71203C22.2914 5.12743 22.3403 4.83513 22.3753 4.46441C22.4102 4.10082 22.4242 3.81565 22.4312 3.58751C22.4452 3.20253 22.4592 2.93875 22.4452 2.58942C22.4312 2.19018 22.4172 1.84798 22.3123 1.39883C22.3193 1.3917 22.1515 0.707296 21.8438 0.350833Z" fill="#FFD740"/>
<path d="M7.07465 2.84622C6.96976 2.78919 6.84389 2.75354 6.70405 2.76067C6.63412 2.7678 6.53623 2.7678 6.45232 2.83909C6.38939 2.889 6.36142 2.95316 6.31247 3.07436C6.27751 3.15991 6.25653 3.22407 6.23555 3.31675C6.22856 3.3524 6.20059 3.44508 6.17262 3.59479C6.15864 3.65183 6.13766 3.79441 6.11668 3.96551C6.0957 4.13662 6.0957 4.25781 6.0957 4.58576C6.0957 4.97074 6.0957 5.16323 6.0957 5.23452C6.0957 5.31294 6.10969 5.63376 6.15863 6.04726C6.1866 6.31817 6.22157 6.52491 6.26352 6.73879C6.27751 6.81009 6.2845 6.85999 6.36841 7.33052C6.44533 7.75828 6.48728 7.97928 6.50126 8.05057C6.51525 8.129 6.58517 8.44981 6.69705 8.84192C6.80194 9.23403 6.8369 9.27681 7.01871 9.86141C7.22149 10.5102 7.17953 10.4531 7.2984 10.8025C7.41028 11.1304 7.42427 11.109 7.69697 11.8291C7.89276 12.3424 7.89276 12.3638 7.98366 12.5705C8.10953 12.8557 8.23539 13.0696 8.38223 13.3476C8.68291 13.8894 8.65494 13.7682 8.75982 13.9964C8.86471 14.2388 8.90667 14.3956 9.01854 14.417C9.09546 14.4313 9.13042 14.3386 9.30524 14.2174C9.36118 14.1817 9.45907 14.139 9.64786 14.0605C9.78771 14.0035 9.94155 13.9393 10.2003 13.8395C10.3541 13.7825 10.48 13.8039 10.5219 13.7183C10.5429 13.6684 10.5359 13.6257 10.5289 13.5615C10.5149 13.4332 10.5359 13.4332 10.5429 13.1266C10.5499 13.0268 10.5569 12.7773 10.5429 12.4921C10.5359 12.3281 10.5219 12.2069 10.5009 11.9645C10.48 11.7792 10.452 11.5083 10.403 11.1803C10.3891 11.0876 10.3471 10.8239 10.2212 10.1822C10.0954 9.54772 10.0324 9.2269 9.92057 8.79202C9.79471 8.29297 9.68283 7.92225 9.64087 7.80818C9.45907 7.23071 9.29824 6.81009 9.19336 6.55343C8.99058 6.033 8.81576 5.64802 8.67592 5.35572C8.59201 5.17036 8.38922 4.7426 8.10953 4.20791C8.10953 4.20791 7.92073 3.85145 7.59209 3.37379C7.48021 3.1813 7.32637 2.97455 7.07465 2.84622Z" fill="#202060"/>
<path d="M21.172 3.13113C21.109 3.03132 21.0251 2.92438 20.8992 2.85309C20.8363 2.81744 20.7524 2.76754 20.6405 2.78179C20.5636 2.78892 20.5077 2.8317 20.3958 2.90299C20.3189 2.9529 20.2699 3.0028 20.2 3.06696C20.172 3.08835 20.1091 3.15251 20.0042 3.26658C19.9623 3.30936 19.8644 3.4163 19.7665 3.55175C19.6616 3.68721 19.5987 3.78702 19.4238 4.06506C19.2211 4.38588 19.1232 4.54985 19.0882 4.61401C19.0462 4.6853 18.8924 4.95622 18.7176 5.3412C18.6057 5.59072 18.5288 5.77608 18.4449 5.98283C18.4169 6.04699 18.396 6.0969 18.2281 6.53891C18.0743 6.94528 17.9904 7.15203 17.9694 7.22332C17.9414 7.30174 17.8366 7.6083 17.7247 8.00041C17.6128 8.39252 17.6128 8.44955 17.466 9.04128C17.2981 9.69717 17.2981 9.63301 17.2142 9.98947C17.1373 10.3245 17.1583 10.3174 17.0184 11.0802C16.9205 11.6221 16.9066 11.6435 16.8786 11.8645C16.8366 12.1781 16.8296 12.4277 16.8157 12.7414C16.7597 13.8749 16.6898 13.7822 17.5149 14.0389C17.6617 14.0817 17.7736 14.21 18.0463 14.267C18.2072 14.3027 18.2281 14.4239 18.312 14.374C18.354 14.3454 18.5008 14.1601 18.5218 14.0959C18.5778 13.9747 18.5917 13.989 18.7596 13.7395C18.8155 13.661 18.9484 13.4472 19.0882 13.1976C19.1651 13.055 19.2211 12.941 19.3259 12.72C19.4099 12.5489 19.5217 12.3065 19.6546 11.9999C19.6896 11.9144 19.7944 11.672 20.0182 11.0589C20.242 10.4529 20.3538 10.1463 20.4867 9.71856C20.6405 9.22664 20.7314 8.84879 20.7664 8.73472C20.9132 8.15012 20.9901 7.70098 21.0391 7.42294C21.137 6.87398 21.1859 6.45336 21.2279 6.12541C21.2489 5.92579 21.3048 5.45526 21.3468 4.84215C21.3468 4.84215 21.3747 4.43578 21.3468 3.85118C21.3398 3.64443 21.3188 3.38065 21.172 3.13113Z" fill="#202060"/>
<path d="M16.5349 25.5527L15.7657 25.8308L14.7588 26.0946L14.0036 26.1801H13.5282L12.766 26.0946L11.85 25.9235L10.8291 25.5527L10.5913 25.8664L10.2207 26.394L9.92705 27.1212L9.67532 27.9696L9.52148 28.7181V28.9605L9.63336 29.0603L10.1158 29.2029L10.913 29.3526L11.7241 29.4097L12.8709 29.4881H13.8288H15.1364L15.9825 29.374L16.9125 29.2457L17.7796 29.0176L17.6327 27.9981L17.339 27L16.5349 25.5527Z" fill="#40009B"/>
<path d="M16.2407 18.2245C16.5419 18.2245 16.7861 17.9755 16.7861 17.6684C16.7861 17.3613 16.5419 17.1123 16.2407 17.1123C15.9395 17.1123 15.6953 17.3613 15.6953 17.6684C15.6953 17.9755 15.9395 18.2245 16.2407 18.2245Z" fill="#40009B"/>
<path d="M11.143 17.1756L11.3318 17.3681L11.5555 17.5606L11.6814 17.6889L11.8562 17.8386L11.8632 17.8529L11.8842 17.8743L11.6185 17.8814H11.2549H11.087H11.0101L10.9402 17.8885H10.9122V17.917L10.8843 17.9384C10.8843 17.9384 10.8633 17.9669 10.8633 17.9741C10.8703 17.9812 10.8773 18.0311 10.8773 18.0311L10.9122 18.0881H10.9752C10.9752 18.0881 11.136 18.0739 11.1709 18.0739C11.1989 18.0739 11.3528 18.0739 11.3528 18.0739C11.3528 18.0739 11.5975 18.0596 11.6115 18.0667C11.6255 18.0739 11.8422 18.0525 11.8422 18.0525H12.031L12.1918 18.0382L12.2058 17.9955V17.9313L12.1988 17.8671L12.1289 17.8101C12.1219 17.803 12.017 17.7174 12.017 17.7174L11.9261 17.639L11.8562 17.5606L11.7303 17.4608L11.6255 17.3681L11.5276 17.2683L11.3248 17.0972L11.2758 17.0615H11.2199H11.1919L11.164 17.0972L11.136 17.1328" fill="#40009B"/>
<path d="M14.4307 19.1582H13.7105H13.221L13.0392 19.2509L12.9902 19.3079V19.479L13.1091 19.7L13.3049 19.9068L13.5007 20.0351L13.6405 20.0779H13.8223H13.9762L14.116 20.0137L14.2559 19.8925L14.4307 19.7571L14.5356 19.6216L14.6055 19.422L14.5775 19.258L14.4307 19.1582Z" fill="#40009B"/>
<path d="M13.7032 20.0771V20.3552V20.7544V21.0824V21.118L13.5843 21.1822L13.4584 21.282L13.3046 21.3675L13.1787 21.4246L13.0459 21.4531H12.927H12.7871H12.6543L12.5424 21.4103L12.3816 21.3533L12.2697 21.3034L12.1369 21.2463L12.011 21.1822L11.9201 21.1109L11.8152 21.0325L11.7802 20.9968H11.7383V21.0467L11.7523 21.0895L11.8222 21.1465L11.8991 21.2178L11.997 21.3034L12.1159 21.4103L12.2837 21.5173L12.4655 21.6099L12.6193 21.667L12.7242 21.6955H12.8571H13.0319L13.1368 21.667L13.2556 21.5957L13.4235 21.4887L13.5773 21.3747L13.7801 21.2321H13.808L13.9059 21.3105L14.0318 21.3889C14.0318 21.3889 14.2206 21.4959 14.2276 21.5101C14.2346 21.5244 14.4304 21.6313 14.4304 21.6313L14.4863 21.667L14.5143 21.6955H14.6681L14.8849 21.6812L15.0597 21.6384L15.2625 21.5386L15.4443 21.4246L15.661 21.2535L15.7799 21.1251L15.8149 21.0681L15.8289 21.0396L15.8009 21.0182L15.703 21.0895L15.5562 21.1964C15.5562 21.1964 15.4443 21.2749 15.4373 21.282C15.4303 21.2891 15.2485 21.3675 15.2485 21.3675L15.0317 21.4531L14.8219 21.4673L14.5283 21.4602L14.2556 21.3604L13.9968 21.1964L13.8989 21.1109L13.878 21.0325L13.871 20.733L13.878 20.4336V20.1983V20.0771H13.7032Z" fill="#40009B"/>
<path d="M15.1434 20.7479C15.213 20.7479 15.2693 20.6904 15.2693 20.6195C15.2693 20.5487 15.213 20.4912 15.1434 20.4912C15.0739 20.4912 15.0176 20.5487 15.0176 20.6195C15.0176 20.6904 15.0739 20.7479 15.1434 20.7479Z" fill="#40009B"/>
<path d="M14.5985 20.5477C14.668 20.5477 14.7244 20.4902 14.7244 20.4193C14.7244 20.3485 14.668 20.291 14.5985 20.291C14.529 20.291 14.4727 20.3485 14.4727 20.4193C14.4727 20.4902 14.529 20.5477 14.5985 20.5477Z" fill="#40009B"/>
<path d="M12.3192 20.7479C12.3887 20.7479 12.4451 20.6904 12.4451 20.6195C12.4451 20.5487 12.3887 20.4912 12.3192 20.4912C12.2497 20.4912 12.1934 20.5487 12.1934 20.6195C12.1934 20.6904 12.2497 20.7479 12.3192 20.7479Z" fill="#40009B"/>
<path d="M12.872 20.5477C12.9415 20.5477 12.9978 20.4902 12.9978 20.4193C12.9978 20.3485 12.9415 20.291 12.872 20.291C12.8024 20.291 12.7461 20.3485 12.7461 20.4193C12.7461 20.4902 12.8024 20.5477 12.872 20.5477Z" fill="#40009B"/>
<path d="M14.6884 20.9686C14.7579 20.9686 14.8142 20.9111 14.8142 20.8402C14.8142 20.7694 14.7579 20.7119 14.6884 20.7119C14.6189 20.7119 14.5625 20.7694 14.5625 20.8402C14.5625 20.9111 14.6189 20.9686 14.6884 20.9686Z" fill="#40009B"/>
<path d="M12.7802 21.0047C12.8501 21.0047 12.906 20.9477 12.906 20.8764C12.906 20.8051 12.8501 20.748 12.7802 20.748C12.7102 20.748 12.6543 20.8051 12.6543 20.8764C12.6543 20.9477 12.7172 21.0047 12.7802 21.0047Z" fill="#40009B"/>
<path d="M6.03226 26.1944C6.51499 26.1944 6.90632 25.7954 6.90632 25.3033C6.90632 24.8111 6.51499 24.4121 6.03226 24.4121C5.54953 24.4121 5.1582 24.8111 5.1582 25.3033C5.1582 25.7954 5.54953 26.1944 6.03226 26.1944Z" fill="#202060"/>
<path d="M5.17415 24.4123C5.37497 24.4123 5.53776 24.2464 5.53776 24.0416C5.53776 23.8369 5.37497 23.6709 5.17415 23.6709C4.97334 23.6709 4.81055 23.8369 4.81055 24.0416C4.81055 24.2464 4.97334 24.4123 5.17415 24.4123Z" fill="#202060"/>
<path d="M4.32064 24.8332C4.52145 24.8332 4.68424 24.6673 4.68424 24.4625C4.68424 24.2578 4.52145 24.0918 4.32064 24.0918C4.11982 24.0918 3.95703 24.2578 3.95703 24.4625C3.95703 24.6673 4.11982 24.8332 4.32064 24.8332Z" fill="#202060"/>
<path d="M4.58626 25.7883C4.78708 25.7883 4.94987 25.6223 4.94987 25.4176C4.94987 25.2129 4.78708 25.0469 4.58626 25.0469C4.38545 25.0469 4.22266 25.2129 4.22266 25.4176C4.22266 25.6223 4.38545 25.7883 4.58626 25.7883Z" fill="#202060"/>
<path d="M21.1846 26.38C21.6673 26.38 22.0587 25.981 22.0587 25.4888C22.0587 24.9966 21.6673 24.5977 21.1846 24.5977C20.7019 24.5977 20.3105 24.9966 20.3105 25.4888C20.3105 25.981 20.7019 26.38 21.1846 26.38Z" fill="#202060"/>
<path d="M22.6878 25.8098C22.8886 25.8098 23.0514 25.6438 23.0514 25.4391C23.0514 25.2343 22.8886 25.0684 22.6878 25.0684C22.487 25.0684 22.3242 25.2343 22.3242 25.4391C22.3242 25.6438 22.487 25.8098 22.6878 25.8098Z" fill="#202060"/>
<path d="M22.807 24.8616C23.0078 24.8616 23.1706 24.6956 23.1706 24.4908C23.1706 24.2861 23.0078 24.1201 22.807 24.1201C22.6062 24.1201 22.4434 24.2861 22.4434 24.4908C22.4434 24.6956 22.6062 24.8616 22.807 24.8616Z" fill="#202060"/>
<path d="M21.8753 24.5618C22.0761 24.5618 22.2389 24.3958 22.2389 24.191C22.2389 23.9863 22.0761 23.8203 21.8753 23.8203C21.6745 23.8203 21.5117 23.9863 21.5117 24.191C21.5117 24.3958 21.6745 24.5618 21.8753 24.5618Z" fill="#202060"/>
<path d="M17.9263 24.1627C18.9265 24.1627 19.7373 23.336 19.7373 22.3162C19.7373 21.2964 18.9265 20.4697 17.9263 20.4697C16.9261 20.4697 16.1152 21.2964 16.1152 22.3162C16.1152 23.336 16.9261 24.1627 17.9263 24.1627Z" fill="#40009B"/>
<path d="M9.35401 24.1627C10.3542 24.1627 11.1651 23.336 11.1651 22.3162C11.1651 21.2964 10.3542 20.4697 9.35401 20.4697C8.3538 20.4697 7.54297 21.2964 7.54297 22.3162C7.54297 23.336 8.3538 24.1627 9.35401 24.1627Z" fill="#40009B"/>
<g clip-path="url(#clip0)">
<path d="M4.3047 19.6568C4.27193 19.7276 4.18548 19.737 4.10861 19.7295L3.99498 20.0081L5.08337 26.0786L5.6046 25.9788L4.50748 19.9106L4.30555 19.6423C4.31109 19.6455 4.3079 19.6511 4.3047 19.6568Z" fill="#40009B"/>
<path d="M4.02891 19.7272L3.99215 20.0133L5.08373 26.0782L5.34711 26.0299L4.25 19.9617L4.14624 19.7284C4.10578 19.7347 4.06617 19.7265 4.02891 19.7272Z" fill="#40009B"/>
<path d="M3.97206 17.4199L4.43258 18.0649C4.4673 18.1078 4.5116 18.1337 4.56313 18.1339L5.34884 18.1139C5.48363 18.1104 5.55755 18.2662 5.48263 18.3724L5.02116 19.0175C4.99009 19.0594 4.98116 19.1142 5.00076 19.1707L5.26031 19.923C5.30421 20.0538 5.18564 20.172 5.05893 20.1352L4.31467 19.8868C4.26399 19.8721 4.20927 19.8776 4.16712 19.9129L3.54059 20.3938C3.43563 20.4749 3.27975 20.3986 3.28184 20.2648L3.28568 19.4641C3.28588 19.4117 3.26308 19.3608 3.21644 19.326L2.57284 18.8739C2.46295 18.7945 2.48973 18.6301 2.61833 18.5854L3.36843 18.3419C3.4208 18.3276 3.46061 18.2834 3.47508 18.2318L3.70314 17.465C3.72504 17.3352 3.89559 17.3076 3.97206 17.4199Z" fill="#FFD740"/>
</g>
<g clip-path="url(#clip1)">
<path d="M23.5315 25.6276H21.5387C21.3364 25.6276 21.1699 25.461 21.1699 25.2513V22.0562C21.1699 21.8465 21.3364 21.68 21.5387 21.68L23.5374 21.6738C23.7397 21.6738 23.9062 21.8465 23.9062 22.0562V25.2513C23.9062 25.461 23.7397 25.6276 23.5315 25.6276Z" fill="#40009B"/>
<path d="M22.2158 24.1841C22.311 24.2705 22.4181 24.3507 22.5489 24.4123C23.2866 24.0546 23.4888 23.0184 23.0903 22.9073C23.0367 22.895 22.9891 22.8888 22.9475 22.895C22.6501 22.9382 22.537 23.3884 22.537 23.3884C22.537 23.3884 22.3764 22.7963 21.9779 22.9135C21.6448 23.006 21.7399 23.74 22.2158 24.1841Z" fill="#FFD740"/>
<path d="M21.7172 21.7778C21.6875 21.7531 21.6577 21.7285 21.6161 21.71C21.396 21.8148 21.3306 22.1294 21.4495 22.1602C21.4674 22.1664 21.4852 22.1664 21.4971 22.1602C21.5863 22.1479 21.622 22.0122 21.622 22.0122C21.622 22.0122 21.6696 22.1911 21.7886 22.1541C21.8838 22.1294 21.86 21.9073 21.7172 21.7778Z" fill="#FFD740"/>
<path d="M23.4066 25.3993C23.4364 25.424 23.4661 25.4487 23.5077 25.4672C23.7278 25.3562 23.7873 25.0478 23.6684 25.0169C23.6505 25.0107 23.6386 25.0107 23.6267 25.0107C23.5375 25.0231 23.5018 25.1588 23.5018 25.1588C23.5018 25.1588 23.4542 24.9799 23.3352 25.0169C23.2341 25.0478 23.2638 25.2636 23.4066 25.3993Z" fill="#FFD740"/>
</g>
<defs>
<clipPath id="clip0">
<rect width="7.02573" height="6.29539" transform="matrix(0.493025 -0.870015 0.862831 0.505492 0 23.1006)" fill="white"/>
</clipPath>
<clipPath id="clip1">
<rect width="2.73637" height="3.95373" transform="matrix(-1 0 0 1 23.9062 21.6738)" fill="white"/>
</clipPath>
</defs>
</svg>
