<svg width="25" height="47" viewBox="0 0 25 47" fill="none" xmlns="http://www.w3.org/2000/svg">
<path d="M4.83136 33.5039L12.2044 33.4609L19.5775 33.418V39.084C19.5846 41.5194 19.5775 43.2887 19.5775 43.6397C19.5775 43.697 19.5775 43.8259 19.5204 43.9835C19.4419 44.1984 19.3063 44.3274 19.1564 44.4706C18.7781 44.8288 18.3427 45.0007 18.1 45.0938C17.7788 45.2227 17.5147 45.3087 17.3078 45.366C17.0508 45.4448 16.7011 45.5451 16.2728 45.6382C15.4591 45.8173 14.8382 45.8818 14.2743 45.9319C13.6177 45.9964 12.8397 46.0322 11.9546 46.025C10.6128 46.0107 9.6135 45.8818 9.36369 45.8459C8.37871 45.7098 7.80771 45.5594 6.97975 45.3374C6.97975 45.3374 6.22317 45.1368 5.48087 44.6497C5.31671 44.5423 5.10258 44.3847 4.95269 44.1125C4.88846 43.9979 4.85277 43.8976 4.83136 43.8331L4.82422 41.9779V37.5367L4.84563 34.9294L4.83136 33.5039Z" fill="#202060"/>
<path d="M4.82422 35.3811V35.288V34.0559V33.0244L6.20176 33.3038L8.25737 33.5975L10.5485 33.7622L12.5684 33.798L14.5027 33.7264L16.7653 33.5187L18.4426 33.2608L19.5704 33.0244V34.2851V35.4312L19.3705 35.7894L18.8209 36.2693L17.5076 36.8567L16.1943 37.1933L14.9738 37.3939L13.2322 37.5587H11.2908L9.40651 37.3867L7.70064 37.0787L6.44444 36.6919L5.60935 36.2836L5.3524 36.1117L5.124 35.904L4.92414 35.6175" fill="#FFD740"/>
<path d="M12.2052 33.9627C18.9459 33.9627 24.4104 32.2501 24.4104 30.1376C24.4104 28.0251 18.9459 26.3125 12.2052 26.3125C5.46444 26.3125 0 28.0251 0 30.1376C0 32.2501 5.46444 33.9627 12.2052 33.9627Z" fill="#202060"/>
<path d="M12.2047 31.2329C9.59233 31.2329 7.0371 30.9679 4.99576 30.488C4.98863 30.488 4.98863 30.488 4.98149 30.488C4.61034 30.402 4.61034 29.8719 4.98149 29.786C4.98863 29.786 4.98863 29.786 4.99576 29.786C7.0371 29.3061 9.59233 29.041 12.2047 29.041C14.817 29.041 17.3722 29.3061 19.4136 29.786C19.4207 29.786 19.4207 29.786 19.4278 29.786C19.799 29.8719 19.799 30.402 19.4278 30.488C19.4207 30.488 19.4207 30.488 19.4136 30.488C17.3722 30.9679 14.8099 31.2329 12.2047 31.2329Z" fill="#FFD740"/>
<path d="M4.01925 0.339226C4.09062 0.253269 4.17627 0.167312 4.17627 0.167312C4.23337 0.110007 4.26906 0.081355 4.29047 0.0598657C4.4475 -0.0547439 4.70445 0.0240502 4.81151 0.0598657C5.01136 0.124334 5.13984 0.217454 5.29686 0.339226C5.66088 0.618587 5.83932 0.761849 6.02489 0.962416C6.15337 1.10568 6.22474 1.20596 6.58162 1.8005C6.95277 2.40936 7.13835 2.71737 7.20258 2.84631C7.34533 3.11135 7.42385 3.29759 7.75931 4.09985C8.14474 5.03105 8.33745 5.49666 8.38028 5.63276C8.53016 6.06254 8.6515 6.57112 8.90132 7.58112C8.98697 7.93211 9.08689 8.36906 9.2796 9.2143C9.52228 10.2816 9.64362 10.8117 9.65789 10.9908C9.72213 11.8073 9.75782 12.2515 9.65789 12.8675C9.60793 13.1683 9.59366 13.419 9.72927 13.5265C9.92198 13.6769 10.2503 13.4405 10.9141 13.3044C11.2781 13.2328 11.5351 13.2686 12.1489 13.2973C12.8698 13.3259 12.7841 13.3259 13.3266 13.3259C13.8904 13.3259 14.1403 13.3832 14.3687 13.3976C14.4186 13.3976 14.5899 13.3904 14.8183 13.5122C14.8968 13.5551 14.9111 13.5408 14.9539 13.5193C15.1467 13.4262 15.061 12.9176 14.9968 12.2801C14.9611 11.9076 14.8897 11.2486 14.9968 10.5395C15.0467 10.1956 15.0824 10.21 15.3108 9.32175C15.475 8.67707 15.5107 8.44785 15.6249 7.96793C15.6891 7.69573 15.9175 6.72871 16.3172 5.56829C16.6741 4.52248 17.0167 3.76319 17.1523 3.48383C17.5591 2.5956 17.8803 2.06553 18.0873 1.74319C18.0873 1.74319 18.644 0.883622 19.265 0.418021C19.3721 0.339226 19.4863 0.267595 19.4863 0.267595C19.5719 0.210291 19.7147 0.11717 19.8217 0.0741919C20.0073 -0.00460218 20.2928 -0.0404177 20.5141 0.0741919C20.8139 0.224617 21.2136 1.20596 21.0708 0.912274C21.0708 0.912274 21.3063 2.13 21.3492 3.10418C21.3777 3.799 21.2849 4.35772 21.1065 5.468C21.0637 5.74736 20.8924 6.77169 20.5141 8.18282C20.3 9.00657 20.0501 9.94494 19.5791 11.1412C19.058 12.4663 18.8011 13.1325 18.3657 13.5766C17.9874 13.9634 17.602 14.4577 17.4664 14.6869C17.4093 14.78 17.6662 14.7585 17.9517 14.9663C17.9945 15.0021 18.0516 15.0451 18.2372 15.2313C18.5084 15.5035 18.6369 15.6396 18.7654 15.7972C18.8796 15.9476 19.0295 16.1625 19.1722 16.449L19.5862 17.2943L19.8146 18.1538L19.9502 18.9991L19.9217 20.0091L19.7718 21.2125L19.3507 22.466L18.7582 23.5477L18.1373 24.4144L17.6519 24.9086L16.9667 25.5175V25.5963L17.1666 25.8542L17.4235 25.5605L17.9517 25.0233L18.6369 24.5218L19.8646 23.8342L20.8495 23.519L21.4991 23.476L22.12 23.5548L22.5483 23.9201L22.6839 24.486L22.5768 25.0519L22.2556 25.7324L21.7846 26.3628L21.2778 26.9143L20.7139 27.4444L19.8217 27.9745L19.6647 28.1106L19.1651 28.3469L18.6726 28.5547L18.3871 28.5833L18.3371 28.6908L18.4156 28.9128L18.4942 29.4572L18.5727 30.1592L18.5869 30.2308L18.0873 30.3025L17.6948 30.4099L17.1523 30.4959L16.3172 30.6033L15.8604 30.6463L15.3822 30.6893L14.5614 30.7609L13.5907 30.7896H12.5771H11.2567L10.3931 30.7322L9.64362 30.7179L9.09403 30.6893L8.366 30.589L7.63084 30.4815L6.8814 30.3741L6.31039 30.2666L6.08913 30.2237V29.6864C6.08913 29.6864 6.18905 29.2996 6.18192 29.2638C6.17478 29.228 6.28184 28.6908 6.28184 28.6908L6.29612 28.6263L5.9892 28.5475C5.9892 28.5475 5.4753 28.3469 5.46816 28.3398C5.46103 28.3326 5.0185 28.0676 5.0185 28.0676L4.1049 27.5733L3.49821 27.0719L2.76304 26.2768L2.20631 25.3743L1.99219 24.5075L2.14921 23.8628L2.50609 23.6193L2.76304 23.4832L3.16988 23.4545L4.05493 23.5405L4.6188 23.7411L5.4753 24.1565L6.16764 24.615L6.60303 24.9516L7.08838 25.4244L7.48809 25.8613L7.57374 25.7825L7.75931 25.5247L7.45954 25.2811L7.10266 24.966L6.74578 24.6293L6.53879 24.4001L6.38177 24.1709L6.2176 23.956L5.86787 23.4545L5.61805 23.0606L5.38965 22.6165L5.05419 21.8357L4.93999 21.3558L4.77582 20.4389L4.733 19.5507L4.74727 18.8057L4.86147 18.1538L5.04705 17.4375L5.3611 16.6926L5.75367 16.0049L6.23902 15.439L6.85998 14.8803C6.88853 14.8731 7.1098 14.7944 7.11693 14.6511C7.11693 14.6153 7.1098 14.5866 7.08125 14.5365C6.98846 14.3646 6.86712 14.25 6.86712 14.25C6.86712 14.25 6.76006 14.1139 6.55307 13.8417C6.38177 13.6196 6.26043 13.3832 6.02489 12.9248C5.97493 12.8317 5.80363 12.495 5.55381 11.9649C5.35396 11.5423 5.25404 11.3274 5.13984 11.0409C5.03991 10.7973 4.92571 10.4535 4.69731 9.78019C4.51887 9.26445 4.43322 8.99941 4.34757 8.72721C4.20482 8.24012 4.11203 7.88913 4.09062 7.80317C3.9907 7.40204 3.92646 7.10119 3.8765 6.85048C3.79084 6.41353 3.73374 6.09119 3.66951 5.71871C3.56958 5.13134 3.51962 4.83765 3.48393 4.46517C3.44824 4.09985 3.43397 3.81333 3.42683 3.58411C3.41256 3.1973 3.39828 2.93227 3.41256 2.58128C3.42683 2.18014 3.44111 1.83631 3.54817 1.38504C3.53389 1.38504 3.70519 0.697381 4.01925 0.339226Z" fill="#FFD740"/>
<path d="M19.0992 2.84663C19.2063 2.78933 19.3348 2.75351 19.4775 2.76067C19.5489 2.76784 19.6488 2.76784 19.7345 2.83947C19.7987 2.88961 19.8273 2.95408 19.8772 3.07585C19.9129 3.16181 19.9343 3.22628 19.9557 3.3194C19.9629 3.35521 19.9914 3.44833 20.02 3.59876C20.0343 3.65606 20.0557 3.79932 20.0771 3.97124C20.0985 4.14315 20.0985 4.26492 20.0985 4.59443C20.0985 4.98123 20.0985 5.17464 20.0985 5.24627C20.0985 5.32506 20.0842 5.6474 20.0343 6.06286C20.0057 6.33506 19.97 6.54279 19.9272 6.75768C19.9129 6.82931 19.9058 6.87945 19.8201 7.35222C19.7416 7.782 19.6988 8.00406 19.6845 8.07569C19.6702 8.15449 19.5989 8.47682 19.4847 8.8708C19.3776 9.26477 19.3419 9.30774 19.1563 9.89512C18.9493 10.547 18.9922 10.4897 18.8708 10.8406C18.7566 11.1701 18.7424 11.1487 18.464 11.8721C18.2641 12.3879 18.2641 12.4094 18.1714 12.6171C18.0429 12.9036 17.9144 13.1185 17.7645 13.3979C17.4576 13.9423 17.4862 13.8205 17.3791 14.0497C17.272 14.2933 17.2292 14.4508 17.115 14.4723C17.0365 14.4867 17.0008 14.3935 16.8224 14.2718C16.7653 14.236 16.6653 14.193 16.4726 14.1142C16.3299 14.0569 16.1728 13.9924 15.9088 13.8921C15.7517 13.8348 15.6233 13.8563 15.5804 13.7704C15.559 13.7202 15.5662 13.6772 15.5733 13.6128C15.5876 13.4838 15.5662 13.4838 15.559 13.1758C15.5519 13.0755 15.5447 12.8248 15.559 12.5383C15.5662 12.3736 15.5804 12.2518 15.6018 12.0082C15.6233 11.822 15.6518 11.5498 15.7018 11.2203C15.716 11.1272 15.7589 10.8621 15.8873 10.2175C16.0158 9.57994 16.0801 9.2576 16.1943 8.82065C16.3227 8.31924 16.4369 7.94676 16.4798 7.83215C16.6653 7.25194 16.8295 6.82931 16.9366 6.57144C17.1436 6.04854 17.322 5.66173 17.4647 5.36804C17.5504 5.1818 17.7574 4.75201 18.0429 4.21478C18.0429 4.21478 18.2356 3.85663 18.5711 3.3767C18.6853 3.1833 18.8351 2.97557 19.0992 2.84663Z" fill="#202060"/>
<path d="M4.70412 3.1328C4.76836 3.03251 4.85401 2.92507 4.98249 2.85344C5.04673 2.81762 5.13238 2.76748 5.24658 2.78181C5.32509 2.78897 5.38219 2.83195 5.49639 2.90358C5.5749 2.95372 5.62487 3.00386 5.69624 3.06833C5.72479 3.08982 5.78903 3.15429 5.89609 3.2689C5.93892 3.31187 6.03884 3.41932 6.13877 3.55542C6.24583 3.69152 6.31007 3.7918 6.48851 4.07116C6.69549 4.3935 6.79542 4.55825 6.83111 4.62272C6.87393 4.69435 7.03096 4.96655 7.2094 5.35336C7.3236 5.60407 7.40211 5.79031 7.48776 5.99804C7.51631 6.0625 7.53772 6.11265 7.70902 6.55676C7.86605 6.96505 7.9517 7.17278 7.97311 7.24441C8.00166 7.32321 8.10872 7.63122 8.22292 8.02519C8.33713 8.41916 8.33713 8.47647 8.48701 9.071C8.65831 9.73001 8.65831 9.66554 8.74396 10.0237C8.82248 10.3604 8.80106 10.3532 8.94382 11.1196C9.04374 11.664 9.05802 11.6855 9.08657 11.9076C9.12939 12.2228 9.13653 12.4735 9.1508 12.7887C9.2079 13.9276 9.27928 13.8345 8.43705 14.0923C8.28716 14.1353 8.17296 14.2642 7.8946 14.3216C7.73044 14.3574 7.70902 14.4791 7.62337 14.429C7.58055 14.4003 7.43066 14.2141 7.40925 14.1496C7.35215 14.0279 7.33787 14.0422 7.16657 13.7915C7.10947 13.7127 6.97386 13.4978 6.83111 13.2471C6.75259 13.1038 6.69549 12.9892 6.58843 12.7672C6.50278 12.5952 6.38858 12.3517 6.25297 12.0437C6.21728 11.9577 6.11022 11.7142 5.88182 11.0982C5.65342 10.4893 5.53921 10.1813 5.4036 9.7515C5.24658 9.25725 5.15379 8.8776 5.1181 8.76299C4.96821 8.17562 4.8897 7.72434 4.83974 7.44498C4.73267 6.90059 4.68271 6.47796 4.63989 6.14846C4.61847 5.94789 4.56137 5.47513 4.51855 4.8591C4.51855 4.8591 4.49 4.45081 4.51855 3.86343C4.53282 3.64854 4.55424 3.38351 4.70412 3.1328Z" fill="#202060"/>
<path d="M9.4365 25.6611L10.2216 25.9405L11.2494 26.2055L12.0274 26.2915H12.5128L13.2836 26.2055L14.2186 26.0336L15.2607 25.6611L15.5034 25.9763L15.8817 26.5064L16.1815 27.237L16.4384 28.0894L16.6026 28.8415V29.0851L16.4884 29.1854L15.9887 29.3286L15.1822 29.4791L14.3471 29.5364L13.1837 29.6152H12.1987H10.8711L10.0004 29.5006L9.05821 29.3716L8.16602 29.1424L8.3159 28.1181L8.61568 27.1152L9.4365 25.6611Z" fill="#40009B"/>
<path d="M9.73641 18.2971C10.0439 18.2971 10.2931 18.047 10.2931 17.7384C10.2931 17.4298 10.0439 17.1797 9.73641 17.1797C9.42894 17.1797 9.17969 17.4298 9.17969 17.7384C9.17969 18.047 9.42894 18.2971 9.73641 18.2971Z" fill="#40009B"/>
<path d="M14.9462 17.2435L14.7535 17.4369L14.5251 17.6303L14.3966 17.7593L14.2182 17.9097L14.2111 17.924L14.1897 17.9455L14.4609 17.9527H14.832H15.0033H15.0818L15.1532 17.9598H15.1818V17.9885L15.2103 18.01C15.2103 18.01 15.2317 18.0386 15.2317 18.0458C15.2246 18.0529 15.2175 18.1031 15.2175 18.1031L15.1818 18.1604H15.1175C15.1175 18.1604 14.9534 18.1461 14.9177 18.1461C14.8891 18.1461 14.7321 18.1461 14.7321 18.1461C14.7321 18.1461 14.4823 18.1317 14.468 18.1389C14.4537 18.1461 14.2325 18.1246 14.2325 18.1246H14.0398L13.8756 18.1103L13.8613 18.0673V18.0028L13.8685 17.9383L13.9398 17.881C13.947 17.8739 14.054 17.7879 14.054 17.7879L14.1468 17.7091L14.2182 17.6303L14.3467 17.53L14.4537 17.4369L14.5537 17.3366L14.7607 17.1647L14.8106 17.1289H14.8677H14.8963L14.9248 17.1647L14.9534 17.2005" fill="#40009B"/>
<path d="M11.5847 19.2354H12.3199H12.8266L13.0051 19.3285L13.055 19.3858V19.5577L12.9408 19.7797L12.7338 19.9875L12.534 20.1164L12.3984 20.1594H12.2128H12.0486L11.913 20.0949L11.7631 19.9732L11.5847 19.8371L11.4776 19.701L11.4062 19.5004L11.4348 19.3356L11.5847 19.2354Z" fill="#40009B"/>
<path d="M12.3261 20.1592V20.4385V20.8397V21.1692V21.205L12.4475 21.2695L12.5759 21.3697L12.733 21.4557L12.8614 21.513L12.9971 21.5417H13.1184H13.2611H13.3968L13.511 21.4987L13.6751 21.4414L13.7893 21.3912L13.9249 21.3339L14.0534 21.2695L14.1462 21.1978L14.2533 21.119L14.2889 21.0832H14.3318V21.1334L14.3175 21.1763L14.2461 21.2336L14.1676 21.3053L14.0677 21.3912L13.9463 21.4987L13.775 21.6061L13.5895 21.6992L13.4324 21.7565L13.3254 21.7852H13.1898H13.0113L12.9043 21.7565L12.7829 21.6849L12.6116 21.5775L12.4546 21.4629L12.2476 21.3196H12.2191L12.1191 21.3984L11.9907 21.4772C11.9907 21.4772 11.798 21.5846 11.7908 21.599C11.7908 21.6061 11.5838 21.7207 11.5838 21.7207L11.5267 21.7565L11.4982 21.7852H11.3412L11.1199 21.7709L10.9414 21.7279L10.7345 21.6276L10.5489 21.513L10.349 21.3339L10.2277 21.205L10.192 21.1477L10.1777 21.119L10.2063 21.0975L10.3062 21.1692L10.4561 21.2766C10.4561 21.2766 10.5703 21.3554 10.5774 21.3626C10.5846 21.3697 10.7701 21.4485 10.7701 21.4485L10.9914 21.5345L11.2055 21.5488L11.4839 21.556L11.7623 21.4557L12.0264 21.2909L12.1263 21.205L12.1477 21.1262L12.1548 20.8253L12.1477 20.5245V20.2881V20.1663H12.3261V20.1592Z" fill="#40009B"/>
<path d="M10.857 20.8331C10.9279 20.8331 10.9855 20.7753 10.9855 20.7041C10.9855 20.6329 10.9279 20.5752 10.857 20.5752C10.786 20.5752 10.7285 20.6329 10.7285 20.7041C10.7285 20.7753 10.786 20.8331 10.857 20.8331Z" fill="#40009B"/>
<path d="M11.4117 20.6319C11.4826 20.6319 11.5402 20.5742 11.5402 20.503C11.5402 20.4317 11.4826 20.374 11.4117 20.374C11.3407 20.374 11.2832 20.4317 11.2832 20.503C11.2832 20.5742 11.3407 20.6319 11.4117 20.6319Z" fill="#40009B"/>
<path d="M13.7398 20.8331C13.8108 20.8331 13.8683 20.7753 13.8683 20.7041C13.8683 20.6329 13.8108 20.5752 13.7398 20.5752C13.6688 20.5752 13.6113 20.6329 13.6113 20.7041C13.6113 20.7753 13.6688 20.8331 13.7398 20.8331Z" fill="#40009B"/>
<path d="M13.1754 20.6319C13.2463 20.6319 13.3038 20.5742 13.3038 20.503C13.3038 20.4317 13.2463 20.374 13.1754 20.374C13.1044 20.374 13.0469 20.4317 13.0469 20.503C13.0469 20.5742 13.1044 20.6319 13.1754 20.6319Z" fill="#40009B"/>
<path d="M11.3199 21.0547C11.3908 21.0547 11.4484 20.997 11.4484 20.9258C11.4484 20.8546 11.3908 20.7969 11.3199 20.7969C11.2489 20.7969 11.1914 20.8546 11.1914 20.9258C11.1914 20.997 11.2489 21.0547 11.3199 21.0547Z" fill="#40009B"/>
<path d="M13.2691 21.0909C13.1977 21.0909 13.1406 21.0336 13.1406 20.9619C13.1406 20.8903 13.1977 20.833 13.2691 20.833C13.3405 20.833 13.3976 20.8903 13.3976 20.9619C13.3976 21.0336 13.3405 21.0909 13.2691 21.0909Z" fill="#40009B"/>
<path d="M20.1617 26.3054C20.6545 26.3054 21.0539 25.9045 21.0539 25.41C21.0539 24.9155 20.6545 24.5146 20.1617 24.5146C19.669 24.5146 19.2695 24.9155 19.2695 25.41C19.2695 25.9045 19.669 26.3054 20.1617 26.3054Z" fill="#202060"/>
<path d="M21.0411 24.5145C21.2461 24.5145 21.4122 24.3477 21.4122 24.142C21.4122 23.9363 21.2461 23.7695 21.0411 23.7695C20.8361 23.7695 20.6699 23.9363 20.6699 24.142C20.6699 24.3477 20.8361 24.5145 21.0411 24.5145Z" fill="#202060"/>
<path d="M21.9044 24.9373C22.1093 24.9373 22.2755 24.7706 22.2755 24.5649C22.2755 24.3591 22.1093 24.1924 21.9044 24.1924C21.6994 24.1924 21.5332 24.3591 21.5332 24.5649C21.5332 24.7706 21.6994 24.9373 21.9044 24.9373Z" fill="#202060"/>
<path d="M21.6329 25.8963C21.8379 25.8963 22.004 25.7296 22.004 25.5238C22.004 25.3181 21.8379 25.1514 21.6329 25.1514C21.4279 25.1514 21.2617 25.3181 21.2617 25.5238C21.2617 25.7296 21.4279 25.8963 21.6329 25.8963Z" fill="#202060"/>
<path d="M4.68907 26.4919C5.18181 26.4919 5.58126 26.0911 5.58126 25.5966C5.58126 25.1021 5.18181 24.7012 4.68907 24.7012C4.19632 24.7012 3.79688 25.1021 3.79688 25.5966C3.79688 26.0911 4.19632 26.4919 4.68907 26.4919Z" fill="#202060"/>
<path d="M3.15631 25.9188C3.36129 25.9188 3.52746 25.752 3.52746 25.5463C3.52746 25.3406 3.36129 25.1738 3.15631 25.1738C2.95133 25.1738 2.78516 25.3406 2.78516 25.5463C2.78516 25.752 2.95133 25.9188 3.15631 25.9188Z" fill="#202060"/>
<path d="M3.03326 24.9657C3.23824 24.9657 3.40441 24.7989 3.40441 24.5932C3.40441 24.3875 3.23824 24.2207 3.03326 24.2207C2.82828 24.2207 2.66211 24.3875 2.66211 24.5932C2.66211 24.7989 2.82828 24.9657 3.03326 24.9657Z" fill="#202060"/>
<path d="M3.98248 24.6649C4.18746 24.6649 4.35363 24.4981 4.35363 24.2924C4.35363 24.0867 4.18746 23.9199 3.98248 23.9199C3.7775 23.9199 3.61133 24.0867 3.61133 24.2924C3.61133 24.4981 3.7775 24.6649 3.98248 24.6649Z" fill="#202060"/>
<path d="M23.8735 18.6346L23.0812 20.5758L20.5545 26.7361L19.541 26.3206L22.0677 20.1604L22.86 18.2192C23.2525 18.1475 23.6451 18.3051 23.8735 18.6346Z" fill="#40009B"/>
<path d="M19.8408 26.4348L22.3675 20.2745L23.1597 18.3333C23.3025 18.3047 23.4381 18.3118 23.5737 18.3405C23.3667 18.2115 23.1098 18.1614 22.86 18.2115L22.0677 20.1527L19.541 26.313L19.8408 26.4348Z" fill="#40009B"/>
<path d="M23.8722 18.6335L23.0799 20.5747L22.0664 20.1592L22.4518 19.2208L22.8587 18.2252C22.9729 18.2037 23.0942 18.2037 23.2084 18.218C23.4725 18.2538 23.7152 18.4042 23.8722 18.6335Z" fill="#FFD740"/>
<path d="M23.1599 20.3675L22.9315 20.9334C22.7745 20.7042 22.5318 20.5537 22.2677 20.5179C22.1535 20.4964 22.0393 20.4964 21.918 20.5251L22.0679 20.1669L22.1535 19.9664C22.2677 19.9449 22.389 19.9449 22.5032 19.9592C22.5818 19.9735 22.6531 19.995 22.7245 20.0237C22.8958 20.081 23.0457 20.2027 23.1599 20.3675Z" fill="#40009B"/>
<path d="M4.46872 27.8526C4.67571 27.8096 4.81132 27.6091 4.77564 27.4013L3.46233 20.4531L2.71289 20.5964L4.0262 27.5446C4.06188 27.7595 4.26173 27.8956 4.46872 27.8526Z" fill="#40009B"/>
<path d="M3.12687 20.5176L4.44017 27.4658C4.46872 27.6162 4.40449 27.7595 4.29742 27.8454C4.35452 27.8598 4.41162 27.8669 4.46872 27.8526C4.67571 27.8096 4.81132 27.6091 4.77564 27.4013L3.46233 20.4531L2.71289 20.5964L3.12687 20.5176Z" fill="#40009B"/>
<path d="M3.89018 16.3201C3.82595 16.4992 3.81881 16.6496 3.81167 16.7642C3.79739 16.9791 3.82595 17.151 3.84022 17.2871C3.8545 17.3659 3.87591 17.4948 3.93301 17.7097C3.96156 17.8243 4.0258 18.0177 4.18996 18.4475C4.28275 18.6911 4.3684 18.9418 4.46832 19.1853C4.49687 19.257 4.55397 19.3931 4.56825 19.5865C4.58252 19.7655 4.54684 19.8801 4.5397 19.9088C4.51829 19.9733 4.4826 20.0664 4.38981 20.1738C4.34698 20.2311 4.1971 20.4102 3.83308 20.6108C3.65464 20.7111 3.46193 20.8114 3.19071 20.8758C2.87665 20.9403 2.63398 20.9116 2.43413 20.8901C2.18431 20.8615 1.9916 20.84 1.77747 20.7111C1.68469 20.6538 1.52052 20.5606 1.40632 20.3672C1.32067 20.2168 1.29926 20.0807 1.29212 19.8157C1.27071 19.3859 1.27785 19.0636 1.27785 18.8988C1.27785 18.5406 1.27071 18.2971 1.22075 17.9819C1.17078 17.6954 1.12082 17.4375 0.956658 17.151C0.799633 16.886 0.606919 16.7141 0.471306 16.6066H0.457031L0.471306 16.5994L0.621194 16.5708L0.899558 16.5207L1.04231 16.492L1.23502 16.7212L1.49197 17.0794L1.69182 17.4447L1.75606 17.6023L1.8203 17.8172L1.80602 17.5808C1.80602 17.5808 1.78461 17.2585 1.78461 17.2513L1.75606 16.8573L1.73465 16.5565L1.72037 16.3487L1.83457 16.3273L2.01301 16.2914L2.1629 16.2628L2.22 16.2485L2.31993 16.4777L2.51264 16.9075L2.59115 17.0937L2.64825 17.2298L2.6768 17.2943L2.70535 17.0937L2.75532 16.757L2.79814 16.4705L2.82669 16.2771L2.8481 16.1267L2.86952 16.3201L2.89807 16.5851L2.93375 16.886L2.95517 17.1152L2.96944 17.2656L2.99799 17.0436L3.02654 16.7785L3.06223 16.4634L3.09078 16.1983L3.10505 16.0694L3.24781 16.0407L3.54044 15.9834L3.86877 15.919L4.0829 15.876L3.89018 16.3201Z" fill="#202060"/>
<path d="M2.64893 20.8263L3.59822 20.6472C3.76952 20.6114 3.93369 20.726 3.96224 20.8979L4.00506 21.1271C4.04075 21.299 3.92655 21.4638 3.75525 21.4924L2.80596 21.6715C2.63466 21.7073 2.47049 21.5927 2.44194 21.4208L2.39912 21.1916C2.36343 21.0268 2.47763 20.8621 2.64893 20.8263Z" fill="#FFD740"/>
<path d="M3.74766 20.6109L3.14097 20.833L2.78409 20.8545L2.46291 20.833L2.21309 20.6396L2.02038 20.3746L1.95614 20.2385L1.90618 20.0665L1.88477 19.9806V19.9304L1.90618 19.8803L1.94187 19.8445L1.99183 19.8158H2.05607L2.1203 19.8445L2.16313 19.8946L2.18454 19.9591L2.22737 20.1024L2.28447 20.2313L2.35584 20.3459L2.44149 20.4462L2.54142 20.5321L2.69844 20.6181L2.81264 20.6539L2.9554 20.6826L2.92684 20.5465L2.89116 20.3674C2.89116 20.3674 2.86261 20.2313 2.86261 20.2241C2.86261 20.217 2.85547 20.1525 2.85547 20.1525L2.87688 20.088L2.90543 20.0522L2.96967 20.0092L3.05532 20.0164L3.1267 20.0594L3.14811 20.1095L3.16952 20.2241L3.19807 20.3746L3.21948 20.482L3.2409 20.5823L3.24803 20.6109L3.30513 20.5751L3.43361 20.4748L3.56922 20.3244L3.66915 20.131L3.6977 20.0164L3.71197 19.8302L3.6977 19.6869L3.68342 19.5938L3.70484 19.5365L3.78335 19.472L3.85472 19.4648L3.94037 19.4863L3.99034 19.5508L4.01889 19.7084L4.02602 19.9304L3.99034 20.1453L3.94037 20.2886L3.88327 20.4104L3.83331 20.4892L3.74766 20.6109Z" fill="#FFD740"/>
<path d="M4.68296 26.8857L3.91211 27.0362L3.93352 27.1365L4.70438 26.986L4.68296 26.8857Z" fill="#FFD740"/>
<path d="M3.79038 22.1367L3.01953 22.2943L3.03381 22.3946L3.80466 22.2442L3.79038 22.1367Z" fill="#FFD740"/>
<path d="M8.01659 24.2642C9.03755 24.2642 9.86521 23.4336 9.86521 22.409C9.86521 21.3843 9.03755 20.5537 8.01659 20.5537C6.99562 20.5537 6.16797 21.3843 6.16797 22.409C6.16797 23.4336 6.99562 24.2642 8.01659 24.2642Z" fill="#40009B"/>
<path d="M16.7666 24.2642C17.7876 24.2642 18.6152 23.4336 18.6152 22.409C18.6152 21.3843 17.7876 20.5537 16.7666 20.5537C15.7456 20.5537 14.918 21.3843 14.918 22.409C14.918 23.4336 15.7456 24.2642 16.7666 24.2642Z" fill="#40009B"/>
</svg>
