<svg width="72" height="94" viewBox="0 0 72 94" fill="none" xmlns="http://www.w3.org/2000/svg">
<path d="M39.212 78.683C39.4967 78.2648 39.5134 78.1143 39.7646 77.6627C40.0325 77.1776 40.2334 76.91 40.7525 76.2242C42.0586 74.4679 42.7116 73.5814 42.9125 73.1466C43.0632 72.7953 43.2307 72.4942 43.5321 71.9088C43.9172 71.1561 44.0009 71.0558 44.1516 70.9889C44.6874 70.7045 45.5079 71.1227 46.0102 71.6077C46.4623 72.0426 46.3954 72.3102 46.9312 73.4644C47.3163 74.2839 47.6847 74.8694 48.1703 75.622C48.84 76.6758 48.9405 76.6591 49.4094 77.4787C49.9117 78.3484 49.9284 78.5826 50.3303 79.3353C50.6317 79.8872 51.1173 80.6399 51.8708 81.493C52.1889 81.8275 52.641 82.346 53.1099 83.0318C53.7294 83.9685 53.7127 84.2695 54.3489 85.5073C55.4708 87.6984 56.0066 87.6817 56.2076 88.9027C56.3583 89.8059 56.1238 90.2074 56.509 90.7593C56.8606 91.2611 57.3964 91.4117 58.3676 91.6793C59.1211 91.88 60.2597 92.1978 61.7667 91.9804C62.3695 91.8967 63.6588 91.6626 63.9267 91.0604C64.0272 90.843 63.709 90.3579 63.6253 90.1405C63.4914 89.8227 63.2234 89.1703 63.0058 88.9027C62.9388 88.8191 60.6783 86.6948 61.1471 87.3639C61.1471 87.3639 60.0923 86.2432 59.2885 85.2062C58.4848 84.1525 58.016 83.2492 57.748 82.7307C57.1955 81.6602 57.3629 81.7439 56.509 79.9541C55.8224 78.499 55.4708 77.7797 55.4206 77.6961C55.2196 77.3616 54.8848 76.8598 54.7675 76.2075C54.7341 76.0235 54.7341 75.8897 54.6503 75.6388C54.4996 75.137 54.3322 75.0199 54.3489 74.7188C54.3489 74.7021 54.3657 74.2505 54.6503 74.1C55.0522 73.8825 55.6215 74.401 55.6717 74.4512C55.9062 74.6686 55.9731 74.8526 56.1908 75.3377C56.4587 75.9231 56.7601 76.5754 57.1118 77.1943C57.2959 77.4954 57.4466 77.7128 57.7313 78.1143C58.1499 78.6997 58.2839 78.8502 58.6522 79.352C59.2048 80.1047 59.5397 80.5563 59.8913 81.2086C60.3267 82.0449 60.3099 82.2958 60.7118 82.5802C60.9462 82.7474 61.1974 82.8478 61.5825 83.1823C61.7165 83.3161 61.8337 83.4332 62.0513 83.6674C62.5872 84.2528 62.9555 84.6375 63.2904 85.2062C63.3741 85.34 63.4746 85.524 63.6253 85.7414C63.709 85.8585 63.9602 86.2098 64.2114 86.4439C64.6467 86.8454 65.1323 86.9792 65.4504 87.0628C66.5221 87.3472 66.7733 86.9625 68.23 87.0628C69.1509 87.1297 69.5193 87.3137 69.7705 87.0628C70.1054 86.7116 69.8207 85.9422 69.7705 85.8251C69.4021 84.8215 68.5984 84.5706 67.2923 83.6674C65.5509 82.4296 66.0532 82.2289 63.8932 80.5898C63.1062 79.9876 62.6374 79.72 62.3527 79.0509C62.0179 78.2648 62.3193 77.8968 62.0513 76.8932C61.7834 75.8897 61.3983 75.99 60.8123 74.7355C60.243 73.5313 60.4606 73.1298 59.8913 71.6579C59.5732 70.8383 59.2215 70.2195 58.9704 69.8013V67.0247C58.8197 65.3856 59.0541 64.1478 59.2718 63.3282C59.6402 61.9901 60.1257 61.4047 60.5109 59.6317C60.7118 58.7118 60.6448 58.5947 60.8123 57.474C60.963 56.5374 61.1806 55.584 62.0513 52.8409C62.4365 51.6031 62.4867 51.5195 63.5918 48.2077C64.1946 46.418 64.5797 45.2304 64.8309 43.5745C64.9816 42.5207 65.0151 41.7011 64.8309 40.7979C64.7137 40.2794 64.4625 39.4598 64.2114 38.9413C64.0272 38.5232 63.8095 38.1217 63.5918 37.7036C63.3072 37.1516 63.2904 37.1683 63.2904 37.0847C63.2737 36.7167 63.5918 36.3487 63.91 36.1647C64.5295 35.8135 64.9816 36.2484 65.7686 36.1647C66.6226 36.0644 66.9407 35.4455 67.9286 34.6259C68.4979 34.1576 69.3854 33.5554 70.7082 33.0871C70.8756 32.2173 70.9593 31.4814 71.0096 30.9294C71.0933 29.9426 71.1603 29.1564 71.0096 28.1529C70.9091 27.5507 70.8589 27.2496 70.7082 26.9151C70.2728 26.0621 69.6365 25.9283 68.5482 25.0585C67.9454 24.5734 68.1463 24.6236 67.0077 23.5197C66.003 22.5495 65.1156 21.8136 64.5295 21.362C63.1565 20.2748 62.4867 19.7395 61.7499 19.5054C60.6783 19.1708 60.5611 19.5221 58.9704 19.2043C58.1834 19.037 58.3341 18.9869 56.1908 18.2843C54.5666 17.7491 54.282 17.7324 53.7127 17.3644C53.4615 17.1971 52.7247 16.7121 52.1722 15.8256C51.5694 14.8555 51.6866 14.2031 51.4187 12.7145C51.2345 11.7611 50.8829 10.8077 50.1796 8.88418C49.5935 7.27845 49.0745 6.14107 48.6391 5.18767C48.4214 4.68588 48.1368 4.08373 47.7182 3.33105C47.0317 2.11003 46.5963 1.60824 46.4791 1.47443C45.9935 0.939193 45.6084 0.50431 44.9386 0.236689C44.6372 0.119605 43.7163 -0.231647 43.08 0.236689C42.6446 0.554489 42.5442 1.10646 42.4604 1.47443C42.4604 1.47443 42.3432 2.09331 42.4604 2.71218C42.6446 3.63212 47.7851 18.4851 48.4382 18.184C49.0745 17.8829 41.6735 4.8866 40.3004 3.02998C40.0493 2.67873 39.6976 2.19366 39.0613 1.79223C38.2074 1.24027 37.8892 1.49116 36.9013 0.872288C36.2985 0.487584 36.0474 0.169784 35.6622 0.253416C35.2604 0.353773 35.0594 0.822109 35.0427 0.872288C34.9255 1.15663 34.9757 1.42426 35.0427 1.79223C35.0929 2.0264 35.1767 2.3442 35.3441 2.71218C35.545 3.11361 35.7627 3.51504 35.9636 3.94992C36.3153 4.70261 36.6167 5.42184 36.8846 6.10761C37.6381 8.36566 38.4585 10.0048 39.0446 11.0419C39.2623 11.4433 39.5302 11.9116 39.932 12.5138C40.8865 13.9188 41.2214 14.0024 42.0418 15.2402C42.7618 16.3274 42.5442 16.3441 43.3479 17.5317C43.6828 18.0167 44.0512 18.5018 44.587 19.3883C44.8549 19.8232 45.0391 20.1744 45.2065 20.626C45.2902 20.8267 45.4242 21.2616 45.5079 21.8638C45.6419 22.7168 45.5414 23.1182 45.5079 24.3393C45.4577 25.8614 45.5916 25.6439 45.5079 26.497C45.3907 27.7849 45.1228 28.0023 45.2065 28.9724C45.2735 29.7251 45.4409 29.608 45.5079 30.5113C45.5749 31.2305 45.4744 31.4145 45.5079 32.669C45.5247 33.4384 45.5582 33.4384 45.5079 33.5889C45.3237 34.0405 44.8549 34.2747 43.0298 34.8266C42.0418 35.1277 41.2883 35.3284 40.8697 35.4455C39.4632 35.8302 38.7599 36.0142 38.3916 36.0644C37.2864 36.2149 37.2027 36.0142 35.612 36.0644C34.4232 36.0978 34.5404 36.1982 32.531 36.3655C30.5887 36.5327 30.304 36.4491 29.4501 36.6665C28.4789 36.9174 27.8091 37.3021 27.2901 37.5865C22.8026 40.0787 22.1495 39.8947 19.8723 41.6008C19.437 41.9353 18.65 42.6378 17.0927 44.0763C14.2797 46.6521 12.8397 47.9735 11.5336 49.6294C10.8471 50.4992 9.75872 51.8874 8.75406 53.9448C8.15126 55.1658 7.83311 56.1025 7.21357 57.9591C6.67775 59.5648 6.76148 59.4979 5.67309 63.1944C4.81913 66.1215 4.56797 66.7738 4.43401 68.1287C4.33354 69.149 4.24982 70.0355 4.43401 71.2063C4.70192 72.8455 5.17076 72.9793 5.97449 75.8395C6.35961 77.211 6.2424 77.1107 6.59403 78.315C6.61078 78.3986 6.71124 78.8837 6.89543 79.8538C6.96241 80.2385 7.01264 80.4894 6.89543 80.7737C6.74473 81.1417 6.3931 81.3257 6.27589 81.3926C5.74007 81.677 5.23774 81.5097 4.41727 81.3926C3.5633 81.2588 2.45818 81.1752 1.3363 81.3926C0.499086 81.5599 0.231177 81.7606 0.0972217 82.0115C-0.103711 82.4129 0.063733 82.8645 0.0972217 82.9314C0.314898 83.4834 1.01816 83.8514 1.01816 83.8514C2.42469 84.6041 4.24982 87.3304 7.81637 87.8657C8.6201 87.9828 9.77546 88.1668 11.2155 87.8657C12.3039 87.6482 13.1076 87.2468 13.3755 87.5646C13.7104 87.966 12.7057 88.9027 13.0741 89.7223C13.2918 90.2241 13.8946 90.3746 14.9327 90.6423C17.2769 91.2444 18.4323 91.5455 18.6332 91.5622C21.2119 91.9134 22.3505 91.9636 24.1924 92.1811C27.9096 92.5992 28.5459 92.9338 30.9906 93.101C32.5143 93.2014 34.1218 93.2014 34.9422 93.3686C35.0092 93.3854 35.2771 93.4355 35.6287 93.4188C36.1143 93.3854 36.4827 93.2014 36.6669 93.1177C37.0688 92.917 37.3367 92.7832 37.4874 92.4989C37.705 92.0974 37.5878 91.6626 37.4874 91.2611C37.4371 91.0771 37.3032 90.6088 36.8678 90.0234C36.3153 89.2874 35.679 88.886 35.0092 88.4846C34.3897 88.1166 34.0883 87.9326 33.7701 87.8657C32.7655 87.6817 32.0789 88.2671 31.6101 87.8657C31.4427 87.7319 31.3924 87.5312 31.3087 87.2468C31.1748 86.8287 31.1915 86.3269 31.3087 86.0091C31.3757 85.8251 31.6603 85.2564 34.3897 84.7713C35.6455 84.5539 36.5999 84.487 36.8176 84.4702C38.7767 84.3532 39.1451 84.5037 40.5516 84.4535C44.1684 84.3197 44.2019 83.2158 46.4121 83.5336C46.6633 83.567 47.8186 83.751 48.8903 83.2325C49.3424 83.0151 49.4763 82.7976 49.5098 82.6136C49.5601 82.3126 49.2754 82.0784 48.8903 81.6937C47.8186 80.5898 48.0865 80.3556 47.3498 79.8371C46.6968 79.3855 46.0605 79.2684 45.8093 79.2182C45.307 79.1346 44.9386 79.1513 44.2688 79.2182C43.9005 79.2516 43.2474 79.3186 42.4102 79.5193C41.1376 79.8538 41.0037 80.1381 40.2502 80.1381C39.5637 80.1381 38.7767 79.8873 38.7097 79.5193C38.7265 79.2684 38.8939 79.168 39.212 78.683Z" fill="#FFD740"/>
<path d="M62.1668 26.095C62.7216 26.095 63.1714 25.6457 63.1714 25.0915C63.1714 24.5372 62.7216 24.0879 62.1668 24.0879C61.6119 24.0879 61.1621 24.5372 61.1621 25.0915C61.1621 25.6457 61.6119 26.095 62.1668 26.095Z" fill="#202060"/>
</svg>
