<svg width="84" height="136" viewBox="0 0 84 136" fill="none" xmlns="http://www.w3.org/2000/svg">
<path d="M50.1132 1.20637C51.3668 1.09848 54.9848 2.44094 54.9848 2.44094L57.2909 3.34428L57.3081 3.35177L57.5955 3.46684L57.785 3.87678L57.5801 3.97153L57.6749 4.1765L57.47 4.27125L57.5648 4.47622L57.3599 4.57097L57.4547 4.77594L57.2498 4.87069L57.5342 5.4856L57.3293 5.58035L57.5016 5.9828L57.2143 5.86773L57.3867 6.27018L57.0994 6.15511L57.2717 6.55756L56.9844 6.44249L57.174 6.85243L56.9691 6.94718L57.1586 7.35712L56.9538 7.45187L57.0485 7.65685L56.8436 7.7516L56.9384 7.95656L56.7335 8.05132L56.8283 8.25629L56.6234 8.35104L56.813 8.76098L56.6081 8.85573L56.7977 9.26567L56.5928 9.36042L56.6876 9.56539L56.4827 9.66014L56.5775 9.86511L56.1677 10.0546L56.3573 10.4646L56.1524 10.5593L56.4367 11.1742L56.2318 11.269L56.3266 11.4739L55.9243 11.6462L56.0191 11.8512L55.8142 11.946L56.0814 12.5534L55.8765 12.6481L56.066 13.0581L55.732 12.9329L55.5271 13.0276L55.6219 13.2326L55.417 13.3273L55.5118 13.5323L55.3069 13.6271L55.4965 14.037L55.2916 14.1318L55.464 14.5342L55.2591 14.629L55.3538 14.8339L55.149 14.9287L55.2437 15.1336L55.0389 15.2284L55.1336 15.4334L54.9288 15.5281L55.1183 15.9381L54.9134 16.0328L55.0858 16.4353L54.8809 16.53L54.9757 16.735L54.7708 16.8297L54.8656 17.0347L54.6607 17.1294L54.7555 17.3344L54.5506 17.4292L54.7402 17.8391L54.5353 17.9339L54.7248 18.3438L54.5199 18.4386L54.6147 18.6435L54.205 18.833L54.2997 19.038L54.0949 19.1327L54.1896 19.3377L54.362 19.7402L54.1571 19.8349L54.2519 20.0399L54.047 20.1346L54.2366 20.5446L53.8268 20.7341L53.9216 20.939L53.7167 21.0338L54.001 21.6487L53.7961 21.7435L53.9857 22.1534L53.5759 22.3429L53.6707 22.5479L53.4658 22.6426L53.5606 22.8476L53.3557 22.9423L53.5281 23.3448L53.6229 23.5498L53.418 23.6445L53.5128 23.8495L53.3079 23.9442L53.4027 24.1492L53.1978 24.2439L53.2926 24.4489L53.0877 24.5437L53.1825 24.7486L52.9776 24.8434L53.1499 25.2458L52.9451 25.3406L53.1174 25.743L52.9125 25.8378L53.0073 26.0428L52.8024 26.1375L52.8972 26.3425L52.4875 26.532L52.8666 27.3519L52.6617 27.4466L52.7565 27.6516L52.5516 27.7463L52.6464 27.9513L52.2366 28.1408L52.4261 28.5507L52.2213 28.6455L52.4108 29.0554L52.2059 29.1502L52.3007 29.3552L52.0958 29.4499L52.1906 29.6549L51.9857 29.7496L52.1753 30.1596L51.9704 30.2543L52.0652 30.4593L51.8603 30.554L51.9551 30.759L51.7502 30.8538L51.9398 31.2637L51.7349 31.3585L51.8296 31.5634L51.6248 31.6582L51.7195 31.8631L51.5147 31.9579L51.6094 32.1629L51.4045 32.2576L51.5941 32.6676L51.3892 32.7623L51.5788 33.1723L51.3739 33.267L51.4687 33.472L51.2638 33.5667L51.3586 33.7717L51.1537 33.8664L51.2485 34.0714L51.0436 34.1662L51.3279 34.7811L51.123 34.8758L51.2178 35.0808L51.0129 35.1755L51.1077 35.3805L50.9028 35.4753L50.9976 35.6802L50.5878 35.8697L50.8722 36.4846L50.6673 36.5794L50.8568 36.9893L50.652 37.0841L50.7467 37.2891L50.5419 37.3838L50.6366 37.5888L50.2269 37.7783L50.5112 38.3932L50.3063 38.4879L50.4959 38.8979L50.0861 39.0874L50.1809 39.2924L49.976 39.3871L50.0708 39.5921L49.8659 39.6868L50.1502 40.3017L49.9453 40.3965L50.0401 40.6015L49.8352 40.6962L49.93 40.9012L49.7251 40.9959L49.8199 41.2009L49.615 41.2957L49.7098 41.5006L49.5049 41.5954L49.7893 42.2103L49.5844 42.305L49.7739 42.715L49.3642 42.9045L49.459 43.1095L48.934 42.3896L49.0288 42.5946L48.8239 42.6893L49.0134 43.0993L48.8086 43.194L48.9981 43.604L48.7932 43.6987L48.888 43.9037L48.6831 43.9984L48.7779 44.2034L48.573 44.2982L48.6678 44.5031L48.4629 44.5979L48.6525 45.0078L48.4013 45.021L48.5909 45.431L48.1811 45.6205L48.2759 45.8254L48.071 45.9202L48.1658 46.1252L47.9609 46.2199L48.2452 46.8348L48.0403 46.9296L48.1351 47.1345L47.9302 47.2293L48.025 47.4343L47.8201 47.529L48.0097 47.939L47.8048 48.0337L47.8996 48.2387L47.6947 48.3334L47.8843 48.7434L47.6794 48.8381L47.7742 49.0431L47.5693 49.1378L47.6641 49.3428L47.4592 49.4376L47.554 49.6425L47.3491 49.7373L47.5214 50.1397L47.3166 50.2345L47.5061 50.6444L47.3012 50.7392L47.396 50.9441L47.1911 51.0389L47.2859 51.2439L47.081 51.3386L47.1758 51.5436L46.9709 51.6383L47.0657 51.8433L46.8608 51.9381L47.1451 52.553L46.9403 52.6477L47.035 52.8527L46.8302 52.9474L46.9249 53.1524L46.72 53.2472L46.8148 53.4521L46.6099 53.5469L46.7047 53.7519L46.4998 53.8466L46.7842 54.4615L46.5793 54.5563L46.6741 54.7612L46.2643 54.9507L46.3591 55.1557L46.1542 55.2505L46.4385 55.8654L46.2337 55.9601L46.4232 56.3701L46.2183 56.4648L46.3131 56.6698L45.9033 56.8593L45.9981 57.0643L45.7932 57.159L45.9828 57.5689L45.7779 57.6637L45.9675 58.0736L45.5924 57.8078L45.6872 58.0128L45.4823 58.1075L45.5771 58.3125L45.3722 58.4073L45.467 58.6122L45.2621 58.707L45.3569 58.912L45.152 59.0067L45.4363 59.6216L45.2314 59.7164L45.3262 59.9213L44.9165 60.1108L45.106 60.5208L44.9011 60.6155L45.0735 61.018L44.8686 61.1127L45.0582 61.5227L44.8533 61.6174L44.9481 61.8224L44.5383 62.0119L44.7279 62.4218L44.523 62.5166L44.7125 62.9265L44.5077 63.0213L44.6024 63.2262L44.3975 63.321L44.4923 63.526L44.2874 63.6207L44.3822 63.8257L44.1773 63.9204L44.2721 64.1254L44.0672 64.2202L44.2568 64.6301L44.0519 64.7248L44.2415 65.1348L44.0366 65.2295L44.1314 65.4345L43.9265 65.5293L44.0213 65.7342L43.8164 65.829L43.9111 66.034L43.7063 66.1287L43.8958 66.5386L43.6909 66.6334L43.8633 67.0358L43.6584 67.1306L43.7532 67.3356L43.5483 67.4303L43.6431 67.6353L43.4382 67.73L43.533 67.935L43.3281 68.0298L43.6124 68.6447L43.4076 68.7394L43.5023 68.9444L43.2975 69.0391L43.3922 69.2441L43.1874 69.3389L43.2821 69.5438L43.0772 69.6386L43.172 69.8436L42.9671 69.9383L43.1567 70.3482L42.9518 70.443L43.1414 70.8529L42.7835 70.5946L42.8783 70.7996L42.4685 70.9891L42.6581 71.399L42.4532 71.4938L42.6256 71.8962L42.4207 71.991L42.5155 72.1959L42.3106 72.2907L42.4054 72.4957L42.2005 72.5904L42.2953 72.7954L42.0904 72.8901L42.1852 73.0951L41.9803 73.1899L42.2646 73.8048L42.0597 73.8995L42.1545 74.1045L41.9496 74.1992L42.0444 74.4042L41.8395 74.499L41.9343 74.7039L41.7294 74.7987L41.8242 75.0036L41.6193 75.0984L41.9036 75.7133L41.6988 75.8081L41.7935 76.013L41.5886 76.1078L41.6834 76.3128L41.4785 76.4075L41.5733 76.6125L41.3684 76.7072L41.4632 76.9122L41.2583 77.0069L41.4479 77.4169L41.243 77.5116L41.4326 77.9216L41.2277 78.0163L41.3225 78.2213L41.1176 78.316L41.2124 78.521L41.0075 78.6158L41.1022 78.8207L40.8974 78.9155L41.0697 79.3179L40.8648 79.4127L41.0544 79.8226L40.8495 79.9174L40.9443 80.1223L40.7394 80.2171L40.8342 80.4221L40.6293 80.5168L40.7241 80.7218L40.5192 80.8165L40.7088 81.2265L40.5039 81.3212L40.6934 81.7312L40.2837 81.9207L40.3784 82.1256L40.1736 82.2204L40.3631 82.6303L40.1582 82.7251L40.3478 83.135L40.1429 83.2298L40.2377 83.4347L40.0328 83.5295L40.1276 83.7345L39.9227 83.8292L40.0175 84.0342L39.8126 84.1289L39.9074 84.3339L39.7025 84.4287L39.9868 85.0436L39.7819 85.1383L39.8767 85.3433L39.6718 85.438L39.7666 85.643L39.5617 85.7378L39.6565 85.9427L39.4516 86.0375L39.5464 86.2425L39.3415 86.3372L39.6259 86.9521L39.421 87.0469L39.5158 87.2518L39.3109 87.3466L39.4057 87.5516L39.2008 87.6463L39.2955 87.8513L39.0907 87.946L39.1854 88.151L38.9806 88.2458L39.0753 88.4507L38.8705 88.5455L39.1548 89.1604L38.9499 89.2551L39.0447 89.4601L38.6424 89.6324L38.832 90.0424L38.6271 90.1371L38.8166 90.5471L38.6118 90.6418L38.8013 91.0517L38.399 91.2241L38.4938 91.429L38.2889 91.5238L38.4785 91.9337L38.2736 92.0285L38.4632 92.4384L38.2583 92.5332L38.3531 92.7381L38.1482 92.8329L38.2429 93.0379L38.0381 93.1326L38.1328 93.3376L37.928 93.4323L38.0227 93.6373L37.8179 93.732L37.9902 94.1345L37.5151 95.7887L37.9344 97.2909L37.7637 100.735L40.1087 104.999L41.7068 108.632L41.8761 111.201L40.8156 116.476L38.3854 123.557L37.6447 128.45L36.5795 132.046L35.4972 133.968L34.4675 134.899L33.0607 135.523L32.2811 135.388L31.2344 134.645L30.7949 133.635L30.1286 131.033L28.5678 128.583L25.6001 126.757L20.174 124.8L16.7466 122.457L13.9838 120.536L11.229 119.325L9.55501 119.341L8.05336 119.76L5.84191 120.729L4.43504 121.353L3.56072 121.013L2.93164 119.593L3.34937 117.249L4.50939 113.858L5.80144 111.854L6.75173 108.546L6.94266 104.61L7.68333 99.7168L9.56063 95.7591L9.99853 92.9228L10.5264 90.279L12.1988 86.4162L14.6662 80.517L16.8137 74.9999L17.8061 72.886L18.9879 72.8491L19.7675 72.9844L20.7146 71.8429L36.6018 32.3891L48.1938 3.96946L49.2963 1.55584C49.2963 1.55584 49.8916 1.22222 50.1132 1.20637Z" fill="#FFD740"/>
<path d="M21.1016 72.7165L21.2863 73.1141L23.0848 74.5018L25.0958 75.7776L26.0275 76.8077L27.0215 78.5401L27.5558 79.7549L27.8927 81.0473L27.8602 81.5445L28.2173 82.3445L29.0187 84.1668L29.7456 85.2917L31.3467 86.757L32.8655 88.0125L34.2943 89.0753L35.4309 90.0107L35.9854 90.7332L36.3675 91.0532L36.8798 90.5812L41.2696 69.8927L44.4185 56.2314L48.6279 37.295L54.0426 13.9954L56.0938 4.42709L55.7692 3.12986L54.5128 2.46947L51.0125 1.60791L49.7982 2.14204L46.9035 8.69355L42.7233 19.4403L35.2961 37.6179L26.9713 58.1144L21.1016 72.7165Z" fill="#202060"/>
<path d="M17.5998 96.7173C18.2344 96.8099 19.228 96.9466 20.3205 97.4435C21.688 98.0602 22.5346 98.9101 23.1733 99.5568C25.9799 102.386 27.3942 103.811 28.2514 104.543C30.622 106.589 31.8049 107.606 33.0874 108.441C33.3399 108.613 33.774 108.884 34.2289 109.389C35.0725 110.34 35.3393 111.418 35.6422 112.624C35.8274 113.349 35.9187 113.726 35.8567 114.221C35.7762 114.922 35.4528 115.477 35.1766 115.97C34.8956 116.451 34.6154 116.789 34.4344 117.017C34.0947 117.421 33.9136 117.649 33.5973 117.858C33.2413 118.112 32.9355 118.204 32.3829 118.392C32.082 118.496 31.6528 118.637 31.0862 118.717C30.995 118.738 29.9577 118.889 28.9151 118.701C27.7544 118.501 26.9527 117.947 25.8324 117.162C22.0476 114.489 21.6457 114.191 21.6457 114.191C18.3765 111.743 18.0702 111.507 17.6515 111.13C17.2548 110.773 17.6369 111.093 14.6465 108.122C13.9735 107.46 13.5747 107.061 13.1603 106.369C12.7288 105.67 12.5013 105.018 12.1865 104.144C11.8669 103.258 11.7095 102.822 11.6772 102.45C11.6092 101.479 11.9435 100.735 12.4025 99.7283C12.7865 98.8935 13.0535 98.3042 13.6945 97.7246C13.9346 97.502 14.5113 96.9762 15.4261 96.7308C16.1364 96.5087 16.6947 96.5885 17.5998 96.7173Z" fill="#202060"/>
</svg>
